<svg width="80" height="80" viewBox="0 0 80 80" fill="none" xmlns="http://www.w3.org/2000/svg">
<path d="M14.5516 35.6782C15.0418 40.8417 16.6431 45.8377 19.2453 50.324C21.8479 54.8106 25.39 58.6811 29.6287 61.6699L37.7488 67.4029C38.4238 67.8793 39.2296 68.1351 40.0556 68.1351C40.8815 68.1351 41.6872 67.8793 42.3623 67.4029L50.4824 61.6694V61.6699C54.7222 58.6797 58.2646 54.8083 60.8672 50.3203C63.4695 45.8323 65.0703 40.8346 65.5597 35.67L66.4932 25.8606C66.5807 24.912 66.3267 23.9637 65.7771 23.1857C65.2276 22.4075 64.4186 21.8513 63.4958 21.6165C55.9704 19.6116 48.7736 16.5308 42.129 12.4701C41.5049 12.088 40.7875 11.8857 40.0557 11.8857C39.324 11.8857 38.6066 12.088 37.9825 12.4701C31.337 16.5308 24.1402 19.6116 16.6145 21.6165C15.6899 21.8513 14.8801 22.4089 14.3306 23.1889C13.7806 23.9683 13.5279 24.9188 13.6172 25.8687L14.5516 35.6782ZM17.2556 24.2028C25.0467 22.1288 32.4979 18.9403 39.3767 14.7363C39.7972 14.4787 40.3267 14.4787 40.7472 14.7363C47.6267 18.9408 55.0775 22.1296 62.8684 24.2028C63.4965 24.368 63.9108 24.9662 63.8443 25.6122L62.9108 35.4216C62.4572 40.2046 60.9742 44.8323 58.563 48.9884C56.1523 53.1437 52.871 56.7286 48.9443 59.4964L40.8242 65.2299C40.363 65.5558 39.7469 65.5558 39.2858 65.2299L31.1656 59.4964C27.2402 56.7285 23.9603 53.1437 21.5504 48.9889C19.1411 44.8336 17.6589 40.2062 17.2053 35.4243L16.2718 25.6149H16.2723C16.2048 24.9658 16.6227 24.3653 17.2549 24.2029L17.2556 24.2028Z" fill="black"/>
<path d="M37.78 44.3458C38.3006 44.8663 39.1447 44.8663 39.6653 44.3458L48.9988 35.0123C49.5037 34.4891 49.4965 33.6578 48.9823 33.1431C48.468 32.6289 47.6363 32.6217 47.1131 33.1271L38.7225 41.5177L34.3319 37.1271C33.8086 36.6217 32.9773 36.6288 32.4627 37.1431C31.9484 37.6579 31.9413 38.4891 32.4466 39.0123L37.78 44.3458Z" fill="black"/>
</svg>
