<svg width="80" height="80" viewBox="0 0 80 80" fill="none" xmlns="http://www.w3.org/2000/svg">
<path d="M15.6569 49.993H17.54C18.1494 53.4801 21.1918 56.1417 24.852 56.1417C28.511 56.1417 31.5534 53.4801 32.1628 49.993H46.6428C47.2522 53.4801 50.2941 56.1417 53.9535 56.1417C57.6133 56.1417 60.6562 53.4801 61.2655 49.993H68.14C69.5248 49.993 70.6512 48.8666 70.6512 47.4818V40.5729C70.6512 37.0443 67.7798 34.1729 64.2512 34.1729H56.6151C51.9048 29.6742 49.6826 23.7715 42.7946 23.7715H27.3706C23.8679 23.7715 20.6469 25.5309 18.7532 28.4782L15.0983 34.1724L10.5367 34.1728C9.82913 34.1728 9.25684 34.7461 9.25684 35.4527V43.593C9.25684 47.122 12.1283 49.993 15.6568 49.993L15.6569 49.993ZM24.852 53.5818C22.1726 53.5818 19.9931 51.4063 19.9837 48.7295C19.9841 48.7237 19.9873 48.7188 19.9873 48.713C19.9873 48.7072 19.9841 48.7023 19.9837 48.6965C19.9931 46.0193 22.1729 43.8438 24.852 43.8438C27.5368 43.8438 29.7208 46.0282 29.7208 48.713C29.7208 51.3973 27.5369 53.5818 24.852 53.5818ZM53.9538 53.5818C51.269 53.5818 49.0849 51.3974 49.0849 48.713C49.0849 46.0282 51.2688 43.8438 53.9538 43.8438C56.6359 43.8438 58.8184 46.0237 58.8229 48.705C58.8229 48.7081 58.8216 48.7103 58.8216 48.7135C58.8216 48.7161 58.8229 48.7188 58.8229 48.7219C58.8184 51.4018 56.6358 53.5817 53.9538 53.5817V53.5818ZM53.1948 34.1726H36.9171V26.3316H42.7948C47.9623 26.3316 49.656 30.7901 53.1948 34.1726ZM20.9091 29.8623C22.3292 27.6516 24.744 26.3315 27.3716 26.3315H34.3578V34.1725H18.1407L20.9091 29.8623ZM11.8176 36.7329H64.2519C66.3692 36.7329 68.0921 38.4551 68.0921 40.5731L68.1407 47.4329H61.2662C60.6569 43.9449 57.6149 41.2833 53.9542 41.2833C50.2953 41.2833 47.2529 43.9449 46.6435 47.4329H32.1635C31.5541 43.9449 28.5122 41.2833 24.8527 41.2833C21.1925 41.2833 18.1501 43.9449 17.5407 47.4329H15.6581C13.5407 47.4329 11.8179 45.7106 11.8179 43.5926L11.8176 36.7329Z" fill="black"/>
</svg>
