<svg width="64" height="61" viewBox="0 0 64 61" fill="none" xmlns="http://www.w3.org/2000/svg">
<path d="M63.5795 57.964L60.1872 29.0421C60.1208 28.3882 59.655 27.7343 59.0564 27.5158L53.3358 25.2632C52.8036 26.353 52.2714 27.5158 51.7393 28.6062L56.8613 30.6409L59.7882 55.5661L47.6154 51.2788L46.7505 36.5998C46.152 36.8903 45.4866 37.0357 44.7549 37.0357C44.289 37.0357 43.7573 36.9633 43.3577 36.8178L44.2226 51.3514L33.5795 55.5662L33.5799 30.4956L37.8371 28.6064L36.2405 25.2634L31.9834 27.2256L20.2763 21.9209C19.8773 21.7754 19.4114 21.7029 19.0123 21.8484L4.91048 27.516C4.31192 27.734 3.91289 28.3154 3.77973 29.0423L0.387419 57.9643C0.321068 58.6182 0.520586 59.1996 0.985976 59.6355C1.45183 60.0715 2.05037 60.1445 2.58253 59.999L17.8152 54.6214L31.3849 59.999C31.7839 60.1445 32.183 60.1445 32.5157 59.999L46.0854 54.6214L61.318 59.999C61.5175 60.0715 61.6507 60.0715 61.8502 60.0715C62.2493 60.0715 62.6483 59.926 62.9146 59.6355C63.3809 59.1996 63.6468 58.6182 63.5805 57.9643L63.5795 57.964ZM16.285 51.2785L4.11221 55.5658L7.03913 30.6406L17.7486 26.4259L16.285 51.2785ZM30.2539 55.5658L19.6107 51.3511L21.0741 26.3532L30.2537 30.4955L30.2539 55.5658Z" fill="black"/>
<path d="M43.5567 32.4576C44.0889 33.6204 45.6187 33.6204 46.1509 32.4576C46.1509 32.4576 52.2042 19.5226 53.6008 16.4705C54.998 13.4185 55.0642 10.0031 53.6008 6.80566C51.2062 1.50048 45.2861 -0.60664 40.4302 2.08196C35.5744 4.77055 33.712 11.3835 36.1068 16.4703C38.501 21.5574 43.5567 32.4573 43.5567 32.4573V32.4576ZM44.887 6.73299C47.4812 6.73299 49.5431 8.98557 49.5431 11.8196C49.5431 14.6537 47.4812 16.9063 44.887 16.9063C42.2927 16.9063 40.2308 14.6537 40.2308 11.8196C40.2308 9.05863 42.2927 6.73299 44.887 6.73299Z" fill="black"/>
</svg>
