<svg width="80" height="80" viewBox="0 0 80 80" fill="none" xmlns="http://www.w3.org/2000/svg">
<path d="M17.9012 50.009H19.4454V59.5734H17.7499C17.3963 59.5734 17.1097 59.86 17.1097 60.2136V64.9587C17.1097 65.3123 17.3959 65.5989 17.7499 65.5989H27.528C27.8816 65.5989 28.1682 65.3123 28.1682 64.9587V60.2132C28.1682 59.8596 27.8821 59.573 27.528 59.573H25.8325V50.0091H54.2714V59.5735H52.7575C52.404 59.5735 52.1174 59.8601 52.1174 60.2137V64.9588C52.1174 65.3124 52.4035 65.599 52.7575 65.599H62.5357C62.8893 65.599 63.1759 65.3124 63.1759 64.9588V60.2133C63.1759 59.8598 62.8897 59.5731 62.5357 59.5731H60.658V50.0093H62.0986C64.0294 50.0093 65.5999 48.4388 65.5999 46.5088V17.9008C65.5999 15.9704 64.0294 14.4003 62.0986 14.4003L17.9008 14.3999C15.9709 14.3999 14.4004 15.9704 14.4004 17.9004V46.5084C14.3999 48.4392 15.9708 50.009 17.9012 50.009ZM26.8878 64.3187H18.3896V60.8536H26.8878V64.3187ZM24.552 59.5733H20.7253V50.0089H24.552V59.5733ZM61.896 64.3187H53.3983V60.8536H61.8965L61.896 64.3187ZM59.3787 59.5733H55.5519V50.0089H59.3787V59.5733ZM62.0993 48.729H22.0912C21.6475 46.1978 22.1314 43.6866 23.4461 41.8072C24.7528 39.9393 26.851 38.7322 29.5149 38.3161C34.0011 37.6152 37.8118 34.1768 39.4604 29.3416L39.6367 28.8179C40.1019 27.4782 40.7675 26.3135 41.5805 25.3491C41.6229 25.3768 41.6653 25.4014 41.7077 25.4295C41.8167 25.5005 41.9376 25.534 42.0582 25.534C42.2671 25.534 42.4711 25.4326 42.5939 25.2447C42.7702 24.9755 42.7082 24.63 42.4747 24.4224C43.9773 23.0755 45.8443 22.3175 47.8756 22.3175H47.897C51.4881 22.3268 54.5609 24.6849 56.01 28.4938C55.8189 28.4688 55.6202 28.4447 55.435 28.4192C55.0845 28.3715 54.7618 28.6166 54.7135 28.9666C54.6662 29.3166 54.9109 29.6393 55.2609 29.6871C55.6734 29.7434 56.0984 29.7992 56.5386 29.8532C56.5439 29.8536 56.5493 29.8536 56.5546 29.8541C56.5953 29.9527 56.6265 30.0291 56.6363 30.055C59.0766 37.529 63.1122 38.163 64.3207 38.1782V46.5076C64.3211 47.7327 63.3243 48.729 62.0993 48.729ZM64.3207 17.9005V29.2822C64.314 29.2817 64.3082 29.2773 64.3015 29.2768C63.8689 29.2491 63.4453 29.2201 63.0301 29.1898C62.6832 29.1674 62.3712 29.4295 62.3457 29.7817C62.3203 30.1344 62.585 30.4411 62.9377 30.4666C63.3565 30.4969 63.7841 30.5264 64.219 30.5545C64.2332 30.5554 64.2471 30.5558 64.2609 30.5558C64.2819 30.5558 64.3002 30.5465 64.3207 30.5442V36.9014C63.4766 36.892 60.061 36.4215 57.8533 29.6603C57.8381 29.6139 57.7078 29.2943 57.581 28.9889C57.4841 28.7545 57.3899 28.5291 57.3716 28.4804C55.8077 23.9015 52.1784 21.0496 47.8997 21.039H47.8752C45.3962 21.039 43.1359 22.0028 41.3667 23.7015C41.3475 23.6899 41.3283 23.6769 41.3091 23.6653C41.0065 23.4818 40.6136 23.5783 40.4297 23.8814C40.281 24.1265 40.3243 24.4256 40.5042 24.63C39.6368 25.6894 38.9288 26.956 38.4279 28.3979L38.2484 28.9305C36.7542 33.3131 33.3315 36.4251 29.3172 37.0528C26.3011 37.5238 23.9083 38.9149 22.3971 41.0746C20.9275 43.1746 20.3632 45.9416 20.798 48.7304H17.9016C16.677 48.7304 15.681 47.734 15.681 46.5098L15.6805 26.0813C16.6877 26.3585 18.4805 26.7514 20.5653 26.7514C24.068 26.7514 28.3756 25.6281 31.1127 20.9879C31.1997 21.0076 31.2917 21.0259 31.3778 21.046C31.4265 21.0576 31.4761 21.0629 31.5243 21.0629C31.8149 21.0629 32.0778 20.8634 32.1466 20.5687C32.222 20.2464 32.0345 19.933 31.7287 19.8272C31.7787 19.7219 31.8332 19.6259 31.8818 19.5174C32.5091 18.1156 33.1596 16.8249 33.8153 15.6795H62.0988C63.3238 15.6795 64.3207 16.6759 64.3207 17.9005ZM17.9013 15.6799H32.3516C31.7949 16.6973 31.2449 17.8058 30.7127 18.9946C30.6301 19.1795 30.5413 19.3562 30.4529 19.5335C30.436 19.5299 30.4203 19.5259 30.4034 19.5228C30.0538 19.4495 29.7185 19.6745 29.6471 20.0205C29.5998 20.2495 29.6891 20.4674 29.8498 20.6147C27.9793 23.6156 25.1587 25.2504 21.4355 25.4719C18.8618 25.625 16.5824 25.0299 15.6806 24.7527V19.0173L16.2646 19.0638C16.282 19.0651 16.2994 19.066 16.3173 19.066C16.6472 19.066 16.9271 18.8124 16.9548 18.4781C16.9829 18.1254 16.7204 17.8169 16.3686 17.7883L15.6981 17.7348C15.7838 16.5884 16.7335 15.6799 17.9013 15.6799Z" fill="black"/>
<path d="M33.3816 20.8983C33.2784 21.2362 33.4686 21.5943 33.8066 21.6974C34.2124 21.8211 34.6083 21.9505 34.9976 22.0867C35.0668 22.1112 35.1383 22.1224 35.2084 22.1224C35.4727 22.1224 35.7209 21.9568 35.8128 21.6929C35.9289 21.359 35.753 20.9943 35.4191 20.8777C35.0146 20.7367 34.6021 20.6019 34.1802 20.4733C33.84 20.3684 33.4838 20.5603 33.3816 20.8983H33.3816Z" fill="black"/>
<path d="M52.9251 28.0364C52.492 27.9627 52.0769 27.8873 51.6799 27.8114C51.333 27.744 50.9969 27.9721 50.9304 28.3194C50.8643 28.6667 51.0915 29.002 51.4384 29.0681C51.8442 29.1457 52.2679 29.2225 52.7098 29.298C52.746 29.3042 52.7822 29.3069 52.8179 29.3069C53.1241 29.3069 53.3947 29.0864 53.4478 28.7748C53.508 28.4265 53.2737 28.0957 52.925 28.0364L52.9251 28.0364Z" fill="black"/>
<path d="M37.3239 23.0091C37.7052 23.1796 38.0815 23.3582 38.4538 23.5448C38.5462 23.5912 38.644 23.6126 38.74 23.6126C38.9748 23.6126 39.2007 23.4832 39.3132 23.259C39.4712 22.943 39.3431 22.5586 39.0275 22.4001C38.6373 22.205 38.2449 22.0184 37.8476 21.8403C37.523 21.6948 37.1463 21.8412 37.0012 22.1626C36.857 22.4858 37.0016 22.8649 37.3239 23.009L37.3239 23.0091Z" fill="black"/>
<path d="M59.0956 30.1371C59.5116 30.1786 59.938 30.2188 60.375 30.2585C60.3951 30.2599 60.4143 30.2612 60.433 30.2612C60.7607 30.2612 61.0397 30.0108 61.0701 29.6786C61.1013 29.3268 60.842 29.0157 60.4902 28.984C60.0571 28.9452 59.6344 28.905 59.2232 28.8639C58.8683 28.8313 58.558 29.0853 58.5228 29.4376C58.4875 29.7884 58.7442 30.1018 59.0955 30.1371L59.0956 30.1371Z" fill="black"/>
<path d="M45.6414 26.1565C45.2441 25.9967 44.8669 25.8284 44.5209 25.656C44.2026 25.4989 43.8204 25.6279 43.6628 25.944C43.5052 26.2605 43.6347 26.6444 43.9508 26.802C44.3271 26.9891 44.7356 27.1712 45.1637 27.3435C45.2418 27.3752 45.3231 27.39 45.4025 27.39C45.6556 27.39 45.8963 27.2382 45.9963 26.9886C46.1284 26.661 45.9695 26.2886 45.6414 26.1565L45.6414 26.1565Z" fill="black"/>
<path d="M18.8085 19.2795C19.2402 19.3184 19.6634 19.3572 20.079 19.3965C20.0991 19.3983 20.1197 19.3992 20.1398 19.3992C20.4661 19.3992 20.7447 19.1505 20.7759 18.8197C20.8099 18.4679 20.5514 18.1554 20.1991 18.1224C19.7822 18.0831 19.3567 18.0438 18.9223 18.005C18.5643 17.9773 18.2598 18.234 18.2281 18.5858C18.1969 18.9371 18.4563 19.2483 18.8085 19.2795L18.8085 19.2795Z" fill="black"/>
<path d="M26.4018 20.1302C26.8295 20.1923 27.2474 20.2557 27.655 20.3222C27.6898 20.328 27.7242 20.3303 27.7581 20.3303C28.067 20.3303 28.338 20.1066 28.3893 19.7923C28.4456 19.4436 28.2085 19.1146 27.8599 19.0584C27.4447 18.9914 27.0206 18.9267 26.5854 18.8633C26.2318 18.8142 25.9104 19.0548 25.8604 19.4048C25.809 19.7548 26.0519 20.0798 26.4019 20.1303L26.4018 20.1302Z" fill="black"/>
<path d="M47.6499 28.1839C48.0419 28.2955 48.4606 28.4072 48.908 28.5179C48.9597 28.5308 49.0111 28.5366 49.0624 28.5366C49.3499 28.5366 49.6111 28.3415 49.683 28.05C49.7678 27.7067 49.5584 27.3598 49.2156 27.2755C48.783 27.1688 48.3794 27.0607 48.0013 26.9531C47.6624 26.859 47.3071 27.0536 47.2102 27.3933C47.1133 27.7331 47.3106 28.0871 47.6499 28.184L47.6499 28.1839Z" fill="black"/>
<path d="M22.6169 19.6547C23.0482 19.702 23.47 19.7502 23.8825 19.7993C23.908 19.802 23.9338 19.8038 23.9588 19.8038C24.2789 19.8038 24.5553 19.5645 24.5937 19.2395C24.6356 18.8886 24.3847 18.5703 24.0339 18.5283C23.6178 18.4788 23.1919 18.4301 22.7571 18.3824C22.3981 18.3449 22.0896 18.5975 22.0508 18.9489C22.012 19.2998 22.2655 19.6158 22.6169 19.6547L22.6169 19.6547Z" fill="black"/>
<path d="M53.2111 35.9851C52.9611 35.7351 52.5562 35.7351 52.3062 35.9851L49.6549 38.6364L47.0035 35.9851C46.7535 35.7351 46.3486 35.7351 46.0986 35.9851C45.8486 36.2351 45.8486 36.64 46.0986 36.89L48.7499 39.5413L46.0986 42.1927C45.8486 42.4427 45.8486 42.8476 46.0986 43.0976C46.2236 43.2226 46.3875 43.2851 46.5513 43.2851C46.7151 43.2851 46.879 43.2226 47.004 43.0976L49.6553 40.4463L52.3066 43.0976C52.4316 43.2226 52.5954 43.2851 52.7593 43.2851C52.9231 43.2851 53.087 43.2226 53.212 43.0976C53.462 42.8476 53.462 42.4427 53.212 42.1927L50.5597 39.5413L53.211 36.89C53.461 36.64 53.461 36.2351 53.211 35.9851H53.2111Z" fill="black"/>
</svg>
