<svg width="80" height="80" viewBox="0 0 80 80" fill="none" xmlns="http://www.w3.org/2000/svg">
<path d="M59.6644 11.8867C57.4671 11.8769 55.2796 12.7229 53.6743 14.4867L45.4958 23.0555L20.0489 15.4679C19.7172 15.3688 19.365 15.3613 19.0293 15.4461C18.694 15.5304 18.3873 15.7046 18.1426 15.9492L12.4489 21.6389C12.032 22.0554 11.8293 22.6402 11.8994 23.2255C11.9695 23.8104 12.3043 24.3313 12.8079 24.6375L32.6284 36.6992L20.6696 50.513L13.4995 53.5916C12.9147 53.8434 12.4924 54.3684 12.3723 54.9934C12.2522 55.6184 12.4495 56.2626 12.8995 56.7131L23.3857 67.1939C23.8361 67.6439 24.4803 67.8416 25.1053 67.7211C25.7308 67.601 26.2553 67.1787 26.5072 66.5939L29.5858 59.4292L43.4898 47.4018L55.4749 67.2772H55.4754C55.7803 67.783 56.3008 68.1205 56.8874 68.1919C57.4735 68.2633 58.0602 68.0611 58.4776 67.6433L64.17 61.9535H64.1705C64.4142 61.7098 64.5879 61.4049 64.6731 61.0705C64.7589 60.7366 64.7526 60.3857 64.6553 60.0549L57.1642 34.52L65.6677 26.4088C69.0797 23.1543 69.0111 17.6941 65.7177 14.4031C64.0709 12.7567 61.8629 11.8947 59.6651 11.8857L59.6644 11.8867ZM59.7033 15.7153C60.8864 15.73 62.0876 16.2037 63.0019 17.1179C64.8314 18.9465 64.8658 21.867 63.0166 23.6303L53.6667 32.5486C53.4118 32.7915 53.2283 33.1004 53.1372 33.4406C53.0457 33.7812 53.0502 34.1402 53.1493 34.4785L60.6493 60.042L57.4971 63.1933L45.6022 43.4664V43.466C45.3093 42.9816 44.8178 42.6508 44.2589 42.562C43.7 42.4731 43.1303 42.6356 42.7022 43.0062L26.7411 56.8119H26.7406C26.521 57.0016 26.3469 57.2387 26.2321 57.5056L24.0973 62.4744L17.6196 56.0007L22.3732 53.9597C22.5714 53.899 22.7584 53.8061 22.9272 53.6856C23.1218 53.5539 23.291 53.3874 23.4258 53.1945L37.0167 37.4951C37.3864 37.0678 37.5488 36.4995 37.4613 35.9415C37.3743 35.3839 37.0453 34.8924 36.5631 34.5986L16.8923 22.626L20.0485 19.4724L45.5251 27.0684V27.0689C45.8644 27.1702 46.2246 27.1756 46.567 27.085C46.909 26.9943 47.2193 26.8109 47.4639 26.555L56.4854 17.1028H56.485C56.4957 17.0912 56.5059 17.0796 56.5167 17.0676C57.3577 16.143 58.5211 15.6988 59.7042 15.714L59.7033 15.7153Z" fill="black"/>
</svg>
