<svg width="80" height="80" viewBox="0 0 80 80" fill="none" xmlns="http://www.w3.org/2000/svg">
<path d="M22.1662 18.2856C19.6711 18.2856 17.6465 20.3419 17.6465 22.8428V36.1936H16.4666C13.968 36.1936 11.8867 38.2035 11.8867 40.6906V55.2814V55.281C11.8854 55.3145 11.8854 55.3479 11.8867 55.381V60.4975C11.8863 60.6694 11.9202 60.8391 11.9867 60.9975C12.0354 61.1203 12.1028 61.235 12.1867 61.3373C12.2122 61.365 12.239 61.3917 12.2667 61.4172V61.4368C12.2988 61.4654 12.3323 61.4922 12.3667 61.5167C12.6684 61.7632 13.0658 61.8587 13.4466 61.7766H18.2863C18.9935 61.7766 19.5662 61.2038 19.5667 60.4976V56.6601H60.5255V60.4976H60.5251C60.5251 61.2038 61.0983 61.7766 61.805 61.7766H66.6849C66.8916 61.8145 67.1045 61.8011 67.305 61.7368C67.3112 61.7373 67.3179 61.7373 67.3246 61.7368C67.4009 61.7109 67.4746 61.6775 67.5447 61.6373H67.5643C67.7451 61.5288 67.896 61.3779 68.0045 61.1975C68.1376 60.9886 68.2072 60.7453 68.2045 60.498V55.3811C68.2063 55.3413 68.2063 55.3012 68.2045 55.2614V40.6911C68.2045 38.2036 66.1237 36.1942 63.6246 36.1942H62.4447V22.8434C62.4447 20.3425 60.4202 18.2862 57.9251 18.2862L22.1662 18.2856ZM22.1662 20.8442H57.925C59.0237 20.8442 59.8848 21.6928 59.8848 22.8428V36.1936H55.125C55.3005 35.6677 55.4049 35.0869 55.4049 34.495V30.1781C55.4049 29.1183 55.1174 28.1455 54.5652 27.3598C54.013 26.5741 53.1099 25.9406 52.0451 25.9406H45.9652C44.9009 25.9406 43.9978 26.5741 43.4451 27.3598C42.8929 28.1455 42.6054 29.1179 42.6054 30.1781V34.495C42.6054 35.087 42.7098 35.6683 42.8853 36.1936H37.2054C37.3808 35.6677 37.4853 35.0869 37.4853 34.495V30.1781C37.4853 29.1183 37.1978 28.1455 36.6455 27.3598C36.0933 26.5741 35.1902 25.9406 34.1254 25.9406H28.0455C26.9813 25.9406 26.0781 26.5741 25.5254 27.3598C24.9732 28.1455 24.6857 29.1179 24.6857 30.1781V34.495C24.6857 35.087 24.7902 35.6683 24.9656 36.1936H20.2058V22.8428C20.2058 21.6928 21.067 20.8442 22.1656 20.8442H22.1662ZM28.0461 28.499H34.1259C34.2126 28.499 34.3474 28.5361 34.546 28.8187C34.7447 29.1013 34.9259 29.6004 34.9259 30.1776V34.4945C34.9259 35.0722 34.7447 35.5709 34.546 35.8535C34.3474 36.1361 34.213 36.1732 34.1259 36.1732H28.0461C27.9595 36.1732 27.8246 36.1361 27.626 35.8535C27.4273 35.5705 27.2461 35.0718 27.2461 34.4945V30.1776C27.2461 29.6 27.4273 29.1013 27.626 28.8187C27.8246 28.5356 27.959 28.499 28.0461 28.499ZM45.9649 28.499H52.0448C52.1314 28.499 52.2662 28.5361 52.4649 28.8187C52.6636 29.1013 52.8448 29.6004 52.8448 30.1776V34.4945C52.8448 35.0722 52.6636 35.5709 52.4649 35.8535C52.2662 36.1361 52.1319 36.1732 52.0448 36.1732H45.9649C45.8783 36.1732 45.7439 36.1361 45.5448 35.8535C45.3462 35.5705 45.1649 35.0718 45.1649 34.4945V30.1776C45.1649 29.6 45.3462 29.1013 45.5448 28.8187C45.7435 28.5356 45.8779 28.499 45.9649 28.499ZM16.4666 38.7522H18.6867H18.6863C18.8582 38.7879 19.035 38.7879 19.2064 38.7522H60.9252C61.0967 38.7879 61.2739 38.7879 61.4453 38.7522H63.6252C64.781 38.7522 65.6449 39.6084 65.6449 40.691V45.7678L14.4472 45.9477V40.691C14.4472 39.6084 15.311 38.7522 16.4673 38.7522L16.4666 38.7522ZM65.6449 48.3259V54.1022H14.4472V48.5058L65.6449 48.3259ZM14.4472 56.6603H17.007V59.2188H14.4472V56.6603ZM63.0849 56.6603H65.6447V59.2188H63.0849V56.6603Z" fill="black"/>
</svg>
