<svg width="80" height="80" viewBox="0 0 80 80" fill="none" xmlns="http://www.w3.org/2000/svg">
<path d="M40.0558 32.5897C39.6076 32.5897 39.2236 32.2057 39.2236 31.7575V30.9254C39.2236 30.4772 39.6076 30.0933 40.0558 30.0933C40.504 30.0933 40.8879 30.4772 40.8879 30.9254V31.7575C40.8879 32.27 40.504 32.5897 40.0558 32.5897Z" fill="black"/>
<path d="M40.0558 44.6216C39.6076 44.6216 39.2236 44.2377 39.2236 43.7895V42.0614C39.2236 41.6132 39.6076 41.2292 40.0558 41.2292C40.504 41.2292 40.8879 41.6132 40.8879 42.0614V43.7895C40.8879 44.3016 40.504 44.6216 40.0558 44.6216ZM40.0558 38.6055C39.6076 38.6055 39.2236 38.2216 39.2236 37.7734V36.0453C39.2236 35.5971 39.6076 35.2131 40.0558 35.2131C40.504 35.2131 40.8879 35.5971 40.8879 36.0453V37.7734C40.8879 38.2854 40.504 38.6055 40.0558 38.6055Z" fill="black"/>
<path d="M40.0558 49.7417C39.6076 49.7417 39.2236 49.3578 39.2236 48.9096L39.2241 48.1417C39.2241 47.6935 39.608 47.3096 40.0562 47.3096C40.5044 47.3096 40.8884 47.6935 40.8884 48.1417V48.9738C40.8879 49.3578 40.504 49.7417 40.0558 49.7417H40.0558Z" fill="black"/>
<path d="M58.1677 54.4776H44.0237C43.1277 54.4776 42.4237 53.7736 42.4237 52.8776C42.4237 51.5977 41.3996 50.5097 40.0558 50.5097C38.7759 50.5097 37.6879 51.5338 37.6879 52.8776C37.6879 53.7736 36.9839 54.4776 36.0879 54.4776H21.9428C21.0468 54.4776 20.3428 53.7736 20.3428 52.8776V27.0856C20.3428 26.1896 21.0468 25.4856 21.9428 25.4856H36.0868C36.9827 25.4856 37.6868 26.1896 37.6868 27.0856C37.6868 28.3655 38.7109 29.4535 40.0547 29.4535C41.3345 29.4535 42.4225 28.4294 42.4225 27.0856C42.4225 26.1896 43.1266 25.4856 44.0225 25.4856H58.1665C59.0625 25.4856 59.7665 26.1896 59.7665 27.0856V52.8136C59.7665 53.7096 59.0625 54.4775 58.1665 54.4775L58.1677 54.4776ZM45.3677 51.2137H56.5038V28.6857H45.3677C44.6637 30.9897 42.5516 32.6536 40.0557 32.6536C37.5598 32.6536 35.4477 30.9897 34.7437 28.6857H23.5437V51.2137H34.7437C35.4477 48.9097 37.5598 47.2458 40.0557 47.2458C42.5516 47.2458 44.728 48.9735 45.3677 51.2137Z" fill="black"/>
</svg>
