<svg width="80" height="80" viewBox="0 0 80 80" fill="none" xmlns="http://www.w3.org/2000/svg">
<path d="M68.361 51.7359H60.9762C60.2963 51.7359 59.7454 51.185 59.7454 50.505C59.7454 48.4689 58.0892 46.8126 56.0529 46.8126C54.0167 46.8126 52.3605 48.4688 52.3605 50.505C52.3605 51.1849 51.8096 51.7359 51.1296 51.7359H28.9765C28.2966 51.7359 27.7456 51.185 27.7456 50.505C27.7456 48.4689 26.0894 46.8126 24.0532 46.8126C22.0169 46.8126 20.3607 48.4688 20.3607 50.505C20.3607 51.1849 19.8098 51.7359 19.1298 51.7359H11.7455C11.0656 51.7359 10.5146 51.185 10.5146 50.505V24.6593C10.5146 23.9794 11.0655 23.4285 11.7455 23.4285H48.3855C48.7279 23.4285 49.0543 23.5709 49.2877 23.8222L58.0186 33.2271C63.4476 33.495 67.8137 37.7155 68.1441 42.9824L69.0829 43.6624C69.4021 43.8932 69.5914 44.2641 69.5914 44.6588V50.5047C69.5914 51.1846 69.0405 51.7359 68.3605 51.7359L68.361 51.7359ZM62.0833 49.2743H67.1302V45.2868L66.2119 44.622C65.8922 44.3908 65.703 44.0198 65.703 43.6251C65.703 39.2413 62.015 35.6743 57.4811 35.6743C57.1387 35.6743 56.8003 35.5319 56.5668 35.2805L47.849 25.8894H12.977V49.2746H18.0239C18.5953 46.4692 21.0824 44.3514 24.0538 44.3514C27.0257 44.3514 29.5123 46.4692 30.0838 49.2746H50.0232C50.5946 46.4692 53.0817 44.3514 56.0531 44.3514C59.0255 44.3514 61.5121 46.4692 62.0835 49.2746L62.0833 49.2743Z" fill="black"/>
<path d="M25.2904 38.1976H16.6752C15.9953 38.1976 15.4443 37.6467 15.4443 36.9667V29.5819C15.4443 28.902 15.9952 28.3511 16.6752 28.3511H25.2904C25.9703 28.3511 26.5212 28.902 26.5212 29.5819V36.9667C26.5212 37.6462 25.9704 38.1976 25.2904 38.1976ZM17.9056 35.736H24.0596V30.8128H17.9056V35.736Z" fill="black"/>
<path d="M38.8285 38.1976H30.2133C29.5334 38.1976 28.9824 37.6467 28.9824 36.9667V29.5819C28.9824 28.902 29.5333 28.3511 30.2133 28.3511H38.8285C39.5084 28.3511 40.0593 28.902 40.0593 29.5819V36.9667C40.0593 37.6462 39.5084 38.1976 38.8285 38.1976ZM31.4441 35.736H37.5982V30.8128H31.4441V35.736Z" fill="black"/>
<path d="M52.3666 38.1976H43.7514C43.0715 38.1976 42.5205 37.6467 42.5205 36.9667V29.5819C42.5205 28.902 43.0714 28.3511 43.7514 28.3511H46.0848C46.446 28.3511 46.7884 28.5096 47.0223 28.7846L53.3041 36.1694C53.6148 36.5345 53.6849 37.0479 53.484 37.4832C53.2826 37.9185 52.8465 38.1975 52.3666 38.1975V38.1976ZM44.9822 35.736H49.704L45.5161 30.8128H44.9826L44.9822 35.736Z" fill="black"/>
<path d="M24.0535 56.6582C20.6606 56.6582 17.8994 53.8975 17.8994 50.5042C17.8994 47.1112 20.6601 44.3501 24.0535 44.3501C27.4464 44.3501 30.2075 47.1108 30.2075 50.5042C30.2075 53.8975 27.4464 56.6582 24.0535 56.6582ZM24.0535 46.8123C22.0174 46.8123 20.361 48.4685 20.361 50.5047C20.361 52.5408 22.0172 54.1972 24.0535 54.1972C26.0897 54.1972 27.7459 52.541 27.7459 50.5047C27.7459 48.4686 26.0897 46.8123 24.0535 46.8123Z" fill="black"/>
<path d="M56.0535 56.6582C52.6606 56.6582 49.8994 53.8975 49.8994 50.5042C49.8994 47.1112 52.6601 44.3501 56.0535 44.3501C59.4464 44.3501 62.2075 47.1108 62.2075 50.5042C62.2075 53.8975 59.4464 56.6582 56.0535 56.6582ZM56.0535 46.8123C54.0174 46.8123 52.361 48.4685 52.361 50.5047C52.361 52.5408 54.0172 54.1972 56.0535 54.1972C58.0897 54.1972 59.7459 52.541 59.7459 50.5047C59.7459 48.4686 58.0897 46.8123 56.0535 46.8123Z" fill="black"/>
<path d="M66.4289 41.889H62.2133C61.5334 41.889 60.9824 41.3381 60.9824 40.6581C60.9824 39.9782 61.5333 39.4272 62.2133 39.4272H66.4289C67.1088 39.4272 67.6598 39.9781 67.6598 40.6581C67.6598 41.338 67.1089 41.889 66.4289 41.889Z" fill="black"/>
</svg>
