<svg width="80" height="80" viewBox="0 0 80 80" fill="none" xmlns="http://www.w3.org/2000/svg">
<path d="M21.25 75H58.75C60.4075 75 61.9974 74.3414 63.1695 73.1695C64.3414 71.9974 65 70.4075 65 68.75V11.25C65 9.59247 64.3414 8.0026 63.1695 6.83047C61.9974 5.6586 60.4075 5 58.75 5H21.25C19.5925 5 18.0026 5.65859 16.8305 6.83047C15.6586 8.0026 15 9.59247 15 11.25V68.75C15 70.4075 15.6586 71.9974 16.8305 73.1695C18.0026 74.3414 19.5925 75 21.25 75ZM17.5 11.25C17.5 10.2555 17.8951 9.30153 18.5985 8.59847C19.3016 7.89507 20.2555 7.5 21.25 7.5H58.75C59.7445 7.5 60.6985 7.89505 61.4015 8.59847C62.1049 9.3016 62.5 10.2555 62.5 11.25V68.75C62.5 69.7445 62.1049 70.6985 61.4015 71.4015C60.6984 72.1049 59.7445 72.5 58.75 72.5H21.25C20.2555 72.5 19.3015 72.1049 18.5985 71.4015C17.8951 70.6984 17.5 69.7445 17.5 68.75V11.25Z" fill="black"/>
<path d="M39.9996 49.9999C43.2077 49.9999 46.3441 49.0502 49.0136 47.2707C51.6831 45.491 53.7659 42.9613 54.9998 40C55.8251 38.0196 56.2498 35.8954 56.2498 33.75C56.2498 31.6047 55.8251 29.4805 54.9998 27.5C53.4842 23.8628 50.6987 20.9 47.1618 19.1634C43.6248 17.4266 39.5771 17.0344 35.7725 18.0597C31.9675 19.0847 28.6651 21.4576 26.4791 24.7364C24.2935 28.015 23.3734 31.9764 23.8906 35.8824C24.4075 39.7886 26.3263 43.3744 29.2898 45.971C32.2533 48.5682 36.0598 50 39.9998 50L39.9996 49.9999ZM53.7496 33.7499C53.7444 35.0186 53.5634 36.2806 53.2121 37.4999H46.7871C46.4358 36.2806 46.2548 35.0186 46.2496 33.7499C46.2519 32.4817 46.4285 31.22 46.7746 29.9999H53.2121C53.5634 31.2192 53.7444 32.4812 53.7496 33.7499H53.7496ZM44.1996 37.4999H41.2496V29.9999H44.2121C43.6017 32.4626 43.6017 35.0372 44.2121 37.4999H44.1996ZM41.2496 39.9999H44.9996C45.7387 41.7793 46.7884 43.4132 48.0996 44.8249C46.0973 46.3041 43.7285 47.2074 41.2496 47.4374V39.9999ZM41.2496 27.4999V20.0626C43.7384 20.2917 46.1165 21.1996 48.1243 22.6876C46.8053 24.0936 45.7472 25.7232 44.9993 27.5001L41.2496 27.4999ZM38.7496 27.4999H34.9996C34.2553 25.7241 33.2014 24.0944 31.8871 22.6874C33.8951 21.1994 36.2733 20.2915 38.7617 20.0624L38.7496 27.4999ZM38.7496 29.9999V37.4999H35.7996C36.4064 35.0366 36.4064 32.4632 35.7996 29.9999H38.7496ZM38.7496 39.9999V47.4372C36.2665 47.2096 33.8931 46.306 31.8869 44.8247C33.2025 43.4138 34.2565 41.7799 34.9995 39.9997L38.7496 39.9999ZM29.9996 43.1624C29.1082 42.2192 28.3551 41.1544 27.7621 39.9999H32.2247C31.6356 41.1536 30.8867 42.2184 29.9997 43.1624H29.9996ZM49.9996 43.1624C49.1126 42.2184 48.3637 41.1536 47.7746 39.9999H52.2246C51.6355 41.1536 50.8866 42.2184 49.9996 43.1624ZM52.2371 27.4998H47.7621C48.355 26.3454 49.1081 25.2805 49.9995 24.3372C50.8909 25.2804 51.6441 26.3453 52.237 27.4998H52.2371ZM29.9997 24.3372C30.8867 25.2812 31.6357 26.3461 32.2247 27.4998H27.7622C28.3552 26.3454 29.1083 25.2805 29.9997 24.3372H29.9997ZM26.7872 29.9998H33.2122C33.9338 32.4477 33.9338 35.0518 33.2122 37.4998H26.7872C26.0768 35.0503 26.0768 32.4492 26.7872 29.9998Z" fill="black"/>
<path d="M26.25 63.75H55V66.25H26.25V63.75Z" fill="black"/>
</svg>
