<svg width="123" height="84" viewBox="0 0 123 84" fill="none" xmlns="http://www.w3.org/2000/svg">
<g clip-path="url(#clip0_270_1067)">
<path d="M69.3092 1.80218L0.927734 26.6889L21.2448 82.5125L89.6047 57.6258C93.2888 56.3074 96.676 54.274 99.5717 51.6425C102.467 49.011 104.815 45.8333 106.479 42.2918C108.142 38.7504 109.09 34.9151 109.267 31.0063C109.444 27.0974 108.847 23.1922 107.51 19.5149C106.173 15.8375 104.123 12.4606 101.476 9.57819C98.8304 6.69575 95.6408 4.36458 92.091 2.71864C88.5413 1.07269 84.7012 0.144414 80.7915 -0.0128623C76.8819 -0.170139 72.9797 0.446688 69.3092 1.80218Z" fill="#DF7437"/>
<path d="M58.2175 12.2861C59.4735 12.2861 60.4916 11.2679 60.4916 10.0119C60.4916 8.75596 59.4735 7.73779 58.2175 7.73779C56.9615 7.73779 55.9434 8.75596 55.9434 10.0119C55.9434 11.2679 56.9615 12.2861 58.2175 12.2861Z" fill="white"/>
<path d="M100.839 23.8284C101.802 23.8284 102.584 23.0471 102.584 22.0834C102.584 21.1197 101.802 20.3385 100.839 20.3385C99.875 20.3385 99.0938 21.1197 99.0938 22.0834C99.0938 23.0471 99.875 23.8284 100.839 23.8284Z" fill="white"/>
<path d="M99.5031 18.4149C98.7776 18.6788 98.1466 19.152 97.6899 19.7745C97.2332 20.397 96.9714 21.141 96.9374 21.9123C96.9034 22.6836 97.0989 23.4477 97.499 24.108C97.8992 24.7683 98.4861 25.2951 99.1856 25.6218C99.8852 25.9486 100.666 26.0607 101.429 25.9439C102.192 25.827 102.904 25.4866 103.473 24.9655C104.043 24.4445 104.446 23.7662 104.63 23.0165C104.814 22.2668 104.772 21.4792 104.509 20.7534C104.154 19.7802 103.428 18.9875 102.49 18.5492C101.551 18.1108 100.477 18.0625 99.5031 18.4149ZM101.699 24.4435C101.232 24.6142 100.726 24.6428 100.243 24.5257C99.7608 24.4086 99.3239 24.151 98.9878 23.7855C98.6516 23.42 98.4315 22.963 98.3551 22.4723C98.2788 21.9817 98.3497 21.4794 98.5589 21.0291C98.768 20.5787 99.1061 20.2005 99.5302 19.9423C99.9543 19.6841 100.446 19.5575 100.942 19.5785C101.438 19.5995 101.916 19.7672 102.317 20.0604C102.718 20.3535 103.023 20.7589 103.193 21.2253C103.42 21.8504 103.389 22.5396 103.109 23.1425C102.829 23.7454 102.322 24.2131 101.699 24.4435Z" fill="white"/>
<path d="M86.1726 29.3207C86.1726 29.3207 85.8651 32.1812 86.573 32.9965C87.281 33.8117 91.0784 32.5459 91.1356 32.6174C91.1281 33.3683 90.97 34.11 90.6708 34.7986C90.4201 35.1779 90.0847 35.4937 89.691 35.7211L87.1165 35.9571L86.9735 36.7867C86.9735 36.7867 86.38 37.13 86.2584 37.3803C86.1797 38.1812 89.1618 40.3195 89.026 40.155C88.5039 39.5114 88.6898 39.0894 88.7542 39.0179C88.8186 38.9464 89.8913 38.9178 89.8913 38.9178C89.8922 38.535 89.8659 38.1526 89.8126 37.7736C90.2078 37.8539 90.6126 37.8756 91.014 37.8379C91.3716 37.745 92.8019 36.0072 93.0951 35.7998C93.3883 35.5924 94.6326 35.8928 94.6755 35.8499C94.5856 35.4628 94.3825 35.1113 94.0921 34.8401C93.8018 34.5688 93.4373 34.3901 93.045 34.3266C93.7602 32.6174 96.0629 34.205 95.9056 34.0835C94.7256 32.1812 93.467 32.1526 93.467 32.1526C93.467 32.1526 93.6458 31.7879 94.1249 31.7164C95.6553 31.4875 96.0272 32.3814 95.9842 32.3099C95.4908 31.509 94.7828 30.2146 93.7602 30.2432C93.5202 30.2245 93.2792 30.2627 93.0568 30.3547C92.8344 30.4466 92.6368 30.5897 92.4801 30.7724C92.2658 30.5759 92.0049 30.4372 91.7221 30.3697C91.4392 30.3021 91.1439 30.3078 90.8639 30.3862C90.11 30.5508 89.3745 30.7904 88.6684 31.1014C88.6684 31.1014 90.163 30.4363 90.4133 29.5137C90.5781 28.912 90.5607 28.2749 90.3633 27.683C90.4348 27.683 91.9795 29.2491 93.2238 27.683C94.4682 26.1168 92.4014 25.1943 92.194 24.944C91.9866 24.6937 92.5802 24.3433 92.616 23.8356C92.5485 23.2891 92.3787 22.7602 92.1154 22.2766C92.1356 22.6254 92.1188 22.9754 92.0653 23.3207C91.9494 23.4648 91.7995 23.5778 91.6291 23.6496C91.5361 23.6496 91.2572 21.8046 91.1857 21.826C91.1142 21.8475 91.0498 22.5412 90.8996 22.7342C90.7866 22.9246 90.6414 23.094 90.4705 23.2348L89.9985 21.6544C89.9985 21.6544 89.8269 22.6985 89.2834 22.6556C88.9974 22.6556 86.5945 21.6758 86.523 20.5102C86.5722 20.1167 86.7494 19.7503 87.0272 19.4673C87.305 19.1844 87.668 19.0005 88.0605 18.944C90.6851 19.2301 90.2631 21.1752 90.2631 21.1752C90.5622 20.9143 90.7999 20.5905 90.9594 20.2271C91.1189 19.8637 91.1961 19.4695 91.1857 19.0727C91.2357 17.0203 89.1547 17.5638 89.1547 17.5638C89.1547 17.5638 90.5206 15.7402 90.3847 14.8248C90.2488 13.9095 88.8043 13.7235 88.5468 12.8367C88.2894 11.95 89.8269 10.9559 89.7339 10.7414C86.9449 11.3064 86.8734 12.8868 86.8734 12.8868C86.5444 13.8594 88.5039 14.8534 88.4324 15.8904C88.3861 16.1893 88.2799 16.4758 88.1201 16.7326C87.9604 16.9894 87.7504 17.2113 87.5027 17.385C87.7555 17.0508 87.8737 16.634 87.8339 16.2169C87.7942 15.7998 87.5995 15.4128 87.2882 15.1323C86.144 14.1454 84.6064 15.0394 84.6064 15.0394C85.1349 15.0076 85.6549 15.1834 86.0556 15.5294C86.4564 15.8753 86.7062 16.3641 86.7518 16.8916C86.7518 17.5567 85.5504 19.2873 85.5361 20.4673C85.5041 20.7539 85.5342 21.044 85.6242 21.3179C85.7143 21.5918 85.8623 21.8432 86.0581 22.0549L92.0009 25.6306C92.0009 25.6306 92.9306 26.217 92.3657 26.8463C91.8007 27.4756 90.9354 26.7533 90.9354 26.7533L85.5933 22.6842C85.4217 22.5483 83.9699 21.1323 84.0558 20.5388C84.2274 19.6234 84.6136 19.1085 84.5993 18.7366C84.5277 17.1919 82.6112 16.5912 82.6541 16.4196C83.076 16.012 83.6267 16.0263 84.4634 15.9762C84.5707 15.776 82.4753 14.8534 82.0248 14.0382C81.62 13.2304 81.1233 12.4721 80.5444 11.7783C80.29 11.6751 80.0181 11.6217 79.7435 11.621C79.7764 11.4828 79.7782 11.3389 79.7487 11.1999C79.7192 11.0609 79.6592 10.9302 79.5729 10.8172C79.4867 10.7043 79.3764 10.6119 79.25 10.5469C79.1237 10.4818 78.9844 10.4457 78.8424 10.441C77.9342 10.441 78.0772 10.9345 77.927 11.1562C77.6338 11.3493 75.2238 12.1073 75.2238 12.1073L73.1571 14.3028L74.2298 17.335C74.4843 17.3897 74.7476 17.3897 75.0021 17.335C75.2453 17.0418 75.4598 16.1764 75.7173 16.1192C75.9747 16.062 76.0748 16.1836 76.0748 16.1836C76.1484 16.3491 76.1864 16.5281 76.1864 16.7092C76.1864 16.8903 76.1484 17.0694 76.0748 17.2348C75.8031 17.6425 74.1368 17.9929 73.6577 18.8296C73.2786 19.4875 73.7935 20.8463 73.7935 20.8463L72.8567 20.4315C72.8567 20.4315 69.3811 21.6115 69.1595 21.8046C68.9378 21.9977 68.9664 21.9834 69.0307 22.3195C69.0951 22.6556 69.2167 22.6413 69.2095 23.0847C69.2147 23.3269 69.1809 23.5683 69.1094 23.7998L71.9699 25.0799V24.3075L72.6851 23.9571V22.7414C72.7203 22.672 72.7707 22.6115 72.8327 22.5645C72.8946 22.5174 72.9664 22.485 73.0426 22.4696C73.6505 22.4696 74.2584 23.3135 74.2584 23.3135L74.337 23.9714L74.2369 25.1443C74.4379 25.1354 74.634 25.0791 74.809 24.9798C75.0846 24.7739 75.2956 24.4935 75.4169 24.1717C75.4741 23.9857 75.5814 23.4565 75.9103 23.4565C76.2393 23.4565 76.4682 23.9214 76.2679 24.3075C76.0677 24.6937 75.6314 24.7581 75.3668 25.0227C74.6887 26.0899 74.1367 27.2322 73.722 28.4267C73.9327 28.9939 74.2997 29.4897 74.7804 29.857C75.1022 30.0143 77.3049 28.9273 77.3049 28.9273C77.3049 28.9273 76.9687 28.6842 76.933 28.5483C76.8972 28.4124 77.2548 27.8332 77.2548 27.8332C77.2548 27.8332 76.4395 26.9822 76.4825 26.6603C76.5254 26.3385 76.8758 26.1025 77.5409 26.0882C78.2059 26.0739 78.2202 26.217 78.2202 26.217C78.2202 26.217 79.3144 27.1466 79.3645 27.5042C79.8364 27.6687 79.5361 25.4732 79.6005 25.4518C79.9627 25.4615 80.3119 25.5896 80.5945 25.8165C80.906 26.1745 81.1289 26.6007 81.2453 27.0608L81.7816 26.1669L83.4836 26.6103C83.4836 26.6103 84.6493 27.0322 84.9139 27.0894C81.4384 25.9738 80.0295 29.3135 79.908 29.5567C79.6291 30.3362 82.2679 31.7021 83.2119 32.6603C83.2119 32.7819 81.2953 35.0847 80.1225 34.9488C80.1225 34.9488 78.1201 34.298 77.9771 34.3195C77.52 34.7603 77.1035 35.2414 76.7328 35.7569L77.7268 38.6174C77.7268 38.6174 78.163 37.6806 78.4419 37.6878C78.7494 37.8165 79.0569 38.0668 79.3001 37.9524C79.672 37.8522 79.6934 37.1514 79.7935 37.0513C79.8937 36.9512 80.7304 37.3302 81.0021 37.1371C81.2739 36.944 81.1595 36.2503 81.6386 36.2718C82.8257 36.329 83.4336 37.8379 83.4336 37.8379C83.6716 37.6767 83.8618 37.4544 83.9842 37.1943C84.094 36.7192 84.0642 36.2226 83.8984 35.764C84.2181 35.7554 84.5327 35.8453 84.7995 36.0215C85.1156 36.2966 85.3464 36.6564 85.4646 37.0584C85.6913 36.7885 85.8594 36.4743 85.958 36.1359C85.9394 35.5612 85.7824 34.9994 85.5003 34.4983C86.113 34.7887 86.6366 35.2382 87.0164 35.7998C87.2381 35.714 87.3811 33.7474 87.2167 33.5185C86.6231 32.8034 86.1511 32.8391 85.7864 32.5459C85.4217 32.2527 85.5575 32.0668 85.0713 31.4089C84.585 30.7509 82.5897 29.9786 82.6398 29.9786C82.6898 29.9786 85.9223 31.9738 87.517 26.4673C87.517 25.7521 87.0236 25.6449 87.0236 25.6449" stroke="white" stroke-width="0.4" stroke-miterlimit="10"/>
<path d="M76.1094 16.1836C76.2971 16.2781 76.5016 16.3346 76.7112 16.3498C76.9208 16.3649 77.1314 16.3385 77.3308 16.2721C77.5301 16.2056 77.7144 16.1004 77.873 15.9625C78.0316 15.8246 78.1613 15.6567 78.2548 15.4685C78.9699 14.0382 78.0832 13.6377 78.0832 13.6377C78.0832 13.6377 78.7983 13.5448 78.6553 16.8844C78.9342 20.4601 82.7745 18.9083 82.7673 18.7724C82.3811 18.1359 81.337 18.3219 80.6648 17.7212C79.9926 17.1204 80.5289 14.4673 79.9497 13.5161C79.7458 13.2345 79.4766 13.0067 79.1651 12.8522C78.8537 12.6977 78.5094 12.6213 78.1618 12.6294L79.7351 11.6639" stroke="white" stroke-width="0.4" stroke-miterlimit="10"/>
<path d="M82.6178 16.4482C82.6178 16.4982 80.6869 15.3111 80.2793 15.447" stroke="white" stroke-width="0.4" stroke-miterlimit="10"/>
<path d="M73.8711 20.9107C74.9438 22.3409 77.8759 23.7712 77.8759 23.7712C77.8759 23.7712 74.3002 21.1967 79.0916 18.3505" stroke="white" stroke-width="0.4" stroke-miterlimit="10"/>
<path d="M77.5327 16.2122C77.5327 16.2122 78.0547 16.7485 77.9403 17.0346C73.9784 19.1299 75.1656 22.205 74.8938 21.8903C74.676 21.6894 74.5022 21.4456 74.3834 21.1742C74.2645 20.9028 74.2031 20.6098 74.2031 20.3135C74.2031 20.0172 74.2645 19.7241 74.3834 19.4527C74.5022 19.1813 74.676 18.9375 74.8938 18.7366" stroke="white" stroke-width="0.4" stroke-miterlimit="10"/>
<path d="M76.4251 19.6949C75.4883 21.3183 76.6826 22.0978 76.6826 22.0978" stroke="white" stroke-width="0.5" stroke-miterlimit="10"/>
<path d="M75.623 24.9225C75.623 24.9225 78.834 23.5495 78.9913 22.7127C79.1487 21.876 78.5194 20.9821 76.7744 20.646" stroke="white" stroke-width="0.4" stroke-miterlimit="10"/>
<path d="M78.248 21.2038C80.3935 20.7533 80.6581 22.5483 80.6581 22.5483C80.6581 22.5483 81.8094 20.6818 80.8082 20.081C80.7217 20.0288 80.6276 19.9903 80.5293 19.9666C79.7157 19.7594 78.9504 19.395 78.2767 18.8939" stroke="white" stroke-width="0.4" stroke-miterlimit="10"/>
<path d="M80.8379 20.1026C81.9678 20.2242 82.2181 22.1836 82.2181 22.1836C82.6862 21.7596 82.9974 21.1899 83.1013 20.5668C83.2051 19.9438 83.0955 19.3039 82.7902 18.751" stroke="white" stroke-width="0.4" stroke-miterlimit="10"/>
<path d="M81.8177 20.9034C81.8177 20.9034 81.5102 22.4052 81.7748 22.5197C83.9202 23.5852 82.6759 26.0024 82.633 25.7163C82.5411 25.4229 82.3771 25.1572 82.156 24.9435C81.9348 24.7299 81.6636 24.5751 81.3672 24.4934C81.6721 25.0515 81.8203 25.6816 81.7963 26.317" stroke="white" stroke-width="0.5" stroke-miterlimit="10"/>
<path d="M75.3809 13.0584C75.3809 13.0584 76.1532 12.5006 76.3177 12.565C76.239 13.6234 75.6526 13.8093 75.6526 13.8093L75.3809 13.0584Z" stroke="white" stroke-width="0.5" stroke-miterlimit="10"/>
<path d="M74.845 15.3183C74.8844 15.4301 74.8899 15.551 74.8607 15.6659C74.8315 15.7808 74.7689 15.8845 74.6809 15.9639C74.5929 16.0433 74.4834 16.0949 74.3661 16.1122C74.2489 16.1295 74.1291 16.1118 74.0219 16.0611C73.9148 16.0105 73.8249 15.9293 73.7638 15.8278C73.7027 15.7262 73.6729 15.6089 73.6784 15.4905C73.6838 15.3721 73.7241 15.2579 73.7943 15.1624C73.8644 15.0668 73.9613 14.9942 74.0727 14.9536C74.1473 14.9264 74.2266 14.9142 74.3059 14.9179C74.3853 14.9215 74.4631 14.9408 74.535 14.9748C74.6068 15.0087 74.6712 15.0565 74.7244 15.1155C74.7776 15.1744 74.8186 15.2434 74.845 15.3183V15.3183Z" stroke="white" stroke-width="0.5" stroke-miterlimit="10"/>
<path d="M79.6277 16.627C79.6031 17.0989 79.7493 17.5639 80.0396 17.9368C80.3298 18.3098 80.7446 18.5658 81.2081 18.6579" stroke="white" stroke-width="0.25" stroke-miterlimit="10"/>
<path d="M81.0938 14.6246C81.2518 14.9076 81.4691 15.1531 81.7308 15.3444C81.9924 15.5357 82.2923 15.6683 82.6098 15.7331" stroke="white" stroke-width="0.25" stroke-miterlimit="10"/>
<path d="M74.4434 14.2528C74.6722 14.2339 74.9005 14.2948 75.0896 14.4251C75.2786 14.5555 75.4167 14.7473 75.4803 14.9679" stroke="white" stroke-width="0.25" stroke-miterlimit="10"/>
<path d="M88.4238 14.0596C88.689 14.1983 88.916 14.4003 89.0847 14.6475C89.2533 14.8947 89.3586 15.1797 89.3911 15.4772C89.4236 15.7747 89.3824 16.0757 89.2711 16.3535C89.1597 16.6314 88.9817 16.8775 88.7528 17.0703" stroke="white" stroke-width="0.25" stroke-miterlimit="10"/>
<path d="M89.6044 27.5114C89.8167 28.1928 89.761 28.9296 89.4487 29.5715C89.1364 30.2133 88.591 30.7119 87.9238 30.9655" stroke="white" stroke-width="0.25" stroke-miterlimit="10"/>
<path d="M90.6133 31.5876C93.6812 30.7938 92.0436 34.9202 92.0436 34.9202" stroke="white" stroke-width="0.25" stroke-miterlimit="10"/>
<path d="M82.3457 34.8844C82.3457 34.8844 86.3648 32.8749 83.7331 31.795" stroke="white" stroke-width="0.25" stroke-miterlimit="10"/>
<path d="M70.1818 23.5995C70.1818 23.764 70.0674 23.8999 69.9601 23.8856C69.8528 23.8713 69.7885 23.7354 69.8028 23.5638C69.8171 23.3921 69.91 23.2634 70.0173 23.2705C70.1246 23.2777 70.1961 23.4207 70.1818 23.5995Z" fill="white"/>
<path d="M70.7903 23.7998C70.7903 23.9715 70.6759 24.1002 70.5686 24.093C70.4614 24.0859 70.3899 23.9357 70.4042 23.7641C70.4185 23.5924 70.5186 23.4637 70.6259 23.4709C70.7331 23.478 70.8046 23.5996 70.7903 23.7998Z" fill="white"/>
<path d="M71.4043 24.043C71.4043 24.2146 71.297 24.3433 71.1897 24.3362C71.0825 24.329 71.011 24.1789 71.0253 24.0072C71.0396 23.8356 71.1397 23.7069 71.247 23.714C71.3542 23.7212 71.4257 23.8714 71.4043 24.043Z" fill="white"/>
<path d="M75.195 29.1419C75.3166 29.2563 75.3595 29.4137 75.288 29.4923C75.2165 29.571 75.052 29.5352 74.9304 29.4208C74.8088 29.3064 74.7659 29.1419 74.8374 29.0704C74.9089 28.9989 75.0663 29.0203 75.195 29.1419Z" fill="white"/>
<path d="M75.7458 28.8772C75.8674 28.9988 75.9103 29.1561 75.8388 29.2276C75.7672 29.2992 75.6028 29.2706 75.4812 29.1561C75.3596 29.0417 75.3167 28.8772 75.3882 28.8057C75.4597 28.7342 75.6242 28.7628 75.7458 28.8772Z" fill="white"/>
<path d="M76.3825 28.6484C76.5041 28.7628 76.547 28.9202 76.4755 28.9988C76.404 29.0775 76.2395 29.0418 76.1179 28.9273C75.9963 28.8129 75.9534 28.6484 76.0249 28.5698C76.0965 28.4911 76.2538 28.5269 76.3825 28.6484Z" fill="white"/>
<path d="M77.7695 35.8141C77.6408 35.9356 77.4834 35.9643 77.4119 35.8856C77.3404 35.8069 77.4119 35.6496 77.5049 35.5352C77.5979 35.4207 77.7909 35.385 77.8625 35.4637C77.934 35.5423 77.8911 35.6997 77.7695 35.8141Z" fill="white"/>
<path d="M77.998 36.3862C77.8693 36.5006 77.7119 36.5364 77.6404 36.4577C77.5689 36.3791 77.6404 36.2217 77.7334 36.1073C77.8264 35.9929 78.0195 35.9571 78.091 36.0358C78.1625 36.1145 78.1196 36.2718 77.998 36.3862Z" fill="white"/>
<path d="M78.1619 37.037C78.0403 37.1514 77.8758 37.18 77.8043 37.1085C77.7328 37.037 77.8043 36.8725 77.9045 36.7509C78.0046 36.6293 78.1905 36.6079 78.262 36.6794C78.3335 36.7509 78.3121 36.9154 78.1619 37.037Z" fill="white"/>
<path d="M87.5882 37.6376C87.531 37.795 87.3952 37.8951 87.3022 37.8593C87.2092 37.8236 87.1735 37.6591 87.2307 37.5018C87.2879 37.3444 87.4238 37.2443 87.5239 37.2801C87.624 37.3158 87.6526 37.4803 87.5882 37.6376Z" fill="white"/>
<path d="M87.9806 38.0024C87.9162 38.1598 87.7875 38.2599 87.6874 38.217C87.5872 38.1741 87.5658 38.0239 87.623 37.8594C87.6802 37.6949 87.8161 37.6091 87.9162 37.6449C88.0163 37.6806 88.0449 37.8451 87.9806 38.0024Z" fill="white"/>
<path d="M88.4317 38.503C88.3744 38.6604 88.2457 38.7533 88.1456 38.7176C88.0455 38.6818 88.0169 38.5173 88.0812 38.36C88.1456 38.2027 88.2672 38.1026 88.3673 38.1455C88.4674 38.1884 88.496 38.3386 88.4317 38.503Z" fill="white"/>
<path d="M78.9771 9.16807C79.0558 9.39692 78.0188 9.98333 76.6529 10.4768C75.287 10.9702 74.1142 11.1919 74.0284 10.9702C73.9426 10.7485 74.9867 10.1621 76.3526 9.66152C77.7185 9.16092 78.877 8.94638 78.9771 9.16807Z" stroke="white" stroke-width="0.4" stroke-miterlimit="10"/>
<path d="M74.0575 10.9631L71.4688 9.18958L71.6475 8.5388L73.0778 8.63177C73.0778 8.63177 73.4211 9.17527 73.6142 9.12521C73.8072 9.07515 73.5069 8.41008 73.7786 8.25275L74.7012 8.89637C74.7012 8.89637 75.6666 8.62462 75.6022 8.36002C75.3062 8.41015 75.0026 8.39056 74.7155 8.3028C74.7155 8.3028 74.172 7.58767 74.9872 7.40888C74.9872 7.20149 74.408 6.93689 75.1517 6.49351L75.3019 6.4363C76.1529 6.30757 75.8811 6.87968 76.017 7.03701C76.7322 6.64369 76.8037 7.55191 76.8037 7.55191C76.8037 7.55191 76.7107 7.76645 76.16 8.16693C76.2816 8.40292 77.197 7.9953 77.197 7.9953L77.4473 6.90829C77.7477 6.85108 77.955 7.56621 78.1624 7.4804C78.3698 7.39458 78.2554 6.76526 78.2554 6.76526L79.2852 5.78552L79.843 6.16454L78.9991 9.18242" stroke="white" stroke-width="0.4" stroke-miterlimit="10"/>
<path d="M76.1248 8.17401C76.6755 7.77354 76.7685 7.55899 76.7685 7.55899C76.7685 7.55899 76.7327 6.65077 76.0176 7.0441" stroke="white" stroke-width="0.5" stroke-miterlimit="10"/>
<path d="M12.3705 24.5864L28.5183 68.9249C29.6911 72.1359 30.6637 74.4029 30.0344 76.2265C29.4051 78.0501 28.9116 78.5078 26.6018 79.3516C25.9854 79.6005 25.3457 79.7874 24.6923 79.9094C24.0509 80.0151 23.3925 79.899 22.8258 79.5805L22.5255 79.3874C22.2466 78.851 22.4182 78.236 22.5827 77.242C22.7472 76.2479 23.591 75.1681 23.1762 74.0382C22.9264 73.3135 22.5256 72.65 22.0005 72.0916C21.4754 71.5332 20.8378 71.0925 20.1298 70.7986C19.1034 70.4749 18.0023 70.4749 16.976 70.7986L21.2668 82.5268L33.4671 78.0858C33.6244 77.7783 33.8032 77.4494 34.0106 77.1133C36.4206 73.2515 39.2811 67.4947 37.3717 62.2456L32.9665 50.1669C33.3636 50.4738 33.7845 50.7488 34.2251 50.9893C35.4213 51.6464 36.7521 52.0207 38.1155 52.0835C39.6313 52.1487 41.1446 51.9054 42.5636 51.3683C43.6737 50.9835 44.7092 50.4102 45.6244 49.6734C46.3938 49.046 47.0557 48.2972 47.5839 47.4565C48.0586 46.7022 48.4155 45.8799 48.6423 45.0179C48.8162 44.3561 48.9192 43.6777 48.9498 42.9941C49.6964 43.6104 50.5182 44.1294 51.3956 44.5388C52.3672 44.9512 53.4026 45.1931 54.4563 45.2539C55.6567 45.3214 56.8609 45.2542 58.0463 45.0537L59.9128 44.8248C62.2227 44.5817 64.4683 44.1097 65.2978 44.4744C65.7505 44.681 66.1509 44.9869 66.469 45.3695C66.7872 45.752 67.0151 46.2014 67.1357 46.6842C67.6935 48.6723 66.8783 50.0382 66.299 51.0608C65.7198 52.0835 64.5755 52.9202 62.7877 53.5638C59.3479 54.8153 55.4432 52.5483 53.8485 50.5316L51.9105 47.9142L50.1226 48.565L53.4122 57.497L54.5136 57.1323L55.5147 54.6508L55.6578 54.5936C56.3031 55.1042 57.0836 55.4149 57.9033 55.4875C59.2546 55.6734 60.6261 55.6565 61.9724 55.4375C63.4083 55.2224 64.7676 54.6521 65.9271 53.7783C67.2226 52.8855 68.2627 51.6703 68.945 50.2527C69.5455 49.0244 69.8236 47.6634 69.7531 46.298C69.6886 45.2985 69.464 44.3158 69.088 43.3874C68.2871 41.1848 66.3491 38.4315 64.5827 37.7235C62.8163 37.0155 61.2215 37.2158 58.6113 37.5447L56.1083 38.0024C55.4432 38.0668 53.1476 38.6174 51.4027 38.4029C50.9328 38.3629 50.4882 38.1733 50.1341 37.8617C49.7801 37.5502 49.5354 37.1332 49.4361 36.6723C49.0642 35.6425 48.9426 33.8117 49.5577 32.882C50.2838 31.6754 51.406 30.758 52.7329 30.2861C53.9746 29.7779 55.3417 29.6607 56.6518 29.95C57.7245 30.2289 60.3562 31.4947 61.1715 33.1538L61.8866 34.6413L63.2597 34.0978L71.97 30.9512L71.5839 29.8928L68.4873 31.0227L63.1453 16.4053L56.2656 19.1442L56.5517 19.9452L59.4122 18.9726L64.4826 32.5602L63.324 32.9678L60.8854 26.1454L59.7126 26.5531L59.3193 28.6484L59.1762 28.6985C58.2589 28.4691 57.3271 28.3018 56.3872 28.1979C54.7653 28.1932 53.1602 28.5269 51.6745 29.1776C50.6266 29.632 49.6677 30.2688 48.8425 31.0584C48.1862 31.6752 47.6418 32.4011 47.2335 33.2038C46.908 33.7688 46.667 34.3783 46.5183 35.0131C46.118 34.1615 45.6084 33.3658 45.0022 32.646C44.1975 31.6783 43.2018 30.8871 42.0773 30.3218C40.9623 29.7757 39.7428 29.4757 38.5016 29.4422C37.1144 29.4195 35.7357 29.6623 34.4397 30.1574C33.1156 30.6248 31.8995 31.3545 30.864 32.3028C29.898 33.1999 29.1411 34.2986 28.647 35.5209C28.4471 36.031 28.2916 36.5573 28.1822 37.0942L22.2895 20.7891L29.4408 18.1216L28.8187 16.5268L3.66016 25.6949L4.31808 27.5114L12.3705 24.5864ZM46.4039 36.2932C46.3807 37.2685 46.5433 38.2393 46.883 39.1538C47.1762 39.9619 47.4408 40.8558 47.7913 41.5852C47.7194 43.2009 47.3484 44.7891 46.6971 46.2694C45.863 47.9173 44.4419 49.1931 42.7138 49.8451C42.0136 50.1333 41.2612 50.2732 40.5043 50.2559C39.7473 50.2387 39.0021 50.0647 38.3157 49.745C36.9712 49.0942 35.6053 45.5328 34.9259 43.652L33.8962 40.7914L46.4039 36.2932ZM33.0094 38.7175C32.2942 36.8367 31.7293 34.9488 31.9224 33.776C32.1155 32.6031 33.3526 31.5733 34.5684 31.1156C35.1311 30.8697 35.7435 30.7584 36.3568 30.7907C36.9701 30.823 37.5673 30.9979 38.1012 31.3016C39.088 31.9452 39.8604 34.1621 40.5398 36.0215L40.7257 36.5292L33.2096 39.2611L33.0094 38.7175Z" fill="white"/>
<path d="M47.933 83.7354C47.8868 83.7352 47.8421 83.7196 47.8059 83.6911C47.7696 83.6626 47.7439 83.6229 47.7327 83.5781C47.7327 83.5781 47.7327 83.4637 47.6326 83.292L47.3895 82.6484L47.0676 81.7831L46.6958 80.8463L46.374 79.981L46.1237 79.323L46.0164 79.0227C45.9518 78.8057 45.8366 78.6072 45.6803 78.4434C45.5565 78.3506 45.4059 78.3004 45.2512 78.3004C45.2303 78.3075 45.2077 78.3075 45.1868 78.3004C45.1821 78.2891 45.1797 78.2769 45.1797 78.2646C45.1797 78.2524 45.1821 78.2402 45.1868 78.2289C45.1868 78.1431 45.1868 78.1073 45.2798 78.1073H45.4943H45.8519H46.7387H47.2035H47.4467C47.511 78.1073 47.5468 78.1073 47.5468 78.2289C47.5515 78.2402 47.5539 78.2524 47.5539 78.2646C47.5539 78.2769 47.5515 78.2891 47.5468 78.3004C47.5357 78.306 47.5235 78.309 47.511 78.309C47.4986 78.309 47.4863 78.306 47.4753 78.3004C47.07 78.3004 46.9199 78.472 47.0247 78.8153C47.0247 78.8653 47.0819 78.9869 47.1463 79.1729L47.3823 79.8451C47.4753 80.1025 47.5754 80.3743 47.6755 80.6603L47.9544 81.4613C48.0402 81.7116 48.1117 81.9261 48.1761 82.0978C48.2405 82.2694 48.2691 82.3695 48.2762 82.3981C48.2834 82.4267 48.2762 82.3981 48.2762 82.3981C48.2762 82.3981 48.3263 82.2479 48.3763 82.0906C48.4264 81.9333 48.4908 81.733 48.5694 81.5114C48.6481 81.2897 48.7196 81.0465 48.8054 80.7962C48.8912 80.5459 48.9699 80.3028 49.0486 80.0811C49.1272 79.8594 49.1916 79.6305 49.2488 79.4446L49.3632 79.0513C49.3952 78.9619 49.404 78.8659 49.389 78.7721C49.374 78.6784 49.3356 78.5899 49.2774 78.5149C49.2097 78.4443 49.127 78.3897 49.0354 78.355C48.9439 78.3204 48.8458 78.3066 48.7482 78.3147C48.7206 78.3251 48.6901 78.3251 48.6624 78.3147C48.6577 78.3034 48.6553 78.2912 48.6553 78.2789C48.6553 78.2667 48.6577 78.2545 48.6624 78.2432C48.6531 78.2153 48.6531 78.1852 48.6624 78.1574C48.6901 78.1469 48.7206 78.1469 48.7482 78.1574H49.0557H49.6421H50.2143H50.5146C50.5933 78.1574 50.629 78.1574 50.629 78.2789C50.6358 78.3023 50.6358 78.3271 50.629 78.3504C50.6014 78.3609 50.5709 78.3609 50.5432 78.3504C50.4481 78.3454 50.353 78.3607 50.2642 78.3952C50.1755 78.4297 50.0951 78.4827 50.0283 78.5507C49.8863 78.717 49.7771 78.9087 49.7065 79.1156C49.7065 79.1872 49.635 79.3159 49.5635 79.5018L49.3346 80.174C49.2417 80.4386 49.1487 80.7175 49.0414 81.0108L48.7411 81.8904L48.4622 82.6985C48.3835 82.9416 48.312 83.1419 48.2548 83.3063C48.1976 83.4708 48.169 83.5638 48.1547 83.5996C48.1404 83.6353 48.0188 83.7354 47.933 83.7354Z" fill="#DF7437"/>
<path d="M51.1445 83.6711C51.073 83.6711 51.0444 83.6282 51.0444 83.5496C51.0419 83.5358 51.0427 83.5217 51.0468 83.5084C51.0509 83.4951 51.0582 83.483 51.0681 83.4731C51.078 83.4632 51.0901 83.4559 51.1034 83.4518C51.1167 83.4477 51.1308 83.4469 51.1445 83.4494C51.3392 83.4613 51.5341 83.4321 51.7167 83.3636C51.7794 83.3294 51.8301 83.2767 51.862 83.2128C51.894 83.1489 51.9056 83.0768 51.8954 83.006V78.7152C51.9031 78.6483 51.8918 78.5806 51.8627 78.5199C51.8336 78.4592 51.7879 78.4079 51.731 78.372C51.5454 78.2957 51.3446 78.2639 51.1445 78.279C51.073 78.279 51.0444 78.279 51.0444 78.1717C51.0444 78.0644 51.0444 78.0645 51.1445 78.0645H53.6046C53.6833 78.0645 53.719 78.0644 53.719 78.1717C53.719 78.279 53.719 78.279 53.6046 78.279C53.4069 78.2645 53.2086 78.2963 53.0254 78.372C52.9658 78.4056 52.9177 78.4562 52.8871 78.5174C52.8565 78.5785 52.8449 78.6474 52.8537 78.7152V83.006C52.8441 83.0775 52.8569 83.1502 52.8901 83.2142C52.9234 83.2782 52.9756 83.3304 53.0397 83.3636C53.22 83.4311 53.4124 83.4603 53.6046 83.4494C53.6833 83.4494 53.719 83.4494 53.719 83.5496C53.719 83.6497 53.719 83.6711 53.6046 83.6711H53.2685H52.8037H51.9312H51.4807H51.1445Z" fill="#DF7437"/>
<path d="M54.2051 83.6711C54.1914 83.6736 54.1773 83.6728 54.1639 83.6687C54.1506 83.6646 54.1385 83.6573 54.1287 83.6474C54.1188 83.6375 54.1115 83.6254 54.1074 83.6121C54.1032 83.5988 54.1024 83.5847 54.105 83.571C54.105 83.4923 54.105 83.4494 54.2051 83.4494C54.3517 83.4584 54.4978 83.4262 54.627 83.3564C54.7509 83.2619 54.8472 83.136 54.9059 82.9917C54.9059 82.9059 55.0061 82.77 55.0847 82.5769L55.3636 81.8618C55.4637 81.59 55.5782 81.304 55.6926 80.9965L56.0502 80.0739L56.372 79.2158L56.6294 78.5006C56.6938 78.3147 56.7438 78.186 56.7724 78.1145C56.7852 78.0629 56.8156 78.0174 56.8583 77.9857C56.9146 77.9715 56.9736 77.9715 57.0299 77.9857C57.0886 77.9709 57.15 77.9709 57.2087 77.9857C57.2518 78.0184 57.2842 78.0633 57.3016 78.1145C57.3016 78.2217 57.4089 78.3862 57.4947 78.6151C57.5805 78.8439 57.6878 79.1157 57.8094 79.416L58.1741 80.36L58.546 81.3254L58.8749 82.1764C58.9679 82.4267 59.0466 82.627 59.1038 82.7629C59.1655 82.9462 59.2654 83.1144 59.397 83.2563C59.4786 83.3399 59.588 83.3907 59.7045 83.3993C59.7689 83.3993 59.8046 83.4422 59.8046 83.5209C59.8072 83.5346 59.8064 83.5487 59.8022 83.562C59.7981 83.5754 59.7908 83.5875 59.7809 83.5973C59.7711 83.6072 59.759 83.6145 59.7457 83.6186C59.7323 83.6228 59.7182 83.6236 59.7045 83.621H57.745C57.7313 83.6236 57.7172 83.6228 57.7039 83.6186C57.6906 83.6145 57.6784 83.6072 57.6686 83.5973C57.6587 83.5875 57.6514 83.5754 57.6473 83.562C57.6432 83.5487 57.6423 83.5346 57.6449 83.5209C57.6449 83.4422 57.6449 83.3993 57.745 83.3993C57.8649 83.4098 57.985 83.3823 58.0883 83.3207C58.1171 83.2974 58.1404 83.268 58.1565 83.2346C58.1726 83.2012 58.181 83.1646 58.1813 83.1276C58.1934 83.0662 58.1934 83.003 58.1813 82.9416L58.1312 82.8058C58.1312 82.7271 58.074 82.627 58.0382 82.5125C58.0025 82.3981 57.9596 82.2766 57.9167 82.1621C57.8738 82.0477 57.8451 81.9333 57.8094 81.8403C57.7975 81.8033 57.778 81.7692 57.7522 81.7402H57.6664H55.6783C55.6706 81.761 55.6706 81.7838 55.6783 81.8046C55.6783 81.9118 55.6139 82.0334 55.5639 82.1836C55.5144 82.3215 55.4738 82.4624 55.4423 82.6055C55.4093 82.7147 55.3901 82.8277 55.3851 82.9416C55.3758 83.0106 55.384 83.0809 55.409 83.1459C55.434 83.2109 55.475 83.2685 55.5281 83.3135C55.6475 83.3817 55.7841 83.4139 55.9214 83.4065C55.9858 83.4065 56.0215 83.4494 56.0215 83.528C56.0241 83.5418 56.0233 83.5559 56.0192 83.5692C56.015 83.5825 56.0077 83.5946 55.9979 83.6045C55.988 83.6143 55.9759 83.6217 55.9626 83.6258C55.9493 83.6299 55.9351 83.6307 55.9214 83.6282H54.2051V83.6711ZM55.8571 81.5257H57.5233H57.5877C57.5877 81.5257 57.5877 81.5257 57.5877 81.4398L57.4304 80.9893L57.2301 80.4315L57.0299 79.8737L56.8583 79.4017L56.7653 79.1371C56.757 79.1161 56.7419 79.0984 56.7224 79.087C56.7224 79.087 56.6866 79.087 56.6795 79.087C56.6723 79.087 56.6366 79.2158 56.5793 79.3516C56.5221 79.4875 56.4578 79.6663 56.372 79.8594L56.136 80.4673C56.0501 80.6746 55.9786 80.8606 55.9143 81.0251L55.7784 81.3898C55.7712 81.4541 55.7927 81.5257 55.8571 81.5257Z" fill="#DF7437"/>
<path d="M61.4645 83.7283C61.1199 83.7504 60.7798 83.6405 60.5134 83.4208C60.4031 83.3235 60.3153 83.2034 60.256 83.0688C60.1968 82.9342 60.1674 82.7884 60.1701 82.6413C60.167 82.4751 60.2171 82.3122 60.3131 82.1765C60.3629 82.1111 60.4282 82.0592 60.5032 82.0255C60.5781 81.9918 60.6603 81.9773 60.7422 81.9834C60.8112 81.9814 60.8798 81.9938 60.9438 82.0196C61.0078 82.0455 61.0658 82.0843 61.1141 82.1336C61.163 82.1791 61.2017 82.2346 61.2276 82.2962C61.2535 82.3579 61.266 82.4243 61.2642 82.4911C61.2696 82.5715 61.2441 82.6508 61.1927 82.7128C61.1447 82.7616 61.0859 82.7983 61.0211 82.8201L60.8566 82.8988C60.833 82.9123 60.8138 82.9322 60.8011 82.9563C60.7884 82.9804 60.7829 83.0075 60.7851 83.0347C60.7882 83.0871 60.8051 83.1378 60.8339 83.1818C60.8628 83.2257 60.9027 83.2613 60.9496 83.285C61.0887 83.3563 61.2439 83.3907 61.4001 83.3851C61.5281 83.3937 61.6561 83.3676 61.7706 83.3098C61.8851 83.2519 61.9819 83.1643 62.0509 83.0561C62.1919 82.7521 62.2558 82.4181 62.2368 82.0835V78.7367C62.2411 78.6736 62.2318 78.6103 62.2096 78.5511C62.1874 78.4919 62.1528 78.4381 62.1081 78.3934C61.9769 78.3017 61.8167 78.261 61.6576 78.279C61.5789 78.279 61.536 78.279 61.536 78.1789C61.536 78.0788 61.5789 78.0645 61.6576 78.0645H63.803C63.8673 78.0645 63.9031 78.0645 63.9031 78.1789C63.9115 78.1995 63.9115 78.2226 63.9031 78.2432C63.892 78.2489 63.8798 78.2518 63.8673 78.2518C63.8549 78.2518 63.8427 78.2489 63.8316 78.2432C63.6691 78.2275 63.5059 78.2652 63.3667 78.3505C63.319 78.3948 63.2819 78.4493 63.2584 78.51C63.2349 78.5708 63.2255 78.636 63.2309 78.7009V82.012C63.246 82.348 63.1694 82.6817 63.0092 82.9774C62.8719 83.2179 62.6614 83.4083 62.4085 83.5209C62.1137 83.661 61.7908 83.7319 61.4645 83.7283Z" fill="#DF7437"/>
<path d="M64.5106 83.671C64.4462 83.671 64.4105 83.6281 64.4105 83.5494C64.4094 83.536 64.4112 83.5225 64.4159 83.5099C64.4205 83.4972 64.4279 83.4858 64.4374 83.4763C64.4469 83.4667 64.4584 83.4594 64.471 83.4547C64.4837 83.4501 64.4972 83.4482 64.5106 83.4493C64.7099 83.4679 64.9104 83.4308 65.0898 83.342C65.1421 83.2992 65.1831 83.2442 65.2093 83.1819C65.2355 83.1196 65.246 83.0518 65.24 82.9845V78.7723C65.2434 78.7087 65.233 78.6451 65.2095 78.5859C65.1861 78.5266 65.1501 78.4732 65.1041 78.4291C64.9349 78.333 64.7397 78.293 64.5463 78.3146C64.482 78.3146 64.4462 78.2717 64.4462 78.2002C64.4437 78.1865 64.4445 78.1724 64.4486 78.1591C64.4527 78.1457 64.46 78.1336 64.4699 78.1238C64.4797 78.1139 64.4919 78.1066 64.5052 78.1025C64.5185 78.0984 64.5326 78.0975 64.5463 78.1001H68.7156C68.7395 78.0969 68.7639 78.099 68.7869 78.1063C68.8099 78.1136 68.8311 78.1259 68.8488 78.1423C68.8666 78.1587 68.8805 78.1788 68.8896 78.2011C68.8987 78.2235 68.9028 78.2476 68.9015 78.2717C68.9079 78.3479 68.9079 78.4244 68.9015 78.5006C68.9015 78.6078 68.9015 78.7151 68.9015 78.8367C68.9015 78.9583 68.9015 79.0584 68.9015 79.1513C68.9015 79.2443 68.9015 79.3015 68.9015 79.323C68.907 79.3465 68.907 79.371 68.9015 79.3945C68.9015 79.3945 68.9015 79.3945 68.8372 79.3945H68.7513C68.7304 79.3783 68.7153 79.3557 68.7084 79.3301C68.638 79.1781 68.5592 79.0301 68.4724 78.8867C68.3771 78.727 68.2476 78.5903 68.0934 78.4863C67.9146 78.365 67.7014 78.3048 67.4855 78.3146H66.327C66.2896 78.3039 66.25 78.3039 66.2126 78.3146C66.2126 78.3146 66.1697 78.379 66.1697 78.4505V80.553C66.1613 80.5737 66.1613 80.5967 66.1697 80.6174C66.1927 80.6262 66.2182 80.6262 66.2412 80.6174H66.6345C66.8087 80.6307 66.9816 80.5798 67.1208 80.4743C67.2299 80.3898 67.316 80.2791 67.3711 80.1525C67.4283 80.031 67.4712 79.9237 67.507 79.8379C67.5168 79.8072 67.5313 79.7783 67.5499 79.7521C67.5499 79.7521 67.5499 79.7521 67.6286 79.7521C67.6435 79.7508 67.6584 79.7543 67.6712 79.762C67.6841 79.7697 67.6942 79.7812 67.7001 79.795C67.7065 79.8184 67.7065 79.8431 67.7001 79.8665C67.7001 79.9094 67.7001 79.9809 67.7001 80.0882C67.7001 80.1954 67.7001 80.3027 67.7001 80.4314V81.1466C67.7001 81.2825 67.7001 81.404 67.7001 81.5113C67.7001 81.6186 67.7001 81.6972 67.7001 81.733C67.7001 81.7687 67.7001 81.8474 67.6071 81.8474C67.5142 81.8474 67.5142 81.8474 67.4927 81.7473C67.4712 81.6472 67.414 81.5328 67.3568 81.404C67.2972 81.2721 67.2093 81.1549 67.0994 81.0608C66.9612 80.9528 66.7881 80.8993 66.6131 80.9106H66.2198C66.1482 80.9106 66.1196 80.9106 66.1196 81.025V83.2419C66.1174 83.2622 66.1197 83.2827 66.1264 83.302C66.1332 83.3212 66.1442 83.3387 66.1586 83.3532C66.173 83.3676 66.1905 83.3786 66.2098 83.3853C66.229 83.3921 66.2495 83.3944 66.2698 83.3921H67.3068C67.5221 83.3976 67.7355 83.351 67.9289 83.2562C68.0896 83.172 68.2328 83.0579 68.3509 82.9201C68.4517 82.7943 68.5381 82.6576 68.6083 82.5125C68.6655 82.3766 68.7156 82.2622 68.7442 82.1692C68.7728 82.0763 68.7442 82.0977 68.7942 82.0906H68.8801C68.923 82.0906 68.9444 82.0906 68.9516 82.1335C68.9551 82.1548 68.9551 82.1765 68.9516 82.1978V82.3909C68.9516 82.4982 68.9516 82.6269 68.9516 82.7628C68.9516 82.8987 68.9516 83.0345 68.9516 83.1561V83.4064C68.9511 83.4682 68.9311 83.5283 68.8944 83.578C68.8731 83.5998 68.8474 83.6168 68.8191 83.6279C68.7907 83.639 68.7603 83.644 68.7299 83.6424H66.7204H65.1828L64.5106 83.671Z" fill="#DF7437"/>
<path d="M71.9918 83.7355C71.7649 83.7365 71.5389 83.7077 71.3195 83.6496C71.1355 83.6009 70.956 83.5363 70.7832 83.4566L70.4614 83.3207C70.4075 83.3064 70.3508 83.3064 70.2969 83.3207C70.2409 83.3278 70.1898 83.3559 70.1539 83.3993H70.1181C70.0664 83.4549 70.0115 83.5075 69.9536 83.5567C69.9036 83.6139 69.8535 83.6282 69.8106 83.5996C69.7874 83.5916 69.7676 83.5759 69.7546 83.555C69.7416 83.5342 69.7361 83.5095 69.7391 83.4852V81.9834C69.7391 81.9262 69.7748 81.8904 69.8392 81.8761C69.9036 81.8618 69.9536 81.8761 69.9679 81.9333C70.0655 82.2143 70.216 82.4741 70.4113 82.6985C70.6101 82.9229 70.8537 83.1032 71.1264 83.2277C71.4106 83.3516 71.7175 83.4149 72.0275 83.4136C72.2557 83.4226 72.4817 83.3655 72.6783 83.2492C72.8359 83.1483 72.9641 83.0077 73.0502 82.8415C73.1274 82.6883 73.169 82.5196 73.1717 82.3481C73.1794 82.1523 73.113 81.9608 72.9858 81.8117C72.8524 81.6679 72.6888 81.5556 72.5067 81.4828C72.2906 81.3929 72.0684 81.3188 71.8416 81.2611C71.5984 81.2039 71.3553 81.1324 71.1264 81.0608C70.8974 80.9928 70.6767 80.8993 70.4685 80.7819C70.2538 80.6688 70.0766 80.4957 69.9585 80.2836C69.8404 80.0716 69.7865 79.8298 69.8034 79.5877C69.7909 79.273 69.8785 78.9625 70.0537 78.7009C70.2358 78.4573 70.484 78.2711 70.7689 78.1645C71.0464 78.0323 71.3484 77.9593 71.6556 77.95C71.829 77.9478 72.0019 77.967 72.1705 78.0072C72.3354 78.0421 72.4978 78.0875 72.6568 78.1431C72.7727 78.1842 72.8851 78.2344 72.9929 78.2933C73.1145 78.3576 73.2146 78.3576 73.279 78.2933C73.3288 78.2443 73.384 78.2011 73.4435 78.1645C73.4615 78.1494 73.4843 78.1411 73.5078 78.1411C73.5314 78.1411 73.5542 78.1494 73.5722 78.1645C73.5958 78.1781 73.6151 78.198 73.6277 78.2221C73.6404 78.2461 73.646 78.2733 73.6437 78.3004V79.6163C73.6458 79.6455 73.6365 79.6744 73.6179 79.697C73.5993 79.7196 73.5727 79.7343 73.5436 79.7378C73.5152 79.7445 73.4853 79.7401 73.46 79.7255C73.4348 79.7109 73.4161 79.6871 73.4077 79.6592C73.3004 79.4027 73.1584 79.162 72.9858 78.944C72.8199 78.7367 72.619 78.56 72.3922 78.422C72.1756 78.2934 71.9289 78.2244 71.6771 78.2218C71.4751 78.22 71.2758 78.2692 71.0978 78.3648C70.9356 78.4536 70.798 78.5814 70.6974 78.7367C70.6007 78.8908 70.551 79.0697 70.5543 79.2516C70.55 79.3454 70.5642 79.4392 70.5961 79.5275C70.628 79.6158 70.677 79.697 70.7403 79.7665C70.8805 79.9035 71.0489 80.0085 71.2337 80.074C71.4673 80.1569 71.7062 80.2238 71.9488 80.2742L72.664 80.4601C72.8981 80.5269 73.1236 80.6204 73.3362 80.739C73.5398 80.8553 73.7117 81.0198 73.8368 81.2182C73.9692 81.4508 74.0336 81.7159 74.0227 81.9834C74.0321 82.3083 73.9438 82.6285 73.7691 82.9027C73.5944 83.1768 73.3415 83.3922 73.043 83.5209C72.7126 83.6689 72.3537 83.7422 71.9918 83.7355Z" fill="#DF7437"/>
<path d="M78.8355 84C78.4936 84.002 78.1543 83.9414 77.8343 83.8213C77.5479 83.7067 77.3 83.5133 77.1191 83.2635C76.9268 82.9714 76.8317 82.6259 76.8474 82.2766C76.842 81.9939 76.9245 81.7166 77.0834 81.4828C77.2551 81.2461 77.4683 81.0426 77.7127 80.882C77.9897 80.6941 78.2788 80.5245 78.578 80.3743C78.5801 80.3601 78.5801 80.3456 78.578 80.3314C78.5818 80.3236 78.5838 80.315 78.5838 80.3064C78.5838 80.2977 78.5818 80.2891 78.578 80.2813L78.4278 80.0167C78.395 79.9577 78.3592 79.9004 78.3206 79.8451C78.2365 79.6878 78.1625 79.5254 78.0989 79.3588C78.0328 79.1852 77.9989 79.001 77.9987 78.8153C77.9934 78.6557 78.0263 78.4971 78.0947 78.3528C78.1631 78.2085 78.2651 78.0826 78.3921 77.9857C78.6934 77.7636 79.0623 77.6524 79.4362 77.6711C79.7024 77.6626 79.9668 77.7165 80.2085 77.8284C80.4096 77.9224 80.5841 78.0649 80.7163 78.2432C80.8345 78.4077 80.8971 78.6056 80.895 78.8081C80.8977 78.9975 80.8401 79.1828 80.7306 79.3374C80.6018 79.5044 80.4444 79.6473 80.2657 79.7593C80.0655 79.888 79.8366 80.0167 79.5506 80.1455C79.5432 80.1499 79.5371 80.1562 79.5328 80.1637C79.5286 80.1712 79.5263 80.1797 79.5263 80.1884C79.5263 80.197 79.5286 80.2055 79.5328 80.213C79.5371 80.2205 79.5432 80.2268 79.5506 80.2313L80.1513 81.1896L80.7735 82.1979C80.8704 82.0026 80.9564 81.8021 81.0309 81.5972C81.1103 81.3753 81.1748 81.1483 81.224 80.9178C81.2669 80.689 81.224 80.5388 81.1024 80.4601C80.9402 80.381 80.7607 80.3441 80.5804 80.3528C80.5017 80.3528 80.466 80.3099 80.466 80.2241C80.466 80.1383 80.466 80.0954 80.5804 80.0954H80.8664C80.988 80.0954 81.1954 80.0954 81.4672 80.0954C81.653 80.105 81.8392 80.105 82.025 80.0954H82.261C82.3396 80.0954 82.3754 80.1383 82.3754 80.2241C82.3754 80.3099 82.3396 80.3528 82.261 80.3528C82.1022 80.3476 81.9462 80.3954 81.8176 80.4887C81.6735 80.6234 81.5779 80.8019 81.5458 80.9965C81.4672 81.2825 81.3885 81.5543 81.2955 81.8117C81.2067 82.0568 81.1015 82.2957 80.9809 82.5269C80.9669 82.5454 80.9594 82.568 80.9594 82.5912C80.9594 82.6144 80.9669 82.637 80.9809 82.6556C81.0881 82.8272 81.1883 82.9774 81.2598 83.099L81.4099 83.3421C81.446 83.406 81.4947 83.462 81.553 83.5066C81.616 83.5543 81.6896 83.5862 81.7675 83.5996H82.0178H82.2824C82.3682 83.5996 82.404 83.6425 82.404 83.7283C82.404 83.8141 82.404 83.857 82.2824 83.857H82.025H81.5244H81.0524H80.7949C80.7481 83.8695 80.6988 83.8695 80.6519 83.857C80.5996 83.827 80.5574 83.7822 80.5303 83.7283C80.5149 83.693 80.4957 83.6594 80.4731 83.6282C80.4731 83.5781 80.4159 83.5138 80.373 83.4422C80.367 83.436 80.3598 83.431 80.3518 83.4276C80.3438 83.4242 80.3352 83.4224 80.3265 83.4224C80.3178 83.4224 80.3092 83.4242 80.3012 83.4276C80.2933 83.431 80.286 83.436 80.28 83.4422C80.0714 83.6281 79.8285 83.7714 79.5649 83.8642C79.3307 83.9486 79.0843 83.9945 78.8355 84ZM79.2431 83.5352C79.411 83.5347 79.5768 83.4981 79.7294 83.4279C79.8945 83.3462 80.0464 83.2401 80.1799 83.1133C80.1921 83.0981 80.1987 83.0791 80.1987 83.0596C80.1987 83.0401 80.1921 83.0212 80.1799 83.006L79.7365 82.248C79.5649 81.9691 79.4004 81.6901 79.2359 81.4112C79.0714 81.1323 78.9141 80.8677 78.7711 80.6317C78.7711 80.5888 78.721 80.5817 78.6781 80.6317C78.4269 80.7778 78.2137 80.9812 78.056 81.2253C77.9172 81.4894 77.8506 81.7854 77.8629 82.0835C77.8447 82.2856 77.8676 82.4892 77.9303 82.6822C77.993 82.8752 78.0941 83.0534 78.2276 83.2062C78.3663 83.3261 78.5277 83.4169 78.7021 83.4734C78.8765 83.5299 79.0604 83.5509 79.2431 83.5352ZM79.4433 79.8952C79.6487 79.7694 79.8147 79.5885 79.9225 79.3731C79.9987 79.1746 80.0375 78.9636 80.0369 78.7509C80.0598 78.5292 80.0041 78.3065 79.8796 78.1216C79.8207 78.061 79.7491 78.0141 79.67 77.9845C79.5908 77.9548 79.5061 77.943 79.4219 77.95C79.3347 77.9446 79.2477 77.9615 79.1689 77.999C79.0901 78.0366 79.0221 78.0935 78.9713 78.1645C78.8655 78.3308 78.8131 78.5254 78.8212 78.7223C78.8246 78.8477 78.8513 78.9714 78.8998 79.0871C78.9531 79.2128 79.0153 79.3347 79.0858 79.4518C79.1175 79.5114 79.1534 79.5687 79.193 79.6234L79.3432 79.8737C79.3718 79.9166 79.4004 79.9309 79.4433 79.8952Z" fill="#DF7437"/>
<path d="M86.3515 83.6711C86.2871 83.6711 86.2514 83.6711 86.2514 83.5638C86.2514 83.4565 86.2514 83.4494 86.3515 83.4494C86.5524 83.4686 86.7545 83.4262 86.9308 83.3278C86.9792 83.2853 87.0173 83.2323 87.0421 83.1728C87.0669 83.1133 87.0778 83.0489 87.0738 82.9845V78.5006C87.0738 78.3933 87.0237 78.3361 86.9165 78.3361H86.4516C86.2771 78.3297 86.1048 78.3772 85.9582 78.472C85.8182 78.5571 85.6986 78.6719 85.6078 78.8081C85.5218 78.9346 85.4476 79.0686 85.3861 79.2086C85.3289 79.3421 85.2859 79.4565 85.2573 79.5519C85.253 79.5633 85.2463 79.5737 85.2377 79.5823C85.2291 79.5909 85.2187 79.5976 85.2073 79.6019C85.1816 79.6093 85.1543 79.6093 85.1286 79.6019C85.1286 79.6019 85.0786 79.6019 85.0714 79.6019C85.0673 79.5831 85.0673 79.5636 85.0714 79.5447C85.0714 79.5447 85.0714 79.4589 85.0714 79.3445C85.0714 79.2301 85.0714 79.1085 85.0714 78.9655C85.0714 78.8224 85.0714 78.6865 85.0714 78.565C85.0714 78.4434 85.0714 78.3576 85.0714 78.3075C85.0714 78.2575 85.1429 78.1359 85.2716 78.1359H89.8056C89.8305 78.1327 89.8558 78.1351 89.8797 78.1427C89.9036 78.1504 89.9255 78.1632 89.9439 78.1802C89.9623 78.1973 89.9767 78.2181 89.9862 78.2414C89.9957 78.2646 89.9999 78.2896 89.9987 78.3147C89.9987 78.3576 89.9987 78.4291 89.9987 78.5507C89.9987 78.6722 89.9987 78.8081 89.9987 78.9512C89.9987 79.0942 89.9987 79.2301 89.9987 79.3445C89.9987 79.4589 89.9987 79.5233 89.9987 79.5447C89.9987 79.5662 89.9987 79.6019 89.9987 79.6091C89.9987 79.6162 89.9987 79.6091 89.9272 79.6091H89.8557C89.8314 79.5928 89.8117 79.5707 89.7985 79.5447C89.7555 79.4517 89.7055 79.3445 89.6483 79.2086C89.5881 79.0702 89.5138 78.9384 89.4266 78.8153C89.3393 78.679 89.2249 78.5622 89.0905 78.472C88.9468 78.3764 88.7766 78.3288 88.6042 78.3361H88.1751C88.1354 78.3248 88.0933 78.3248 88.0535 78.3361C88.0535 78.3361 88.0035 78.4005 88.0035 78.472V82.9559C88.0025 83.0366 88.0171 83.1167 88.0464 83.1919C88.0646 83.2318 88.0913 83.2671 88.1247 83.2955C88.1581 83.3239 88.1972 83.3447 88.2395 83.3564C88.389 83.4068 88.5467 83.4286 88.7043 83.4208C88.7199 83.4183 88.7358 83.4196 88.7508 83.4245C88.7658 83.4294 88.7795 83.4377 88.7906 83.4489C88.8018 83.46 88.8101 83.4737 88.815 83.4887C88.8199 83.5037 88.8212 83.5196 88.8187 83.5352C88.8187 83.6067 88.8187 83.6424 88.7043 83.6424H88.3253H87.5458H86.7591L86.3515 83.6711Z" fill="#DF7437"/>
<path d="M93.1795 83.7354C92.8039 83.7436 92.4295 83.6905 92.071 83.5781C91.7862 83.4787 91.5373 83.297 91.3559 83.0561C91.1645 82.7769 91.0691 82.4431 91.0842 82.1049V78.7366C91.0885 78.6232 91.0586 78.511 90.9983 78.4148C90.9411 78.329 90.7909 78.2861 90.5478 78.2861C90.5328 78.2873 90.5177 78.2852 90.5036 78.2797C90.4895 78.2743 90.4768 78.2658 90.4665 78.2548C90.4562 78.2438 90.4485 78.2306 90.444 78.2162C90.4395 78.2018 90.4383 78.1866 90.4405 78.1717C90.4405 78.1002 90.4405 78.0716 90.5478 78.0716H92.6002C92.614 78.069 92.6281 78.0698 92.6414 78.0739C92.6547 78.0781 92.6668 78.0854 92.6767 78.0952C92.6865 78.1051 92.6939 78.1172 92.698 78.1305C92.7021 78.1438 92.7029 78.158 92.7004 78.1717C92.7004 78.2432 92.6646 78.2861 92.6002 78.2861C92.3499 78.2861 92.1855 78.329 92.1211 78.422C92.0489 78.5107 92.0109 78.6223 92.0138 78.7366V81.8618C92.0101 82.1203 92.0439 82.3781 92.114 82.627C92.1722 82.8338 92.3013 83.0135 92.4787 83.1347C92.716 83.2751 92.9903 83.3399 93.2653 83.3207C93.5333 83.3314 93.8001 83.28 94.0448 83.1705C94.237 83.0777 94.4001 82.9343 94.5168 82.7557C94.6342 82.5729 94.7144 82.3688 94.7528 82.155C94.7977 81.9193 94.8193 81.6798 94.8172 81.4398V79.2587C94.8179 79.0878 94.7987 78.9174 94.76 78.7509C94.7223 78.6148 94.6451 78.4929 94.5383 78.4005C94.4029 78.3051 94.2386 78.2596 94.0734 78.2718C94.0578 78.2742 94.0419 78.273 94.0269 78.2681C94.0119 78.2632 93.9983 78.2548 93.9871 78.2437C93.976 78.2325 93.9676 78.2189 93.9627 78.2039C93.9578 78.1889 93.9566 78.173 93.959 78.1574C93.959 78.0859 93.9948 78.0573 94.0734 78.0573H95.8398C95.9185 78.0573 95.9542 78.0573 95.9542 78.1574C95.9567 78.173 95.9554 78.1889 95.9505 78.2039C95.9456 78.2189 95.9373 78.2325 95.9261 78.2437C95.915 78.2548 95.9013 78.2632 95.8863 78.2681C95.8713 78.273 95.8554 78.2742 95.8398 78.2718C95.713 78.2697 95.5877 78.2992 95.4751 78.3576C95.3539 78.4263 95.2604 78.535 95.2105 78.6651C95.1362 78.8564 95.1022 79.0608 95.1104 79.2658V81.6115C95.1164 81.9845 95.0534 82.3555 94.9244 82.7056C94.8071 83.0029 94.5962 83.2539 94.3237 83.4208C93.9831 83.6393 93.584 83.749 93.1795 83.7354Z" fill="#DF7437"/>
<path d="M100.574 83.7068C100.399 83.7181 100.226 83.6647 100.088 83.5567C99.957 83.4503 99.8519 83.3159 99.7802 83.1633C99.6953 82.9894 99.6282 82.8073 99.58 82.6198C99.5299 82.4267 99.4799 82.2337 99.437 82.0406C99.3983 81.858 99.3457 81.6787 99.2796 81.5042C99.2321 81.3547 99.1514 81.2178 99.0436 81.1037C98.9905 81.0529 98.9276 81.0134 98.8588 80.9876C98.79 80.9618 98.7166 80.9502 98.6432 80.9536H98.0496C97.9781 80.9536 97.9495 80.9536 97.9495 81.0465V82.9559C97.9488 83.043 97.9608 83.1298 97.9852 83.2134C98.0035 83.2511 98.0295 83.2847 98.0615 83.3117C98.0936 83.3388 98.1309 83.3589 98.1712 83.3707C98.3079 83.4115 98.4506 83.4284 98.5931 83.4208C98.6575 83.4208 98.6932 83.4208 98.6932 83.5352C98.7 83.5586 98.7 83.5834 98.6932 83.6067C98.6822 83.6124 98.6699 83.6153 98.6575 83.6153C98.645 83.6153 98.6328 83.6124 98.6217 83.6067H98.1855H97.4703H96.7552H96.3833C96.319 83.6067 96.2832 83.6067 96.2832 83.4994C96.2832 83.3922 96.2832 83.385 96.3833 83.385C96.5211 83.3929 96.6592 83.3759 96.791 83.335C96.8262 83.3217 96.858 83.3007 96.884 83.2735C96.91 83.2462 96.9295 83.2135 96.9411 83.1776C96.9655 83.094 96.9776 83.0073 96.9769 82.9202V78.708C96.9783 78.6279 96.9662 78.5481 96.9411 78.472C96.9279 78.436 96.907 78.4032 96.8798 78.376C96.8526 78.3489 96.8199 78.3279 96.7838 78.3147C96.6601 78.2703 96.5289 78.2508 96.3976 78.2575C96.3853 78.2632 96.3719 78.2662 96.3583 78.2662C96.3447 78.2662 96.3313 78.2632 96.319 78.2575C96.3102 78.2345 96.3102 78.209 96.319 78.186C96.319 78.1073 96.3547 78.0716 96.4262 78.0716H96.7766H97.4918H98.5502H99.2653C99.5578 78.0655 99.8488 78.114 100.123 78.2146C100.369 78.3002 100.585 78.454 100.746 78.658C100.914 78.8931 100.999 79.1772 100.989 79.4661C100.993 79.6607 100.946 79.8531 100.853 80.0239C100.773 80.1755 100.661 80.3074 100.524 80.4101C100.395 80.5078 100.253 80.5872 100.102 80.646C99.9625 80.7055 99.8191 80.7556 99.673 80.7962C99.6229 80.7962 99.5943 80.7962 99.5943 80.8534C99.5884 80.8618 99.5853 80.8718 99.5853 80.882C99.5853 80.8923 99.5884 80.9023 99.5943 80.9106C99.7715 80.9633 99.9301 81.0649 100.052 81.2039C100.168 81.3422 100.26 81.4994 100.324 81.6687C100.393 81.838 100.448 82.0126 100.488 82.1907C100.538 82.3695 100.581 82.534 100.617 82.6913C100.65 82.8206 100.703 82.9437 100.774 83.0561C100.801 83.0981 100.838 83.1327 100.882 83.1564C100.926 83.1802 100.975 83.1924 101.025 83.1919C101.069 83.2026 101.116 83.2026 101.16 83.1919C101.219 83.1628 101.27 83.1213 101.311 83.0704C101.329 83.0452 101.354 83.0254 101.382 83.0132C101.382 83.0132 101.425 83.0132 101.454 83.0132C101.465 83.0208 101.475 83.0315 101.481 83.044C101.488 83.0566 101.49 83.0706 101.489 83.0847C101.494 83.1155 101.494 83.1468 101.489 83.1776C101.415 83.3167 101.31 83.4367 101.182 83.5281C101.008 83.6605 100.792 83.7241 100.574 83.7068ZM98.0496 80.7033H98.7647C98.9235 80.7147 99.0829 80.6933 99.233 80.6404C99.3831 80.5875 99.5207 80.5042 99.6372 80.3957C99.8556 80.1374 99.9635 79.8034 99.9376 79.4661C99.9501 79.167 99.862 78.8724 99.6873 78.6294C99.5956 78.5193 99.479 78.4328 99.3472 78.3768C99.2153 78.3208 99.072 78.2971 98.9292 78.3076H98.1068C98.072 78.2961 98.0344 78.2961 97.9995 78.3076C97.9638 78.3076 97.9495 78.3719 97.9495 78.4434V80.5888C97.9418 80.6121 97.9418 80.6371 97.9495 80.6604C97.9602 80.6764 97.9754 80.689 97.9932 80.6966C98.011 80.7042 98.0305 80.7065 98.0496 80.7033Z" fill="#DF7437"/>
<path d="M102.042 83.6711C101.977 83.6711 101.942 83.6282 101.942 83.5496C101.941 83.5361 101.942 83.5226 101.947 83.51C101.952 83.4974 101.959 83.4859 101.969 83.4764C101.978 83.4668 101.99 83.4595 102.002 83.4549C102.015 83.4502 102.028 83.4484 102.042 83.4494C102.236 83.4613 102.431 83.4321 102.614 83.3636C102.677 83.3294 102.727 83.2767 102.759 83.2128C102.791 83.1489 102.803 83.0768 102.793 83.006V78.7152C102.8 78.6483 102.789 78.5806 102.76 78.5199C102.731 78.4592 102.685 78.4079 102.628 78.372C102.443 78.2949 102.242 78.263 102.042 78.279C101.977 78.279 101.942 78.279 101.942 78.1717C101.942 78.0644 101.977 78.0645 102.042 78.0645H104.509C104.537 78.0645 104.565 78.0758 104.585 78.0959C104.605 78.116 104.616 78.1433 104.616 78.1717C104.616 78.2002 104.605 78.2275 104.585 78.2476C104.565 78.2677 104.537 78.279 104.509 78.279C104.309 78.2652 104.109 78.2969 103.923 78.372C103.863 78.4056 103.815 78.4562 103.784 78.5174C103.754 78.5785 103.742 78.6474 103.751 78.7152V83.006C103.741 83.0775 103.754 83.1502 103.787 83.2142C103.821 83.2782 103.873 83.3304 103.937 83.3636C104.12 83.4309 104.314 83.4601 104.509 83.4494C104.581 83.4494 104.623 83.4494 104.623 83.5496C104.626 83.5654 104.624 83.5816 104.619 83.5968C104.615 83.6121 104.606 83.626 104.595 83.6377C104.584 83.6493 104.571 83.6584 104.556 83.6642C104.541 83.67 104.525 83.6723 104.509 83.6711H104.166H103.701H102.828H102.385H102.042Z" fill="#DF7437"/>
<path d="M107.484 83.7354C107.259 83.7369 107.035 83.7081 106.819 83.6496C106.632 83.602 106.45 83.5373 106.275 83.4565L105.961 83.3206C105.907 83.307 105.85 83.307 105.796 83.3206C105.768 83.3225 105.741 83.3305 105.716 83.3441C105.691 83.3577 105.67 83.3765 105.653 83.3993L105.489 83.5566C105.431 83.6138 105.388 83.6281 105.338 83.5995C105.317 83.5894 105.3 83.5729 105.288 83.5525C105.277 83.532 105.272 83.5085 105.274 83.4851V81.9833C105.274 81.9261 105.274 81.8903 105.374 81.876C105.474 81.8617 105.489 81.876 105.503 81.9333C105.597 82.2167 105.749 82.4777 105.948 82.7003C106.147 82.9229 106.39 83.1024 106.661 83.2276C106.948 83.3523 107.257 83.4157 107.57 83.4136C107.796 83.4228 108.019 83.3656 108.213 83.2491C108.374 83.1523 108.503 83.0106 108.585 82.8415C108.668 82.6899 108.712 82.5205 108.714 82.348C108.721 82.1522 108.655 81.9607 108.528 81.8117C108.392 81.6679 108.226 81.5556 108.042 81.4827C107.826 81.3928 107.603 81.3187 107.376 81.261C107.133 81.2038 106.89 81.1323 106.661 81.0608C106.43 80.994 106.206 80.9004 105.996 80.7819C105.803 80.6689 105.639 80.5122 105.517 80.3242C105.39 80.1077 105.326 79.8601 105.331 79.6091C105.321 79.2937 105.411 78.9833 105.589 78.7223C105.771 78.4793 106.019 78.2932 106.304 78.1859C106.597 78.0587 106.914 77.9953 107.233 78C107.407 77.9978 107.58 78.017 107.748 78.0572C107.913 78.093 108.075 78.1384 108.235 78.1931C108.349 78.237 108.462 78.2871 108.571 78.3433C108.692 78.4076 108.785 78.4076 108.857 78.3433C108.904 78.2945 108.957 78.2513 109.014 78.2145C109.032 78.1994 109.055 78.1911 109.079 78.1911C109.102 78.1911 109.125 78.1994 109.143 78.2145C109.167 78.2273 109.187 78.2472 109.2 78.2714C109.212 78.2957 109.218 78.3232 109.214 78.3504V79.6663C109.217 79.6944 109.208 79.7224 109.191 79.7449C109.174 79.7673 109.149 79.7826 109.121 79.7878C109.107 79.7921 109.093 79.7935 109.078 79.7918C109.063 79.7901 109.049 79.7855 109.036 79.7781C109.024 79.7707 109.013 79.7608 109.004 79.7489C108.995 79.7371 108.989 79.7235 108.986 79.7092C108.873 79.4538 108.729 79.2136 108.556 78.994C108.393 78.787 108.195 78.6103 107.97 78.472C107.753 78.3456 107.506 78.2766 107.255 78.2717C107.05 78.2691 106.849 78.3183 106.669 78.4148C106.508 78.5038 106.373 78.6317 106.275 78.7866C106.176 78.9401 106.124 79.119 106.125 79.3015C106.121 79.3954 106.135 79.4891 106.167 79.5775C106.199 79.6658 106.248 79.747 106.311 79.8164C106.454 79.9535 106.625 80.0584 106.812 80.124C107.033 80.2073 107.26 80.2742 107.491 80.3242L108.206 80.5101C108.455 80.5742 108.695 80.6679 108.921 80.789C109.122 80.9062 109.292 81.0707 109.415 81.2682C109.55 81.4995 109.615 81.7656 109.601 82.0334C109.61 82.3643 109.521 82.6906 109.343 82.9702C109.168 83.2356 108.92 83.4443 108.628 83.5709C108.265 83.7153 107.873 83.7717 107.484 83.7354Z" fill="#DF7437"/>
<path d="M110.087 83.671C110.022 83.671 109.987 83.6281 109.987 83.5494C109.986 83.536 109.987 83.5225 109.992 83.5099C109.997 83.4972 110.004 83.4858 110.014 83.4763C110.023 83.4667 110.035 83.4594 110.047 83.4547C110.06 83.4501 110.073 83.4482 110.087 83.4493C110.186 83.4519 110.284 83.432 110.375 83.3911C110.465 83.3503 110.545 83.2895 110.609 83.2133C110.765 82.9798 110.836 82.6993 110.809 82.4195V78.8438C110.816 78.7718 110.808 78.6991 110.786 78.6303C110.764 78.5614 110.728 78.4978 110.68 78.4434C110.557 78.3449 110.401 78.2987 110.244 78.3146C110.173 78.3146 110.144 78.3146 110.144 78.2074C110.144 78.1001 110.144 78.1001 110.244 78.1001H111.674C111.745 78.0906 111.816 78.1053 111.877 78.1416C111.938 78.178 111.985 78.2339 112.01 78.3003C112.01 78.3003 112.053 78.4291 112.118 78.6078C112.182 78.7866 112.254 78.994 112.339 79.2443L112.625 80.0453C112.726 80.3242 112.819 80.5888 112.912 80.8391C113.005 81.0894 113.076 81.2968 113.133 81.4684C113.173 81.5588 113.207 81.652 113.233 81.7473C113.291 81.9046 113.355 81.8903 113.434 81.6972C113.434 81.6972 113.476 81.5757 113.541 81.4112L113.755 80.8033C113.841 80.5602 113.927 80.3027 114.02 80.031L114.285 79.2658L114.499 78.6436C114.556 78.472 114.592 78.3647 114.599 78.3289C114.621 78.2566 114.667 78.1941 114.729 78.1523C114.792 78.1105 114.868 78.092 114.943 78.1001H116.308C116.373 78.1001 116.409 78.1001 116.409 78.2074C116.409 78.3146 116.373 78.3146 116.308 78.3146C116.239 78.3058 116.168 78.3114 116.1 78.331C116.032 78.3507 115.969 78.3841 115.915 78.4291C115.874 78.4759 115.843 78.5304 115.824 78.5893C115.804 78.6482 115.796 78.7104 115.801 78.7723V82.9559C115.791 83.0866 115.823 83.2171 115.894 83.3277C115.941 83.3741 115.999 83.4091 116.062 83.4301C116.125 83.4512 116.192 83.4577 116.258 83.4493C116.272 83.4468 116.286 83.4476 116.3 83.4517C116.313 83.4558 116.325 83.4631 116.335 83.473C116.345 83.4829 116.352 83.495 116.356 83.5083C116.36 83.5216 116.361 83.5357 116.359 83.5494C116.359 83.6281 116.359 83.671 116.258 83.671H115.958H115.379H114.263C114.247 83.6722 114.231 83.6699 114.216 83.6641C114.201 83.6583 114.188 83.6492 114.177 83.6376C114.166 83.6259 114.158 83.6119 114.153 83.5967C114.148 83.5814 114.147 83.5653 114.149 83.5494C114.149 83.4851 114.192 83.4493 114.263 83.4493C114.434 83.4709 114.606 83.4303 114.749 83.3349C114.797 83.285 114.834 83.2252 114.856 83.1597C114.878 83.0942 114.886 83.0246 114.878 82.9559V78.6651V78.6078C114.869 78.6034 114.859 78.6011 114.85 78.6011C114.84 78.6011 114.83 78.6034 114.821 78.6078C114.821 78.6078 114.785 78.7151 114.721 78.8939L114.471 79.609C114.37 79.8951 114.263 80.2097 114.149 80.553C114.027 80.8891 113.913 81.2682 113.791 81.5685C113.67 81.8689 113.569 82.2193 113.469 82.4982L113.148 83.4422C113.148 83.4851 113.148 83.5065 113.105 83.5137H113.047C113.027 83.5121 113.007 83.5045 112.99 83.4918C112.974 83.4791 112.961 83.4618 112.954 83.4422C112.954 83.4422 112.919 83.3421 112.854 83.1704L112.597 82.5053C112.497 82.2264 112.382 81.9261 112.261 81.5971C112.139 81.2682 112.01 80.9463 111.889 80.6174L111.538 79.7163L111.288 79.0441C111.258 78.9539 111.222 78.8655 111.181 78.7795C111.176 78.7857 111.174 78.7932 111.174 78.8009C111.174 78.8087 111.176 78.8162 111.181 78.8224V82.3981C111.164 82.5412 111.175 82.6863 111.215 82.825C111.254 82.9636 111.32 83.0932 111.41 83.2062C111.478 83.2799 111.561 83.3383 111.654 83.3778C111.746 83.4172 111.846 83.4367 111.946 83.435C112.025 83.435 112.061 83.435 112.061 83.5351C112.061 83.6353 112.025 83.6567 111.946 83.6567H111.639H111.066H110.459L110.087 83.671Z" fill="#DF7437"/>
<path d="M119.54 83.7354C119.076 83.7441 118.619 83.6201 118.224 83.3778C117.835 83.1294 117.523 82.7778 117.323 82.3623C117.102 81.8903 116.992 81.3743 117.001 80.8534C116.988 80.3274 117.106 79.8065 117.344 79.3373C117.55 78.927 117.864 78.5808 118.252 78.3361C118.637 78.0935 119.085 77.9692 119.54 77.9785C119.994 77.9712 120.441 78.0954 120.827 78.3361C121.213 78.583 121.527 78.9286 121.735 79.3373C121.956 79.8109 122.071 80.3272 122.071 80.8498C122.071 81.3724 121.956 81.8887 121.735 82.3623C121.537 82.7773 121.228 83.1289 120.841 83.3778C120.45 83.6178 119.999 83.7418 119.54 83.7354ZM119.54 83.4493C119.797 83.4455 120.046 83.3631 120.255 83.2133C120.507 83.0007 120.689 82.7164 120.777 82.3981C121.034 81.3844 121.034 80.3224 120.777 79.3087C120.689 78.9903 120.507 78.7061 120.255 78.4934C120.049 78.3368 119.798 78.2492 119.54 78.2431C119.28 78.2467 119.029 78.3346 118.825 78.4934C118.57 78.7042 118.387 78.9892 118.302 79.3087C118.045 80.3224 118.045 81.3843 118.302 82.3981C118.387 82.7175 118.57 83.0025 118.825 83.2133C119.032 83.3648 119.282 83.4474 119.54 83.4493Z" fill="#DF7437"/>
</g>
<defs>
<clipPath id="clip0_270_1067">
<rect width="121.144" height="84" fill="white" transform="translate(0.927734)"/>
</clipPath>
</defs>
</svg>
