<svg width="122" height="84" viewBox="0 0 122 84" fill="none" xmlns="http://www.w3.org/2000/svg">
<path d="M68.3814 1.80193L0 26.6887L20.317 82.5123L88.677 57.6255C92.361 56.3071 95.7482 54.2738 98.644 51.6423C101.54 49.0108 103.887 45.833 105.551 42.2916C107.215 38.7501 108.162 34.9148 108.339 31.006C108.516 27.0972 107.919 23.1919 106.582 19.5146C105.245 15.8373 103.195 12.4604 100.549 9.57794C97.9027 6.6955 94.7131 4.36434 91.1633 2.71839C87.6135 1.07245 83.7735 0.14417 79.8638 -0.0131065C75.9541 -0.170383 72.0519 0.446444 68.3814 1.80193Z" fill="#292929"/>
<path d="M57.2898 12.2856C58.5457 12.2856 59.5639 11.2674 59.5639 10.0114C59.5639 8.75547 58.5457 7.7373 57.2898 7.7373C56.0338 7.7373 55.0156 8.75547 55.0156 10.0114C55.0156 11.2674 56.0338 12.2856 57.2898 12.2856Z" fill="#DF7539"/>
<path d="M99.911 23.8278C100.875 23.8278 101.656 23.0465 101.656 22.0828C101.656 21.1191 100.875 20.3379 99.911 20.3379C98.9473 20.3379 98.166 21.1191 98.166 22.0828C98.166 23.0465 98.9473 23.8278 99.911 23.8278Z" fill="#DF7539"/>
<path d="M98.5754 18.415C97.8499 18.679 97.2189 19.1521 96.7622 19.7746C96.3055 20.3972 96.0436 21.1411 96.0096 21.9124C95.9757 22.6838 96.1711 23.4478 96.5713 24.1081C96.9715 24.7684 97.5584 25.2952 98.2579 25.622C98.9574 25.9487 99.7381 26.0608 100.501 25.944C101.264 25.8272 101.976 25.4867 102.546 24.9657C103.115 24.4446 103.518 23.7664 103.702 23.0166C103.887 22.2669 103.845 21.4793 103.581 20.7535C103.227 19.7804 102.5 18.9877 101.562 18.5493C100.623 18.1109 99.5494 18.0626 98.5754 18.415ZM100.771 24.4436C100.305 24.6143 99.7982 24.643 99.3156 24.5258C98.8331 24.4087 98.3961 24.1511 98.06 23.7856C97.7239 23.4201 97.5038 22.9631 97.4274 22.4725C97.3511 21.9818 97.422 21.4795 97.6311 21.0292C97.8403 20.5788 98.1783 20.2006 98.6025 19.9424C99.0266 19.6842 99.5178 19.5576 100.014 19.5787C100.51 19.5997 100.989 19.7673 101.39 20.0605C101.79 20.3536 102.095 20.759 102.266 21.2255C102.492 21.8505 102.462 22.5397 102.182 23.1426C101.902 23.7455 101.394 24.2132 100.771 24.4436Z" fill="#DF7539"/>
<path d="M85.2448 29.32C85.2448 29.32 84.9373 32.1806 85.6453 32.9959C86.3533 33.8111 90.1507 32.5453 90.2079 32.6168C90.2004 33.3677 90.0423 34.1093 89.743 34.798C89.4924 35.1773 89.157 35.4931 88.7633 35.7205L86.1888 35.9565L86.0458 36.7861C86.0458 36.7861 85.4522 37.1293 85.3306 37.3796C85.252 38.1806 88.2341 40.3189 88.0982 40.1544C87.5762 39.5108 87.7621 39.0888 87.8265 39.0173C87.8908 38.9458 88.9635 38.9172 88.9635 38.9172C88.9645 38.5344 88.9382 38.152 88.8849 37.773C89.28 37.8533 89.6848 37.875 90.0863 37.8373C90.4439 37.7444 91.8742 36.0066 92.1674 35.7992C92.4606 35.5918 93.7049 35.8922 93.7478 35.8492C93.6578 35.4622 93.4547 35.1107 93.1644 34.8395C92.874 34.5682 92.5095 34.3895 92.1173 34.326C92.8324 32.6168 95.1352 34.2044 94.9778 34.0829C93.7979 32.1806 92.5392 32.152 92.5392 32.152C92.5392 32.152 92.718 31.7873 93.1972 31.7158C94.7276 31.4869 95.0994 32.3808 95.0565 32.3093C94.5631 31.5084 93.8551 30.214 92.8324 30.2426C92.5925 30.2239 92.3515 30.2621 92.1291 30.3541C91.9067 30.446 91.7091 30.5891 91.5523 30.7718C91.338 30.5752 91.0771 30.4366 90.7943 30.3691C90.5115 30.3015 90.2161 30.3072 89.9361 30.3856C89.1823 30.5502 88.4468 30.7898 87.7407 31.1007C87.7407 31.1007 89.2353 30.4357 89.4856 29.5131C89.6504 28.9114 89.6329 28.2742 89.4355 27.6824C89.507 27.6824 91.0517 29.2485 92.2961 27.6824C93.5404 26.1162 91.4737 25.1937 91.2663 24.9434C91.0589 24.6931 91.6525 24.3427 91.6882 23.8349C91.6207 23.2885 91.4509 22.7596 91.1876 22.2759C91.2079 22.6248 91.1911 22.9748 91.1376 23.32C91.0217 23.4642 90.8718 23.5772 90.7013 23.649C90.6084 23.649 90.3295 21.804 90.2579 21.8254C90.1864 21.8469 90.1221 22.5405 89.9719 22.7336C89.8588 22.924 89.7137 23.0934 89.5428 23.2342L89.0708 21.6538C89.0708 21.6538 88.8992 22.6979 88.3557 22.655C88.0696 22.655 85.6668 21.6752 85.5952 20.5096C85.6445 20.1161 85.8216 19.7497 86.0994 19.4667C86.3772 19.1838 86.7403 18.9999 87.1328 18.9434C89.7573 19.2295 89.3354 21.1746 89.3354 21.1746C89.6345 20.9137 89.8722 20.5899 90.0317 20.2265C90.1911 19.8631 90.2684 19.4689 90.2579 19.0721C90.308 17.0197 88.227 17.5632 88.227 17.5632C88.227 17.5632 89.5929 15.7396 89.457 14.8242C89.3211 13.9088 87.8765 13.7229 87.6191 12.8361C87.3616 11.9494 88.8992 10.9553 88.8062 10.7408C86.0172 11.3057 85.9457 12.8862 85.9457 12.8862C85.6167 13.8588 87.5762 14.8528 87.5047 15.8898C87.4584 16.1887 87.3521 16.4751 87.1924 16.732C87.0326 16.9888 86.8226 17.2107 86.575 17.3844C86.8277 17.0502 86.9459 16.6334 86.9062 16.2163C86.8665 15.7992 86.6717 15.4122 86.3604 15.1317C85.2162 14.1448 83.6787 15.0388 83.6787 15.0388C84.2072 15.007 84.7271 15.1828 85.1279 15.5288C85.5286 15.8747 85.7784 16.3635 85.8241 16.891C85.8241 17.556 84.6227 19.2867 84.6084 20.4667C84.5764 20.7532 84.6064 21.0434 84.6965 21.3173C84.7866 21.5912 84.9346 21.8426 85.1304 22.0543L91.0732 25.6299C91.0732 25.6299 92.0029 26.2164 91.4379 26.8457C90.873 27.475 90.0076 26.7527 90.0076 26.7527L84.6656 22.6836C84.4939 22.5477 83.0422 21.1317 83.128 20.5382C83.2997 19.6228 83.6858 19.1079 83.6715 18.736C83.6 17.1913 81.6834 16.5906 81.7264 16.419C82.1483 16.0113 82.6989 16.0256 83.5356 15.9756C83.6429 15.7754 81.5476 14.8528 81.097 14.0376C80.6923 13.2298 80.1955 12.4715 79.6167 11.7777C79.3622 11.6745 79.0903 11.6211 78.8157 11.6204C78.8487 11.4822 78.8505 11.3383 78.821 11.1993C78.7915 11.0603 78.7314 10.9296 78.6452 10.8166C78.5589 10.7037 78.4486 10.6113 78.3223 10.5463C78.196 10.4812 78.0567 10.445 77.9147 10.4404C77.0064 10.4404 77.1495 10.9339 76.9993 11.1556C76.7061 11.3487 74.2961 12.1067 74.2961 12.1067L72.2293 14.3022L73.302 17.3344C73.5566 17.3891 73.8198 17.3891 74.0744 17.3344C74.3175 17.0411 74.5321 16.1758 74.7895 16.1186C75.047 16.0614 75.1471 16.183 75.1471 16.183C75.2206 16.3485 75.2586 16.5275 75.2586 16.7086C75.2586 16.8897 75.2206 17.0688 75.1471 17.2342C74.8753 17.6419 73.2091 17.9923 72.7299 18.829C72.3509 19.4869 72.8658 20.8457 72.8658 20.8457L71.929 20.4309C71.929 20.4309 68.4534 21.6109 68.2317 21.804C68.01 21.997 68.0386 21.9827 68.103 22.3189C68.1674 22.655 68.2889 22.6407 68.2818 23.0841C68.287 23.3263 68.2531 23.5677 68.1817 23.7992L71.0422 25.0793V24.3069L71.7573 23.9565V22.7408C71.7925 22.6714 71.843 22.6109 71.9049 22.5639C71.9669 22.5168 72.0387 22.4844 72.1149 22.469C72.7228 22.469 73.3306 23.3129 73.3306 23.3129L73.4093 23.9708L73.3092 25.1436C73.5102 25.1348 73.7063 25.0784 73.8813 24.9792C74.1569 24.7733 74.3678 24.4929 74.4892 24.1711C74.5464 23.9851 74.6536 23.4559 74.9826 23.4559C75.3116 23.4559 75.5404 23.9208 75.3402 24.3069C75.1399 24.6931 74.7037 24.7575 74.4391 25.0221C73.761 26.0893 73.209 27.2316 72.7943 28.4261C73.005 28.9933 73.3719 29.4891 73.8527 29.8564C74.1745 30.0137 76.3771 28.9267 76.3771 28.9267C76.3771 28.9267 76.041 28.6836 76.0053 28.5477C75.9695 28.4118 76.3271 27.8326 76.3271 27.8326C76.3271 27.8326 75.5118 26.9815 75.5547 26.6597C75.5976 26.3379 75.948 26.1019 76.6131 26.0876C77.2782 26.0733 77.2925 26.2164 77.2925 26.2164C77.2925 26.2164 78.3867 27.146 78.4367 27.5036C78.9087 27.6681 78.6084 25.4726 78.6727 25.4512C79.035 25.4609 79.3841 25.589 79.6668 25.8159C79.9783 26.1739 80.2012 26.6001 80.3175 27.0602L80.8539 26.1663L82.5559 26.6097C82.5559 26.6097 83.7216 27.0316 83.9862 27.0888C80.5106 25.9732 79.1018 29.3129 78.9802 29.556C78.7013 30.3355 81.3402 31.7015 82.2842 32.6597C82.2842 32.7813 80.3676 35.0841 79.1948 34.9482C79.1948 34.9482 77.1924 34.2974 77.0494 34.3189C76.5923 34.7597 76.1758 35.2408 75.805 35.7563L76.7991 38.6168C76.7991 38.6168 77.2353 37.68 77.5142 37.6872C77.8217 37.8159 78.1292 38.0662 78.3724 37.9518C78.7442 37.8516 78.7657 37.1508 78.8658 37.0507C78.9659 36.9506 79.8026 37.3296 80.0744 37.1365C80.3461 36.9434 80.2317 36.2497 80.7109 36.2712C81.898 36.3284 82.5059 37.8373 82.5059 37.8373C82.7438 37.6761 82.934 37.4538 83.0565 37.1937C83.1662 36.7186 83.1364 36.222 82.9707 35.7634C83.2903 35.7548 83.6049 35.8447 83.8718 36.0209C84.1879 36.296 84.4187 36.6558 84.5368 37.0578C84.7636 36.7879 84.9316 36.4737 85.0303 36.1353C85.0116 35.5606 84.8546 34.9988 84.5726 34.4976C85.1853 34.7881 85.7088 35.2375 86.0887 35.7992C86.3104 35.7134 86.4534 33.7467 86.2889 33.5179C85.6954 32.8028 85.2234 32.8385 84.8587 32.5453C84.4939 32.2521 84.6298 32.0662 84.1435 31.4082C83.6572 30.7503 81.662 29.978 81.7121 29.978C81.7621 29.978 84.9945 31.9732 86.5893 26.4666C86.5893 25.7515 86.0958 25.6442 86.0958 25.6442" stroke="#DF7539" stroke-width="0.4" stroke-miterlimit="10"/>
<path d="M75.1816 16.1837C75.3694 16.2782 75.5739 16.3347 75.7835 16.3499C75.9931 16.3651 76.2037 16.3387 76.403 16.2722C76.6024 16.2057 76.7867 16.1005 76.9452 15.9626C77.1038 15.8247 77.2336 15.6568 77.3271 15.4686C78.0422 14.0383 77.1554 13.6378 77.1554 13.6378C77.1554 13.6378 77.8706 13.5449 77.7275 16.8846C78.0064 20.4602 81.8467 18.9084 81.8396 18.7725C81.4534 18.1361 80.4093 18.322 79.7371 17.7213C79.0648 17.1206 79.6012 14.4674 79.0219 13.5163C78.8181 13.2347 78.5488 13.0068 78.2374 12.8523C77.926 12.6979 77.5816 12.6214 77.2341 12.6295L78.8074 11.6641" stroke="#DF7539" stroke-width="0.4" stroke-miterlimit="10"/>
<path d="M81.6901 16.4476C81.6901 16.4976 79.7592 15.3105 79.3516 15.4464" stroke="#DF7539" stroke-width="0.4" stroke-miterlimit="10"/>
<path d="M72.9434 20.9108C74.0161 22.3411 76.9481 23.7713 76.9481 23.7713C76.9481 23.7713 73.3724 21.1968 78.1639 18.3506" stroke="#DF7539" stroke-width="0.4" stroke-miterlimit="10"/>
<path d="M76.6049 16.2119C76.6049 16.2119 77.127 16.7483 77.0126 17.0343C73.0507 19.1297 74.2378 22.2048 73.9661 21.8901C73.7483 21.6892 73.5745 21.4454 73.4556 21.174C73.3368 20.9026 73.2754 20.6095 73.2754 20.3132C73.2754 20.0169 73.3368 19.7239 73.4556 19.4525C73.5745 19.1811 73.7483 18.9372 73.9661 18.7363" stroke="#DF7539" stroke-width="0.4" stroke-miterlimit="10"/>
<path d="M75.4974 19.6943C74.5606 21.3177 75.7548 22.0972 75.7548 22.0972" stroke="#DF7539" stroke-width="0.5" stroke-miterlimit="10"/>
<path d="M74.6953 24.922C74.6953 24.922 77.9063 23.549 78.0636 22.7123C78.2209 21.8755 77.5916 20.9816 75.8467 20.6455" stroke="#DF7539" stroke-width="0.4" stroke-miterlimit="10"/>
<path d="M77.3203 21.2034C79.4657 20.7529 79.7303 22.5479 79.7303 22.5479C79.7303 22.5479 80.8817 20.6814 79.8805 20.0807C79.7939 20.0285 79.6999 19.9899 79.6016 19.9663C78.7879 19.7591 78.0227 19.3946 77.3489 18.8936" stroke="#DF7539" stroke-width="0.4" stroke-miterlimit="10"/>
<path d="M79.9102 20.1026C81.0401 20.2242 81.2904 22.1836 81.2904 22.1836C81.7585 21.7596 82.0697 21.1899 82.1736 20.5668C82.2774 19.9438 82.1678 19.3039 81.8625 18.751" stroke="#DF7539" stroke-width="0.4" stroke-miterlimit="10"/>
<path d="M80.89 20.9033C80.89 20.9033 80.5825 22.4051 80.8471 22.5195C82.9925 23.5851 81.7482 26.0022 81.7052 25.7162C81.6134 25.4227 81.4494 25.157 81.2282 24.9434C81.0071 24.7297 80.7359 24.575 80.4395 24.4933C80.7443 25.0514 80.8926 25.6815 80.8685 26.3169" stroke="#DF7539" stroke-width="0.5" stroke-miterlimit="10"/>
<path d="M74.4531 13.0582C74.4531 13.0582 75.2255 12.5004 75.39 12.5647C75.3113 13.6231 74.7249 13.8091 74.7249 13.8091L74.4531 13.0582Z" stroke="#DF7539" stroke-width="0.5" stroke-miterlimit="10"/>
<path d="M73.9173 15.3181C73.9567 15.4299 73.9621 15.5508 73.9329 15.6657C73.9037 15.7806 73.8412 15.8842 73.7532 15.9637C73.6652 16.0431 73.5557 16.0947 73.4384 16.112C73.3212 16.1293 73.2014 16.1115 73.0942 16.0609C72.987 16.0103 72.8972 15.9291 72.8361 15.8275C72.7749 15.726 72.7452 15.6086 72.7506 15.4902C72.7561 15.3718 72.7964 15.2577 72.8665 15.1621C72.9367 15.0666 73.0336 14.9939 73.1449 14.9533C73.2196 14.9261 73.2989 14.914 73.3782 14.9176C73.4576 14.9213 73.5354 14.9406 73.6072 14.9745C73.6791 15.0084 73.7434 15.0563 73.7967 15.1152C73.8499 15.1742 73.8909 15.2431 73.9173 15.3181V15.3181Z" stroke="#DF7539" stroke-width="0.5" stroke-miterlimit="10"/>
<path d="M78.6999 16.627C78.6754 17.0989 78.8216 17.5639 79.1118 17.9368C79.4021 18.3098 79.8169 18.5658 80.2804 18.6579" stroke="#DF7539" stroke-width="0.25" stroke-miterlimit="10"/>
<path d="M80.166 14.624C80.3241 14.907 80.5414 15.1525 80.803 15.3438C81.0647 15.5351 81.3645 15.6677 81.6821 15.7325" stroke="#DF7539" stroke-width="0.25" stroke-miterlimit="10"/>
<path d="M73.5156 14.2524C73.7445 14.2335 73.9728 14.2944 74.1618 14.4248C74.3509 14.5551 74.4889 14.7469 74.5526 14.9675" stroke="#DF7539" stroke-width="0.25" stroke-miterlimit="10"/>
<path d="M87.4961 14.0596C87.7613 14.1983 87.9882 14.4003 88.1569 14.6475C88.3256 14.8947 88.4308 15.1797 88.4634 15.4772C88.4959 15.7747 88.4546 16.0757 88.3433 16.3535C88.232 16.6314 88.054 16.8775 87.8251 17.0703" stroke="#DF7539" stroke-width="0.25" stroke-miterlimit="10"/>
<path d="M88.6767 27.5107C88.8889 28.1922 88.8332 28.929 88.521 29.5709C88.2087 30.2127 87.6633 30.7113 86.9961 30.9649" stroke="#DF7539" stroke-width="0.25" stroke-miterlimit="10"/>
<path d="M89.6855 31.5878C92.7535 30.794 91.1158 34.9203 91.1158 34.9203" stroke="#DF7539" stroke-width="0.25" stroke-miterlimit="10"/>
<path d="M81.418 34.8843C81.418 34.8843 85.437 32.8748 82.8053 31.7949" stroke="#DF7539" stroke-width="0.25" stroke-miterlimit="10"/>
<path d="M69.254 23.5998C69.254 23.7642 69.1396 23.9001 69.0324 23.8858C68.9251 23.8715 68.8607 23.7356 68.875 23.564C68.8893 23.3924 68.9823 23.2636 69.0896 23.2708C69.1968 23.2779 69.2683 23.421 69.254 23.5998Z" fill="#DF7539"/>
<path d="M69.8626 23.7999C69.8626 23.9716 69.7482 24.1003 69.6409 24.0932C69.5336 24.086 69.4621 23.9358 69.4764 23.7642C69.4907 23.5926 69.5908 23.4638 69.6981 23.471C69.8054 23.4781 69.8769 23.5997 69.8626 23.7999Z" fill="#DF7539"/>
<path d="M70.4765 24.0431C70.4765 24.2147 70.3693 24.3435 70.262 24.3363C70.1547 24.3292 70.0832 24.179 70.0975 24.0074C70.1118 23.8357 70.2119 23.707 70.3192 23.7142C70.4265 23.7213 70.498 23.8715 70.4765 24.0431Z" fill="#DF7539"/>
<path d="M74.2673 29.1417C74.3888 29.2561 74.4318 29.4134 74.3602 29.4921C74.2887 29.5708 74.1242 29.535 74.0027 29.4206C73.8811 29.3062 73.8382 29.1417 73.9097 29.0702C73.9812 28.9986 74.1385 29.0201 74.2673 29.1417Z" fill="#DF7539"/>
<path d="M74.8181 28.8771C74.9396 28.9987 74.9825 29.156 74.911 29.2275C74.8395 29.299 74.675 29.2704 74.5534 29.156C74.4319 29.0416 74.389 28.8771 74.4605 28.8056C74.532 28.7341 74.6965 28.7627 74.8181 28.8771Z" fill="#DF7539"/>
<path d="M75.4548 28.6478C75.5763 28.7622 75.6193 28.9196 75.5477 28.9982C75.4762 29.0769 75.3117 29.0411 75.1902 28.9267C75.0686 28.8123 75.0257 28.6478 75.0972 28.5691C75.1687 28.4905 75.326 28.5262 75.4548 28.6478Z" fill="#DF7539"/>
<path d="M76.8418 35.8135C76.713 35.935 76.5557 35.9636 76.4842 35.885C76.4127 35.8063 76.4842 35.649 76.5772 35.5346C76.6701 35.4201 76.8632 35.3844 76.9347 35.463C77.0062 35.5417 76.9633 35.699 76.8418 35.8135Z" fill="#DF7539"/>
<path d="M77.0703 36.3857C76.9415 36.5001 76.7842 36.5359 76.7127 36.4572C76.6412 36.3786 76.7127 36.2212 76.8057 36.1068C76.8986 35.9924 77.0917 35.9566 77.1632 36.0353C77.2348 36.114 77.1918 36.2713 77.0703 36.3857Z" fill="#DF7539"/>
<path d="M77.2342 37.0371C77.1126 37.1515 76.9481 37.1801 76.8766 37.1086C76.8051 37.0371 76.8766 36.8726 76.9767 36.751C77.0768 36.6295 77.2628 36.608 77.3343 36.6795C77.4058 36.751 77.3843 36.9155 77.2342 37.0371Z" fill="#DF7539"/>
<path d="M86.6605 37.6373C86.6033 37.7946 86.4674 37.8947 86.3745 37.859C86.2815 37.8232 86.2457 37.6587 86.3029 37.5014C86.3602 37.3441 86.496 37.244 86.5961 37.2797C86.6963 37.3155 86.7249 37.4799 86.6605 37.6373Z" fill="#DF7539"/>
<path d="M87.0528 38.0023C86.9885 38.1596 86.8597 38.2598 86.7596 38.2169C86.6595 38.1739 86.6381 38.0238 86.6953 37.8593C86.7525 37.6948 86.8884 37.609 86.9885 37.6447C87.0886 37.6805 87.1172 37.845 87.0528 38.0023Z" fill="#DF7539"/>
<path d="M87.5039 38.5023C87.4467 38.6596 87.318 38.7526 87.2179 38.7168C87.1177 38.6811 87.0891 38.5166 87.1535 38.3593C87.2179 38.2019 87.3394 38.1018 87.4396 38.1447C87.5397 38.1876 87.5683 38.3378 87.5039 38.5023Z" fill="#DF7539"/>
<path d="M78.0494 9.16819C78.128 9.39704 77.0911 9.98345 75.7252 10.4769C74.3593 10.9703 73.1865 11.192 73.1006 10.9703C73.0148 10.7486 74.0589 10.1622 75.4248 9.66164C76.7907 9.16104 77.9493 8.9465 78.0494 9.16819Z" stroke="#DF7539" stroke-width="0.4" stroke-miterlimit="10"/>
<path d="M73.1298 10.9627L70.541 9.18921L70.7198 8.53843L72.1501 8.6314C72.1501 8.6314 72.4933 9.17491 72.6864 9.12485C72.8795 9.07479 72.5792 8.40971 72.8509 8.25238L73.7734 8.896C73.7734 8.896 74.7389 8.62425 74.6745 8.35965C74.3785 8.40978 74.0749 8.39019 73.7877 8.30244C73.7877 8.30244 73.2442 7.5873 74.0595 7.40852C74.0595 7.20113 73.4802 6.93653 74.224 6.49314L74.3742 6.43593C75.2252 6.30721 74.9534 6.87932 75.0893 7.03665C75.8044 6.64332 75.8759 7.55154 75.8759 7.55154C75.8759 7.55154 75.783 7.76609 75.2323 8.16656C75.3539 8.40256 76.2693 7.99493 76.2693 7.99493L76.5196 6.90792C76.8199 6.85071 77.0273 7.56585 77.2347 7.48003C77.4421 7.39421 77.3277 6.76489 77.3277 6.76489L78.3575 5.78516L78.9153 6.16418L78.0714 9.18206" stroke="#DF7539" stroke-width="0.4" stroke-miterlimit="10"/>
<path d="M75.1971 8.17401C75.7478 7.77354 75.8407 7.55899 75.8407 7.55899C75.8407 7.55899 75.805 6.65077 75.0898 7.0441" stroke="#DF7539" stroke-width="0.5" stroke-miterlimit="10"/>
<path d="M11.4428 24.5864L27.5906 68.9249C28.7634 72.1359 29.736 74.4029 29.1067 76.2265C28.4774 78.0501 27.9839 78.5078 25.674 79.3516C25.0576 79.6005 24.418 79.7874 23.7646 79.9094C23.1231 80.0151 22.4648 79.899 21.8981 79.5805L21.5977 79.3874C21.3188 78.851 21.4905 78.236 21.6549 77.242C21.8194 76.2479 22.6633 75.1681 22.2485 74.0382C21.9986 73.3135 21.5979 72.65 21.0728 72.0916C20.5476 71.5332 19.91 71.0925 19.202 70.7986C18.1757 70.4749 17.0746 70.4749 16.0483 70.7986L20.3391 82.5268L32.5393 78.0858C32.6967 77.7783 32.8754 77.4494 33.0828 77.1133C35.4929 73.2515 38.3534 67.4947 36.444 62.2456L32.0387 50.1669C32.4359 50.4738 32.8568 50.7488 33.2974 50.9893C34.4935 51.6464 35.8244 52.0207 37.1877 52.0835C38.7036 52.1487 40.2169 51.9054 41.6359 51.3683C42.746 50.9835 43.7814 50.4102 44.6967 49.6734C45.4661 49.046 46.1279 48.2972 46.6561 47.4565C47.1308 46.7022 47.4877 45.8799 47.7145 45.0179C47.8884 44.3561 47.9915 43.6777 48.0221 42.9941C48.7687 43.6104 49.5905 44.1294 50.4678 44.5388C51.4394 44.9512 52.4748 45.1931 53.5286 45.2539C54.729 45.3214 55.9332 45.2542 57.1186 45.0537L58.9851 44.8248C61.295 44.5817 63.5405 44.1097 64.3701 44.4744C64.8228 44.681 65.2231 44.9869 65.5413 45.3695C65.8595 45.752 66.0874 46.2014 66.208 46.6842C66.7658 48.6723 65.9505 50.0382 65.3713 51.0608C64.792 52.0835 63.6478 52.9202 61.86 53.5638C58.4201 54.8153 54.5155 52.5483 52.9207 50.5316L50.9827 47.9142L49.1949 48.565L52.4845 57.497L53.5858 57.1323L54.587 54.6508L54.73 54.5936C55.3754 55.1042 56.1559 55.4149 56.9756 55.4875C58.3269 55.6734 59.6984 55.6565 61.0447 55.4375C62.4805 55.2224 63.8399 54.6521 64.9994 53.7783C66.2948 52.8855 67.335 51.6703 68.0173 50.2527C68.6177 49.0244 68.8958 47.6634 68.8254 46.298C68.7608 45.2985 68.5363 44.3158 68.1603 43.3874C67.3594 41.1848 65.4213 38.4315 63.6549 37.7235C61.8886 37.0155 60.2938 37.2158 57.6836 37.5447L55.1806 38.0024C54.5155 38.0668 52.2199 38.6174 50.475 38.4029C50.0051 38.3629 49.5604 38.1733 49.2064 37.8617C48.8524 37.5502 48.6077 37.1332 48.5083 36.6723C48.1365 35.6425 48.0149 33.8117 48.6299 32.882C49.3561 31.6754 50.4782 30.758 51.8051 30.2861C53.0468 29.7779 54.414 29.6607 55.7241 29.95C56.7968 30.2289 59.4285 31.4947 60.2437 33.1538L60.9589 34.6413L62.3319 34.0978L71.0423 30.9512L70.6561 29.8928L67.5596 31.0227L62.2175 16.4053L55.3379 19.1442L55.624 19.9452L58.4845 18.9726L63.5548 32.5602L62.3963 32.9678L59.9577 26.1454L58.7849 26.5531L58.3915 28.6484L58.2485 28.6985C57.3312 28.4691 56.3994 28.3018 55.4595 28.1979C53.8375 28.1932 52.2324 28.5269 50.7467 29.1776C49.6988 29.632 48.74 30.2688 47.9148 31.0584C47.2585 31.6752 46.7141 32.4011 46.3057 33.2038C45.9802 33.7688 45.7393 34.3783 45.5906 35.0131C45.1903 34.1615 44.6806 33.3658 44.0745 32.646C43.2698 31.6783 42.2741 30.8871 41.1496 30.3218C40.0345 29.7757 38.8151 29.4757 37.5739 29.4422C36.1867 29.4195 34.808 29.6623 33.5119 30.1574C32.1879 30.6248 30.9717 31.3545 29.9362 32.3028C28.9702 33.1999 28.2134 34.2986 27.7193 35.5209C27.5193 36.031 27.3638 36.5573 27.2545 37.0942L21.3617 20.7891L28.5131 18.1216L27.8909 16.5268L2.73242 25.6949L3.39035 27.5114L11.4428 24.5864ZM45.4762 36.2932C45.4529 37.2685 45.6155 38.2393 45.9553 39.1538C46.2485 39.9619 46.5131 40.8558 46.8635 41.5852C46.7917 43.2009 46.4207 44.7891 45.7694 46.2694C44.9353 47.9173 43.5141 49.1931 41.7861 49.8451C41.0859 50.1333 40.3335 50.2732 39.5765 50.2559C38.8195 50.2387 38.0743 50.0647 37.388 49.745C36.0435 49.0942 34.6776 45.5328 33.9982 43.652L32.9684 40.7914L45.4762 36.2932ZM32.0816 38.7175C31.3665 36.8367 30.8016 34.9488 30.9946 33.776C31.1877 32.6031 32.4249 31.5733 33.6406 31.1156C34.2034 30.8697 34.8157 30.7584 35.429 30.7907C36.0423 30.823 36.6396 30.9979 37.1734 31.3016C38.1603 31.9452 38.9327 34.1621 39.612 36.0215L39.798 36.5292L32.2819 39.2611L32.0816 38.7175Z" fill="#DF7539"/>
<path d="M47.0052 83.7355C46.9591 83.7353 46.9144 83.7197 46.8781 83.6912C46.8419 83.6627 46.8161 83.623 46.805 83.5782C46.805 83.5782 46.805 83.4638 46.7049 83.2922L46.4617 82.6485L46.1399 81.7832L45.768 80.8464L45.4462 79.9811L45.1959 79.3232L45.0887 79.0228C45.024 78.8058 44.9089 78.6073 44.7525 78.4435C44.6288 78.3507 44.4782 78.3005 44.3235 78.3005C44.3026 78.3076 44.28 78.3076 44.2591 78.3005C44.2544 78.2892 44.252 78.277 44.252 78.2648C44.252 78.2525 44.2544 78.2403 44.2591 78.229C44.2591 78.1432 44.2591 78.1074 44.3521 78.1074H44.5666H44.9242H45.8109H46.2758H46.5189C46.5833 78.1074 46.6191 78.1074 46.6191 78.229C46.6238 78.2403 46.6262 78.2525 46.6262 78.2648C46.6262 78.277 46.6238 78.2892 46.6191 78.3005C46.608 78.3062 46.5957 78.3091 46.5833 78.3091C46.5709 78.3091 46.5586 78.3062 46.5475 78.3005C46.1423 78.3005 45.9921 78.4721 46.097 78.8154C46.097 78.8655 46.1542 78.987 46.2186 79.173L46.4546 79.8452C46.5475 80.1027 46.6477 80.3744 46.7478 80.6605L47.0267 81.4614C47.1125 81.7117 47.184 81.9263 47.2484 82.0979C47.3127 82.2695 47.3413 82.3696 47.3485 82.3982C47.3556 82.4268 47.3485 82.3982 47.3485 82.3982C47.3485 82.3982 47.3986 82.2481 47.4486 82.0907C47.4987 81.9334 47.563 81.7332 47.6417 81.5115C47.7204 81.2898 47.7919 81.0466 47.8777 80.7963C47.9635 80.546 48.0422 80.3029 48.1208 80.0812C48.1995 79.8595 48.2639 79.6307 48.3211 79.4447L48.4355 79.0514C48.4674 78.962 48.4763 78.866 48.4613 78.7722C48.4463 78.6785 48.4079 78.59 48.3497 78.515C48.2819 78.4444 48.1993 78.3898 48.1077 78.3551C48.0162 78.3205 47.918 78.3067 47.8205 78.3148C47.7928 78.3252 47.7623 78.3252 47.7347 78.3148C47.7299 78.3035 47.7275 78.2913 47.7275 78.2791C47.7275 78.2668 47.7299 78.2546 47.7347 78.2433C47.7254 78.2154 47.7254 78.1853 47.7347 78.1575C47.7623 78.147 47.7928 78.147 47.8205 78.1575H48.128H48.7144H49.2865H49.5869C49.6655 78.1575 49.7013 78.1575 49.7013 78.2791C49.7081 78.3024 49.7081 78.3272 49.7013 78.3506C49.6736 78.361 49.6431 78.361 49.6155 78.3506C49.5204 78.3456 49.4253 78.3608 49.3365 78.3953C49.2477 78.4299 49.1673 78.4829 49.1006 78.5508C48.9586 78.7171 48.8494 78.9088 48.7788 79.1158C48.7788 79.1873 48.7073 79.316 48.6357 79.5019L48.4069 80.1742C48.3139 80.4388 48.221 80.7177 48.1137 81.0109L47.8133 81.8905L47.5344 82.6986C47.4558 82.9417 47.3843 83.142 47.327 83.3065C47.2698 83.4709 47.2412 83.5639 47.2269 83.5997C47.2126 83.6354 47.091 83.7355 47.0052 83.7355Z" fill="#292929"/>
<path d="M50.2168 83.6711C50.1453 83.6711 50.1167 83.6282 50.1167 83.5496C50.1141 83.5358 50.1149 83.5217 50.1191 83.5084C50.1232 83.4951 50.1305 83.483 50.1404 83.4731C50.1502 83.4632 50.1623 83.4559 50.1757 83.4518C50.189 83.4477 50.2031 83.4469 50.2168 83.4494C50.4114 83.4613 50.6064 83.4321 50.7889 83.3636C50.8516 83.3294 50.9024 83.2767 50.9343 83.2128C50.9663 83.1489 50.9779 83.0768 50.9677 83.006V78.7152C50.9754 78.6483 50.964 78.5806 50.9349 78.5199C50.9058 78.4592 50.8602 78.4079 50.8032 78.372C50.6177 78.2957 50.4169 78.2639 50.2168 78.279C50.1453 78.279 50.1167 78.279 50.1167 78.1717C50.1167 78.0644 50.1167 78.0645 50.2168 78.0645H52.6769C52.7556 78.0645 52.7913 78.0644 52.7913 78.1717C52.7913 78.279 52.7913 78.279 52.6769 78.279C52.4792 78.2645 52.2808 78.2963 52.0976 78.372C52.0381 78.4056 51.9899 78.4562 51.9594 78.5174C51.9288 78.5785 51.9172 78.6474 51.926 78.7152V83.006C51.9164 83.0775 51.9291 83.1502 51.9624 83.2142C51.9957 83.2782 52.0479 83.3304 52.1119 83.3636C52.2923 83.4311 52.4847 83.4603 52.6769 83.4494C52.7556 83.4494 52.7913 83.4494 52.7913 83.5496C52.7913 83.6497 52.7913 83.6711 52.6769 83.6711H52.3408H51.8759H51.0035H50.5529H50.2168Z" fill="#292929"/>
<path d="M53.2774 83.6711C53.2637 83.6736 53.2495 83.6728 53.2362 83.6687C53.2229 83.6646 53.2108 83.6573 53.2009 83.6474C53.1911 83.6375 53.1837 83.6254 53.1796 83.6121C53.1755 83.5988 53.1747 83.5847 53.1772 83.571C53.1772 83.4923 53.1772 83.4494 53.2774 83.4494C53.4239 83.4584 53.5701 83.4262 53.6993 83.3564C53.8232 83.2619 53.9195 83.136 53.9782 82.9917C53.9782 82.9059 54.0783 82.77 54.157 82.5769L54.4359 81.8618C54.536 81.59 54.6504 81.304 54.7648 80.9965L55.1224 80.0739L55.4442 79.2158L55.7017 78.5006C55.766 78.3147 55.8161 78.186 55.8447 78.1145C55.8575 78.0629 55.8878 78.0174 55.9305 77.9857C55.9868 77.9715 56.0458 77.9715 56.1022 77.9857C56.1608 77.9709 56.2223 77.9709 56.2809 77.9857C56.324 78.0184 56.3564 78.0633 56.3739 78.1145C56.3739 78.2217 56.4812 78.3862 56.567 78.6151C56.6528 78.8439 56.7601 79.1157 56.8817 79.416L57.2464 80.36L57.6182 81.3254L57.9472 82.1764C58.0402 82.4267 58.1188 82.627 58.176 82.7629C58.2377 82.9462 58.3377 83.1144 58.4693 83.2563C58.5509 83.3399 58.6603 83.3907 58.7768 83.3993C58.8411 83.3993 58.8769 83.4422 58.8769 83.5209C58.8794 83.5346 58.8786 83.5487 58.8745 83.562C58.8704 83.5754 58.8631 83.5875 58.8532 83.5973C58.8434 83.6072 58.8312 83.6145 58.8179 83.6186C58.8046 83.6228 58.7905 83.6236 58.7768 83.621H56.8173C56.8036 83.6236 56.7895 83.6228 56.7761 83.6186C56.7628 83.6145 56.7507 83.6072 56.7408 83.5973C56.731 83.5875 56.7237 83.5754 56.7196 83.562C56.7154 83.5487 56.7146 83.5346 56.7172 83.5209C56.7172 83.4422 56.7172 83.3993 56.8173 83.3993C56.9371 83.4098 57.0573 83.3823 57.1606 83.3207C57.1894 83.2974 57.2127 83.268 57.2288 83.2346C57.2448 83.2012 57.2533 83.1646 57.2535 83.1276C57.2657 83.0662 57.2657 83.003 57.2535 82.9416L57.2035 82.8058C57.2035 82.7271 57.1463 82.627 57.1105 82.5125C57.0747 82.3981 57.0318 82.2766 56.9889 82.1621C56.946 82.0477 56.9174 81.9333 56.8817 81.8403C56.8698 81.8033 56.8503 81.7692 56.8244 81.7402H56.7386H54.7505C54.7429 81.761 54.7429 81.7838 54.7505 81.8046C54.7505 81.9118 54.6862 82.0334 54.6361 82.1836C54.5867 82.3215 54.5461 82.4624 54.5146 82.6055C54.4816 82.7147 54.4624 82.8277 54.4573 82.9416C54.448 83.0106 54.4563 83.0809 54.4813 83.1459C54.5063 83.2109 54.5472 83.2685 54.6004 83.3135C54.7198 83.3817 54.8564 83.4139 54.9937 83.4065C55.0581 83.4065 55.0938 83.4494 55.0938 83.528C55.0964 83.5418 55.0956 83.5559 55.0914 83.5692C55.0873 83.5825 55.08 83.5946 55.0701 83.6045C55.0603 83.6143 55.0482 83.6217 55.0348 83.6258C55.0215 83.6299 55.0074 83.6307 54.9937 83.6282H53.2774V83.6711ZM54.9293 81.5257H56.5956H56.66C56.66 81.5257 56.66 81.5257 56.66 81.4398L56.5026 80.9893L56.3024 80.4315L56.1022 79.8737L55.9305 79.4017L55.8376 79.1371C55.8293 79.1161 55.8142 79.0984 55.7946 79.087C55.7946 79.087 55.7589 79.087 55.7517 79.087C55.7446 79.087 55.7088 79.2158 55.6516 79.3516C55.5944 79.4875 55.53 79.6663 55.4442 79.8594L55.2082 80.4673C55.1224 80.6746 55.0509 80.8606 54.9865 81.0251L54.8507 81.3898C54.8435 81.4541 54.865 81.5257 54.9293 81.5257Z" fill="#292929"/>
<path d="M60.5368 83.7283C60.1922 83.7504 59.8521 83.6405 59.5856 83.4208C59.4754 83.3235 59.3876 83.2034 59.3283 83.0688C59.269 82.9342 59.2397 82.7884 59.2424 82.6413C59.2392 82.4751 59.2894 82.3122 59.3854 82.1765C59.4352 82.1111 59.5005 82.0592 59.5754 82.0255C59.6504 81.9918 59.7325 81.9773 59.8145 81.9834C59.8835 81.9814 59.9521 81.9938 60.0161 82.0196C60.0801 82.0455 60.1381 82.0843 60.1863 82.1336C60.2353 82.1791 60.274 82.2346 60.2998 82.2962C60.3257 82.3579 60.3382 82.4243 60.3365 82.4911C60.3419 82.5715 60.3163 82.6508 60.265 82.7128C60.217 82.7616 60.1582 82.7983 60.0934 82.8201L59.9289 82.8988C59.9053 82.9123 59.886 82.9322 59.8733 82.9563C59.8607 82.9804 59.8551 83.0075 59.8574 83.0347C59.8605 83.0871 59.8773 83.1378 59.9062 83.1818C59.9351 83.2257 59.9749 83.2613 60.0219 83.285C60.161 83.3563 60.3161 83.3907 60.4724 83.3851C60.6004 83.3937 60.7284 83.3676 60.8429 83.3098C60.9574 83.2519 61.0542 83.1643 61.1232 83.0561C61.2642 82.7521 61.328 82.4181 61.3091 82.0835V78.7367C61.3134 78.6736 61.3041 78.6103 61.2819 78.5511C61.2597 78.4919 61.2251 78.4381 61.1804 78.3934C61.0491 78.3017 60.8889 78.261 60.7298 78.279C60.6512 78.279 60.6083 78.279 60.6083 78.1789C60.6083 78.0788 60.6512 78.0645 60.7298 78.0645H62.8752C62.9396 78.0645 62.9754 78.0645 62.9754 78.1789C62.9837 78.1995 62.9837 78.2226 62.9754 78.2432C62.9643 78.2489 62.952 78.2518 62.9396 78.2518C62.9272 78.2518 62.9149 78.2489 62.9039 78.2432C62.7414 78.2275 62.5782 78.2652 62.439 78.3505C62.3913 78.3948 62.3542 78.4493 62.3307 78.51C62.3071 78.5708 62.2977 78.636 62.3031 78.7009V82.012C62.3183 82.348 62.2416 82.6817 62.0814 82.9774C61.9441 83.2179 61.7337 83.4083 61.4807 83.5209C61.1859 83.661 60.8631 83.7319 60.5368 83.7283Z" fill="#292929"/>
<path d="M63.5828 83.671C63.5185 83.671 63.4827 83.6281 63.4827 83.5494C63.4816 83.536 63.4835 83.5225 63.4881 83.5099C63.4928 83.4972 63.5001 83.4858 63.5097 83.4763C63.5192 83.4667 63.5307 83.4594 63.5433 83.4547C63.5559 83.4501 63.5694 83.4482 63.5828 83.4493C63.7821 83.4679 63.9827 83.4308 64.1621 83.342C64.2144 83.2992 64.2554 83.2442 64.2816 83.1819C64.3077 83.1196 64.3183 83.0518 64.3123 82.9845V78.7723C64.3156 78.7087 64.3052 78.6451 64.2818 78.5859C64.2583 78.5266 64.2224 78.4732 64.1764 78.4291C64.0072 78.333 63.8119 78.293 63.6186 78.3146C63.5542 78.3146 63.5185 78.2717 63.5185 78.2002C63.5159 78.1865 63.5167 78.1724 63.5209 78.1591C63.525 78.1457 63.5323 78.1336 63.5422 78.1238C63.552 78.1139 63.5641 78.1066 63.5774 78.1025C63.5908 78.0984 63.6049 78.0975 63.6186 78.1001H67.7878C67.8118 78.0969 67.8361 78.099 67.8592 78.1063C67.8822 78.1136 67.9033 78.1259 67.9211 78.1423C67.9388 78.1587 67.9528 78.1788 67.9619 78.2011C67.971 78.2235 67.975 78.2476 67.9738 78.2717C67.9802 78.3479 67.9802 78.4244 67.9738 78.5006C67.9738 78.6078 67.9738 78.7151 67.9738 78.8367C67.9738 78.9583 67.9738 79.0584 67.9738 79.1513C67.9738 79.2443 67.9738 79.3015 67.9738 79.323C67.9793 79.3465 67.9793 79.371 67.9738 79.3945C67.9738 79.3945 67.9738 79.3945 67.9094 79.3945H67.8236C67.8027 79.3783 67.7876 79.3557 67.7807 79.3301C67.7103 79.1781 67.6315 79.0301 67.5447 78.8867C67.4493 78.727 67.3199 78.5903 67.1657 78.4863C66.9869 78.365 66.7736 78.3048 66.5578 78.3146H65.3993C65.3619 78.3039 65.3223 78.3039 65.2849 78.3146C65.2849 78.3146 65.242 78.379 65.242 78.4505V80.553C65.2336 80.5737 65.2336 80.5967 65.242 80.6174C65.265 80.6262 65.2905 80.6262 65.3135 80.6174H65.7068C65.8809 80.6307 66.0539 80.5798 66.1931 80.4743C66.3022 80.3898 66.3883 80.2791 66.4434 80.1525C66.5006 80.031 66.5435 79.9237 66.5793 79.8379C66.5891 79.8072 66.6036 79.7783 66.6222 79.7521C66.6222 79.7521 66.6222 79.7521 66.7008 79.7521C66.7157 79.7508 66.7307 79.7543 66.7435 79.762C66.7563 79.7697 66.7664 79.7812 66.7724 79.795C66.7787 79.8184 66.7787 79.8431 66.7724 79.8665C66.7724 79.9094 66.7724 79.9809 66.7724 80.0882C66.7724 80.1954 66.7724 80.3027 66.7724 80.4314V81.1466C66.7724 81.2825 66.7724 81.404 66.7724 81.5113C66.7724 81.6186 66.7724 81.6972 66.7724 81.733C66.7724 81.7687 66.7724 81.8474 66.6794 81.8474C66.5864 81.8474 66.5864 81.8474 66.565 81.7473C66.5435 81.6472 66.4863 81.5328 66.4291 81.404C66.3695 81.2721 66.2816 81.1549 66.1716 81.0608C66.0334 80.9528 65.8604 80.8993 65.6853 80.9106H65.292C65.2205 80.9106 65.1919 80.9106 65.1919 81.025V83.2419C65.1896 83.2622 65.1919 83.2827 65.1987 83.302C65.2054 83.3212 65.2164 83.3387 65.2308 83.3532C65.2453 83.3676 65.2628 83.3786 65.282 83.3853C65.3013 83.3921 65.3218 83.3944 65.3421 83.3921H66.379C66.5943 83.3976 66.8078 83.351 67.0012 83.2562C67.1619 83.172 67.3051 83.0579 67.4231 82.9201C67.524 82.7943 67.6103 82.6576 67.6806 82.5125C67.7378 82.3766 67.7878 82.2622 67.8165 82.1692C67.8451 82.0763 67.8165 82.0977 67.8665 82.0906H67.9523C67.9952 82.0906 68.0167 82.0906 68.0238 82.1335C68.0273 82.1548 68.0273 82.1765 68.0238 82.1978V82.3909C68.0238 82.4982 68.0238 82.6269 68.0238 82.7628C68.0238 82.8987 68.0238 83.0345 68.0238 83.1561V83.4064C68.0233 83.4682 68.0033 83.5283 67.9666 83.578C67.9454 83.5998 67.9197 83.6168 67.8913 83.6279C67.863 83.639 67.8326 83.644 67.8021 83.6424H65.7926H64.2551L63.5828 83.671Z" fill="#292929"/>
<path d="M71.064 83.7348C70.8371 83.7359 70.6111 83.7071 70.3918 83.649C70.2078 83.6003 70.0283 83.5357 69.8554 83.4559L69.5336 83.3201C69.4797 83.3058 69.423 83.3058 69.3691 83.3201C69.3132 83.3272 69.2621 83.3553 69.2261 83.3987H69.1904C69.1386 83.4543 69.0837 83.5069 69.0259 83.5561C68.9758 83.6133 68.9258 83.6276 68.8829 83.599C68.8596 83.591 68.8399 83.5752 68.8269 83.5544C68.8138 83.5336 68.8084 83.5089 68.8113 83.4846V81.9828C68.8113 81.9256 68.8471 81.8898 68.9115 81.8755C68.9758 81.8612 69.0259 81.8755 69.0402 81.9327C69.1378 82.2137 69.2883 82.4735 69.4836 82.6979C69.6824 82.9223 69.926 83.1026 70.1987 83.2271C70.4829 83.351 70.7898 83.4143 71.0998 83.413C71.328 83.422 71.554 83.3649 71.7506 83.2486C71.9082 83.1477 72.0364 83.0071 72.1224 82.8409C72.1997 82.6877 72.2412 82.519 72.244 82.3475C72.2516 82.1517 72.1853 81.9602 72.0581 81.8111C71.9247 81.6673 71.761 81.555 71.5789 81.4822C71.3629 81.3923 71.1406 81.3182 70.9138 81.2605C70.6707 81.2033 70.4276 81.1318 70.1987 81.0602C69.9696 80.9922 69.7489 80.8987 69.5408 80.7813C69.3261 80.6682 69.1489 80.4951 69.0308 80.283C68.9127 80.071 68.8588 79.8292 68.8757 79.5871C68.8632 79.2724 68.9508 78.9619 69.126 78.7003C69.3081 78.4567 69.5563 78.2705 69.8411 78.1639C70.1187 78.0317 70.4206 77.9587 70.7279 77.9494C70.9012 77.9472 71.0742 77.9664 71.2428 78.0066C71.4076 78.0415 71.5701 78.0869 71.7291 78.1425C71.8449 78.1835 71.9573 78.2338 72.0652 78.2927C72.1868 78.357 72.2869 78.357 72.3513 78.2927C72.4011 78.2437 72.4563 78.2005 72.5157 78.1639C72.5338 78.1488 72.5566 78.1405 72.5801 78.1405C72.6037 78.1405 72.6264 78.1488 72.6445 78.1639C72.6681 78.1774 72.6873 78.1974 72.7 78.2215C72.7127 78.2455 72.7182 78.2727 72.716 78.2998V79.6157C72.718 79.6449 72.7088 79.6738 72.6902 79.6964C72.6715 79.719 72.6449 79.7336 72.6159 79.7372C72.5875 79.7439 72.5576 79.7395 72.5323 79.7249C72.5071 79.7103 72.4883 79.6865 72.48 79.6586C72.3726 79.4021 72.2307 79.1614 72.0581 78.9434C71.8922 78.7361 71.6913 78.5594 71.4645 78.4214C71.2479 78.2928 71.0012 78.2238 70.7494 78.2211C70.5473 78.2194 70.3481 78.2685 70.1701 78.3642C70.0078 78.453 69.8702 78.5808 69.7696 78.736C69.673 78.8901 69.6233 79.0691 69.6266 79.2509C69.6223 79.3448 69.6364 79.4385 69.6683 79.5269C69.7002 79.6152 69.7492 79.6964 69.8125 79.7658C69.9528 79.9029 70.1211 80.0079 70.306 80.0734C70.5395 80.1563 70.7785 80.2232 71.0211 80.2736L71.7362 80.4595C71.9703 80.5262 72.1959 80.6198 72.4085 80.7384C72.6121 80.8547 72.784 81.0192 72.9091 81.2176C73.0414 81.4502 73.1058 81.7153 73.095 81.9828C73.1044 82.3077 73.016 82.6279 72.8414 82.9021C72.6667 83.1762 72.4137 83.3916 72.1153 83.5203C71.7849 83.6683 71.426 83.7416 71.064 83.7348Z" fill="#292929"/>
<path d="M77.9077 83.9999C77.5659 84.0019 77.2266 83.9413 76.9065 83.8211C76.6202 83.7066 76.3722 83.5132 76.1914 83.2633C75.9991 82.9712 75.9039 82.6258 75.9196 82.2764C75.9143 81.9938 75.9967 81.7164 76.1556 81.4826C76.3273 81.246 76.5406 81.0425 76.785 80.8819C77.062 80.6939 77.351 80.5243 77.6503 80.3742C77.6523 80.3599 77.6523 80.3455 77.6503 80.3313C77.6541 80.3235 77.656 80.3149 77.656 80.3062C77.656 80.2976 77.6541 80.289 77.6503 80.2812L77.5001 80.0166C77.4673 79.9576 77.4315 79.9003 77.3928 79.845C77.3088 79.6877 77.2347 79.5253 77.1711 79.3587C77.1051 79.1851 77.0711 79.0009 77.071 78.8152C77.0656 78.6556 77.0986 78.497 77.167 78.3527C77.2354 78.2083 77.3374 78.0825 77.4643 77.9856C77.7657 77.7635 78.1345 77.6523 78.5084 77.671C78.7746 77.6625 79.0391 77.7164 79.2808 77.8283C79.4818 77.9223 79.6563 78.0648 79.7885 78.2431C79.9068 78.4075 79.9694 78.6055 79.9673 78.808C79.9699 78.9974 79.9123 79.1827 79.8028 79.3372C79.6741 79.5043 79.5167 79.6472 79.338 79.7592C79.1378 79.8879 78.9089 80.0166 78.6229 80.1453C78.6155 80.1498 78.6093 80.1561 78.6051 80.1636C78.6008 80.1711 78.5986 80.1796 78.5986 80.1882C78.5986 80.1969 78.6008 80.2054 78.6051 80.2129C78.6093 80.2204 78.6155 80.2267 78.6229 80.2312L79.2236 81.1894L79.8457 82.1978C79.9427 82.0025 80.0287 81.802 80.1032 81.5971C80.1826 81.3751 80.2471 81.1482 80.2963 80.9177C80.3392 80.6888 80.2963 80.5387 80.1747 80.46C80.0125 80.3809 79.8329 80.344 79.6527 80.3527C79.574 80.3527 79.5382 80.3098 79.5382 80.224C79.5382 80.1382 79.5382 80.0953 79.6527 80.0953H79.9387C80.0603 80.0953 80.2677 80.0953 80.5394 80.0953C80.7252 80.1049 80.9114 80.1049 81.0972 80.0953H81.3332C81.4119 80.0953 81.4476 80.1382 81.4476 80.224C81.4476 80.3098 81.4119 80.3527 81.3332 80.3527C81.1744 80.3475 81.0184 80.3953 80.8898 80.4886C80.7457 80.6232 80.6502 80.8018 80.6181 80.9963C80.5394 81.2824 80.4608 81.5542 80.3678 81.8116C80.2789 82.0567 80.1738 82.2956 80.0531 82.5267C80.0392 82.5453 80.0317 82.5679 80.0317 82.5911C80.0317 82.6143 80.0392 82.6369 80.0531 82.6555C80.1604 82.8271 80.2605 82.9773 80.332 83.0988L80.4822 83.342C80.5183 83.4059 80.5669 83.4619 80.6252 83.5065C80.6883 83.5542 80.7619 83.5861 80.8398 83.5994H81.0901H81.3547C81.4405 83.5994 81.4763 83.6424 81.4763 83.7282C81.4763 83.814 81.4763 83.8569 81.3547 83.8569H81.0972H80.5966H80.1246H79.8672C79.8203 83.8693 79.771 83.8693 79.7242 83.8569C79.6719 83.8268 79.6296 83.7821 79.6026 83.7282C79.5872 83.6928 79.568 83.6593 79.5454 83.6281C79.5454 83.578 79.4882 83.5136 79.4453 83.4421C79.4393 83.4358 79.432 83.4309 79.4241 83.4274C79.4161 83.424 79.4075 83.4223 79.3988 83.4223C79.3901 83.4223 79.3815 83.424 79.3735 83.4274C79.3655 83.4309 79.3583 83.4358 79.3523 83.4421C79.1437 83.628 78.9007 83.7713 78.6372 83.864C78.403 83.9485 78.1566 83.9944 77.9077 83.9999ZM78.3153 83.5351C78.4833 83.5345 78.6491 83.498 78.8016 83.4278C78.9667 83.3461 79.1186 83.24 79.2522 83.1132C79.2644 83.0979 79.271 83.079 79.271 83.0595C79.271 83.04 79.2644 83.0211 79.2522 83.0059L78.8088 82.2478C78.6372 81.9689 78.4727 81.69 78.3082 81.4111C78.1437 81.1322 77.9864 80.8676 77.8434 80.6316C77.8434 80.5887 77.7933 80.5816 77.7504 80.6316C77.4991 80.7777 77.286 80.9811 77.1282 81.2252C76.9895 81.4893 76.9229 81.7853 76.9351 82.0834C76.9169 82.2854 76.9399 82.4891 77.0025 82.6821C77.0652 82.875 77.1664 83.0533 77.2999 83.2061C77.4386 83.326 77.5999 83.4168 77.7743 83.4733C77.9487 83.5298 78.1327 83.5508 78.3153 83.5351ZM78.5156 79.895C78.721 79.7693 78.887 79.5884 78.9947 79.373C79.0709 79.1744 79.1097 78.9635 79.1092 78.7508C79.1321 78.5291 79.0764 78.3064 78.9518 78.1215C78.8929 78.0609 78.8214 78.014 78.7422 77.9843C78.6631 77.9547 78.5784 77.9429 78.4941 77.9499C78.407 77.9445 78.3199 77.9614 78.2411 77.9989C78.1623 78.0364 78.0943 78.0934 78.0436 78.1644C77.9378 78.3307 77.8854 78.5253 77.8934 78.7222C77.8969 78.8476 77.9236 78.9713 77.9721 79.0869C78.0254 79.2127 78.0875 79.3346 78.158 79.4517C78.1898 79.5113 78.2256 79.5686 78.2653 79.6233L78.4155 79.8736C78.4441 79.9165 78.4727 79.9308 78.5156 79.895Z" fill="#292929"/>
<path d="M85.4238 83.6713C85.3594 83.6713 85.3236 83.6713 85.3236 83.564C85.3236 83.4568 85.3236 83.4496 85.4238 83.4496C85.6247 83.4688 85.8268 83.4264 86.003 83.328C86.0515 83.2855 86.0896 83.2325 86.1144 83.173C86.1392 83.1135 86.15 83.0491 86.1461 82.9848V78.5009C86.1461 78.3936 86.096 78.3364 85.9887 78.3364H85.5239C85.3494 78.33 85.1771 78.3774 85.0304 78.4723C84.8905 78.5574 84.7709 78.6721 84.68 78.8084C84.5941 78.9348 84.5199 79.0689 84.4583 79.2088C84.4011 79.3423 84.3582 79.4568 84.3296 79.5521C84.3253 79.5635 84.3186 79.5739 84.31 79.5825C84.3013 79.5912 84.291 79.5979 84.2795 79.6022C84.2538 79.6095 84.2266 79.6095 84.2009 79.6022C84.2009 79.6022 84.1508 79.6022 84.1437 79.6022C84.1396 79.5833 84.1396 79.5638 84.1437 79.545C84.1437 79.545 84.1437 79.4591 84.1437 79.3447C84.1437 79.2303 84.1437 79.1087 84.1437 78.9657C84.1437 78.8227 84.1437 78.6868 84.1437 78.5652C84.1437 78.4436 84.1437 78.3578 84.1437 78.3078C84.1437 78.2577 84.2152 78.1361 84.3439 78.1361H88.8779C88.9028 78.133 88.928 78.1353 88.9519 78.143C88.9758 78.1506 88.9977 78.1634 89.0161 78.1805C89.0346 78.1975 89.049 78.2184 89.0585 78.2416C89.0679 78.2648 89.0722 78.2899 89.071 78.3149C89.071 78.3578 89.071 78.4293 89.071 78.5509C89.071 78.6725 89.071 78.8084 89.071 78.9514C89.071 79.0944 89.071 79.2303 89.071 79.3447C89.071 79.4591 89.071 79.5235 89.071 79.545C89.071 79.5664 89.071 79.6022 89.071 79.6093C89.071 79.6165 89.071 79.6093 88.9994 79.6093H88.9279C88.9037 79.5931 88.884 79.5709 88.8707 79.545C88.8278 79.452 88.7778 79.3447 88.7205 79.2088C88.6604 79.0704 88.5861 78.9386 88.4989 78.8155C88.4115 78.6793 88.2971 78.5624 88.1627 78.4723C88.0191 78.3766 87.8488 78.3291 87.6764 78.3364H87.2474C87.2076 78.325 87.1655 78.325 87.1258 78.3364C87.1258 78.3364 87.0757 78.4007 87.0757 78.4723V82.9562C87.0748 83.0368 87.0893 83.117 87.1186 83.1922C87.1369 83.232 87.1636 83.2674 87.197 83.2958C87.2303 83.3242 87.2695 83.345 87.3117 83.3566C87.4613 83.407 87.619 83.4289 87.7766 83.421C87.7921 83.4186 87.8081 83.4198 87.8231 83.4247C87.8381 83.4296 87.8517 83.438 87.8629 83.4491C87.874 83.4603 87.8824 83.4739 87.8873 83.4889C87.8922 83.5039 87.8934 83.5198 87.891 83.5354C87.891 83.6069 87.891 83.6427 87.7766 83.6427H87.3975H86.618H85.8314L85.4238 83.6713Z" fill="#292929"/>
<path d="M92.2518 83.7348C91.8762 83.743 91.5018 83.6899 91.1433 83.5775C90.8585 83.4781 90.6096 83.2964 90.4282 83.0554C90.2367 82.7763 90.1414 82.4425 90.1564 82.1043V78.736C90.1608 78.6226 90.1309 78.5104 90.0706 78.4142C90.0134 78.3284 89.8632 78.2855 89.6201 78.2855C89.605 78.2867 89.5899 78.2845 89.5759 78.2791C89.5618 78.2737 89.5491 78.2652 89.5388 78.2542C89.5285 78.2432 89.5208 78.23 89.5163 78.2156C89.5118 78.2012 89.5106 78.186 89.5128 78.1711C89.5128 78.0995 89.5128 78.0709 89.6201 78.0709H91.6725C91.6862 78.0684 91.7003 78.0692 91.7137 78.0733C91.727 78.0775 91.7391 78.0848 91.749 78.0946C91.7588 78.1045 91.7661 78.1166 91.7703 78.1299C91.7744 78.1432 91.7752 78.1574 91.7726 78.1711C91.7726 78.2426 91.7369 78.2855 91.6725 78.2855C91.4222 78.2855 91.2577 78.3284 91.1934 78.4214C91.1212 78.5101 91.0832 78.6217 91.0861 78.736V81.8612C91.0824 82.1197 91.1161 82.3775 91.1862 82.6264C91.2444 82.8332 91.3735 83.0129 91.5509 83.1341C91.7882 83.2745 92.0626 83.3393 92.3376 83.32C92.6055 83.3308 92.8723 83.2794 93.1171 83.1699C93.3092 83.0771 93.4724 82.9337 93.5891 82.7551C93.7065 82.5723 93.7867 82.3682 93.8251 82.1544C93.87 81.9187 93.8916 81.6792 93.8894 81.4392V79.2581C93.8901 79.0872 93.8709 78.9168 93.8322 78.7503C93.7946 78.6142 93.7174 78.4923 93.6105 78.3999C93.4752 78.3045 93.3109 78.259 93.1457 78.2712C93.1301 78.2736 93.1142 78.2724 93.0992 78.2675C93.0842 78.2626 93.0705 78.2542 93.0594 78.2431C93.0482 78.2319 93.0399 78.2183 93.035 78.2033C93.0301 78.1883 93.0288 78.1723 93.0313 78.1568C93.0313 78.0852 93.067 78.0566 93.1457 78.0566H94.9121C94.9907 78.0566 95.0265 78.0566 95.0265 78.1568C95.029 78.1723 95.0277 78.1883 95.0228 78.2033C95.0179 78.2183 95.0095 78.2319 94.9984 78.2431C94.9872 78.2542 94.9736 78.2626 94.9586 78.2675C94.9436 78.2724 94.9277 78.2736 94.9121 78.2712C94.7853 78.2691 94.6599 78.2986 94.5474 78.357C94.4262 78.4257 94.3326 78.5344 94.2828 78.6645C94.2085 78.8558 94.1744 79.0602 94.1826 79.2652V81.6109C94.1887 81.9839 94.1256 82.3549 93.9967 82.705C93.8793 83.0023 93.6685 83.2533 93.396 83.4202C93.0553 83.6387 92.6563 83.7484 92.2518 83.7348Z" fill="#292929"/>
<path d="M99.6463 83.7061C99.4713 83.7174 99.2982 83.6639 99.16 83.5559C99.0293 83.4496 98.9242 83.3151 98.8525 83.1626C98.7675 82.9887 98.7004 82.8066 98.6523 82.6191C98.6022 82.426 98.5521 82.2329 98.5092 82.0398C98.4706 81.8573 98.418 81.678 98.3519 81.5035C98.3043 81.354 98.2237 81.2171 98.1159 81.103C98.0628 81.0522 97.9999 81.0127 97.9311 80.9869C97.8622 80.9611 97.7889 80.9495 97.7154 80.9528H97.1219C97.0503 80.9528 97.0217 80.9528 97.0217 81.0458V82.9552C97.0211 83.0423 97.0331 83.129 97.0575 83.2127C97.0758 83.2504 97.1018 83.2839 97.1338 83.311C97.1658 83.3381 97.2032 83.3582 97.2434 83.37C97.3802 83.4107 97.5229 83.4277 97.6654 83.42C97.7297 83.42 97.7655 83.42 97.7655 83.5345C97.7722 83.5578 97.7722 83.5826 97.7655 83.606C97.7544 83.6116 97.7422 83.6146 97.7297 83.6146C97.7173 83.6146 97.705 83.6116 97.694 83.606H97.2577H96.5426H95.8275H95.4556C95.3912 83.606 95.3555 83.606 95.3555 83.4987C95.3555 83.3914 95.3555 83.3843 95.4556 83.3843C95.5934 83.3922 95.7314 83.3752 95.8632 83.3342C95.8985 83.321 95.9303 83.3 95.9563 83.2727C95.9823 83.2455 96.0018 83.2127 96.0134 83.1769C96.0378 83.0933 96.0498 83.0066 96.0492 82.9195V78.7073C96.0505 78.6272 96.0384 78.5474 96.0134 78.4713C96.0002 78.4352 95.9792 78.4025 95.9521 78.3753C95.9249 78.3481 95.8921 78.3272 95.8561 78.314C95.7324 78.2696 95.6011 78.2501 95.4699 78.2568C95.4576 78.2625 95.4442 78.2655 95.4306 78.2655C95.417 78.2655 95.4035 78.2625 95.3912 78.2568C95.3824 78.2337 95.3824 78.2083 95.3912 78.1852C95.3912 78.1066 95.427 78.0708 95.4985 78.0708H95.8489H96.5641H97.6225H98.3376C98.63 78.0647 98.9211 78.1132 99.1958 78.2139C99.4411 78.2995 99.6569 78.4533 99.8179 78.6572C99.986 78.8924 100.071 79.1765 100.061 79.4653C100.066 79.66 100.019 79.8524 99.9252 80.0231C99.8456 80.1747 99.7332 80.3067 99.5962 80.4093C99.4671 80.507 99.3251 80.5864 99.1743 80.6453C99.0347 80.7047 98.8914 80.7549 98.7452 80.7955C98.6952 80.7955 98.6666 80.7955 98.6666 80.8527C98.6607 80.8611 98.6576 80.8711 98.6576 80.8813C98.6576 80.8915 98.6607 80.9015 98.6666 80.9099C98.8437 80.9625 99.0024 81.0642 99.1242 81.2031C99.2406 81.3415 99.3325 81.4987 99.396 81.668C99.4648 81.8373 99.5198 82.0119 99.5605 82.19C99.6105 82.3688 99.6534 82.5333 99.6892 82.6906C99.7218 82.8198 99.7749 82.943 99.8465 83.0553C99.8733 83.0974 99.9103 83.1319 99.9541 83.1557C99.9979 83.1795 100.047 83.1917 100.097 83.1912C100.141 83.2018 100.188 83.2018 100.233 83.1912C100.291 83.162 100.342 83.1205 100.383 83.0696C100.401 83.0444 100.426 83.0247 100.454 83.0124C100.454 83.0124 100.497 83.0124 100.526 83.0124C100.538 83.0201 100.547 83.0307 100.554 83.0433C100.56 83.0559 100.563 83.0699 100.562 83.0839C100.566 83.1148 100.566 83.1461 100.562 83.1769C100.488 83.316 100.382 83.4359 100.254 83.5273C100.08 83.6597 99.864 83.7234 99.6463 83.7061ZM97.1219 80.7025H97.837C97.9957 80.7139 98.1551 80.6925 98.3053 80.6396C98.4554 80.5867 98.593 80.5035 98.7095 80.395C98.9279 80.1366 99.0358 79.8027 99.0098 79.4653C99.0224 79.1663 98.9342 78.8717 98.7595 78.6286C98.6678 78.5186 98.5512 78.432 98.4194 78.3761C98.2876 78.3201 98.1443 78.2964 98.0015 78.3068H97.1791C97.1442 78.2954 97.1066 78.2954 97.0718 78.3068C97.036 78.3068 97.0217 78.3712 97.0217 78.4427V80.5881C97.0141 80.6113 97.0141 80.6364 97.0217 80.6596C97.0325 80.6757 97.0477 80.6883 97.0655 80.6959C97.0832 80.7035 97.1028 80.7058 97.1219 80.7025Z" fill="#292929"/>
<path d="M101.114 83.6711C101.05 83.6711 101.014 83.6282 101.014 83.5496C101.013 83.5361 101.015 83.5226 101.019 83.51C101.024 83.4974 101.031 83.4859 101.041 83.4764C101.05 83.4668 101.062 83.4595 101.075 83.4549C101.087 83.4502 101.101 83.4484 101.114 83.4494C101.309 83.4613 101.504 83.4321 101.686 83.3636C101.749 83.3294 101.8 83.2767 101.832 83.2128C101.864 83.1489 101.875 83.0768 101.865 83.006V78.7152C101.873 78.6483 101.861 78.5806 101.832 78.5199C101.803 78.4592 101.757 78.4079 101.701 78.372C101.515 78.2949 101.314 78.263 101.114 78.279C101.05 78.279 101.014 78.279 101.014 78.1717C101.014 78.0644 101.05 78.0645 101.114 78.0645H103.581C103.61 78.0645 103.637 78.0758 103.657 78.0959C103.677 78.116 103.689 78.1433 103.689 78.1717C103.689 78.2002 103.677 78.2275 103.657 78.2476C103.637 78.2677 103.61 78.279 103.581 78.279C103.381 78.2652 103.181 78.2969 102.995 78.372C102.935 78.4056 102.887 78.4562 102.857 78.5174C102.826 78.5785 102.814 78.6474 102.823 78.7152V83.006C102.814 83.0775 102.826 83.1502 102.86 83.2142C102.893 83.2782 102.945 83.3304 103.009 83.3636C103.192 83.4309 103.387 83.4601 103.581 83.4494C103.653 83.4494 103.696 83.4494 103.696 83.5496C103.698 83.5654 103.697 83.5816 103.692 83.5968C103.687 83.6121 103.679 83.626 103.668 83.6377C103.657 83.6493 103.643 83.6584 103.628 83.6642C103.613 83.67 103.597 83.6723 103.581 83.6711H103.238H102.773H101.901H101.457H101.114Z" fill="#292929"/>
<path d="M106.556 83.7356C106.331 83.7372 106.108 83.7083 105.891 83.6498C105.704 83.6022 105.522 83.5376 105.347 83.4567L105.033 83.3209C104.979 83.3072 104.922 83.3072 104.868 83.3209C104.84 83.3227 104.813 83.3307 104.788 83.3443C104.763 83.3579 104.742 83.3768 104.725 83.3995L104.561 83.5569C104.504 83.6141 104.461 83.6284 104.411 83.5998C104.389 83.5896 104.372 83.5732 104.36 83.5527C104.349 83.5322 104.344 83.5087 104.346 83.4853V81.9836C104.346 81.9263 104.346 81.8906 104.446 81.8763C104.546 81.862 104.561 81.8763 104.575 81.9335C104.67 82.2169 104.821 82.478 105.02 82.7006C105.22 82.9232 105.462 83.1026 105.734 83.2279C106.02 83.3526 106.329 83.4159 106.642 83.4138C106.868 83.423 107.092 83.3658 107.285 83.2494C107.446 83.1525 107.576 83.0109 107.657 82.8417C107.74 82.6902 107.784 82.5208 107.786 82.3483C107.794 82.1525 107.727 81.961 107.6 81.8119C107.464 81.6681 107.298 81.5559 107.114 81.483C106.898 81.393 106.676 81.3189 106.449 81.2613C106.206 81.2041 105.962 81.1325 105.734 81.061C105.502 80.9943 105.279 80.9007 105.069 80.7821C104.875 80.6692 104.711 80.5124 104.589 80.3244C104.462 80.108 104.398 79.8603 104.403 79.6093C104.394 79.2939 104.484 78.9835 104.661 78.7225C104.844 78.4795 105.092 78.2935 105.376 78.1862C105.669 78.059 105.986 77.9956 106.306 78.0002C106.479 77.998 106.652 78.0172 106.821 78.0575C106.985 78.0933 107.148 78.1387 107.307 78.1933C107.422 78.2372 107.534 78.2874 107.643 78.3435C107.765 78.4079 107.858 78.4079 107.929 78.3435C107.976 78.2947 108.029 78.2515 108.086 78.2148C108.104 78.1997 108.127 78.1914 108.151 78.1914C108.174 78.1914 108.197 78.1997 108.215 78.2148C108.239 78.2276 108.259 78.2474 108.272 78.2717C108.285 78.2959 108.29 78.3234 108.287 78.3507V79.6665C108.289 79.6947 108.281 79.7227 108.263 79.7451C108.246 79.7676 108.221 79.7829 108.194 79.7881C108.18 79.7924 108.165 79.7937 108.15 79.7921C108.136 79.7904 108.121 79.7857 108.109 79.7783C108.096 79.7709 108.085 79.761 108.076 79.7492C108.067 79.7373 108.061 79.7238 108.058 79.7094C107.945 79.4541 107.801 79.2138 107.629 78.9943C107.465 78.7873 107.267 78.6106 107.042 78.4722C106.825 78.3458 106.579 78.2769 106.327 78.272C106.123 78.2693 105.921 78.3185 105.741 78.415C105.581 78.5041 105.445 78.6319 105.347 78.7869C105.249 78.9404 105.196 79.1192 105.197 79.3018C105.193 79.3956 105.207 79.4894 105.239 79.5777C105.271 79.6661 105.32 79.7473 105.383 79.8167C105.526 79.9538 105.697 80.0586 105.884 80.1242C106.105 80.2075 106.332 80.2745 106.563 80.3244L107.278 80.5104C107.527 80.5745 107.767 80.6681 107.993 80.7893C108.194 80.9065 108.364 81.0709 108.487 81.2684C108.623 81.4997 108.687 81.7658 108.673 82.0336C108.682 82.3646 108.593 82.6909 108.415 82.9704C108.24 83.2358 107.992 83.4446 107.7 83.5712C107.337 83.7156 106.945 83.7719 106.556 83.7356Z" fill="#292929"/>
<path d="M109.159 83.6704C109.095 83.6704 109.059 83.6275 109.059 83.5488C109.058 83.5354 109.06 83.5219 109.064 83.5093C109.069 83.4966 109.076 83.4852 109.086 83.4756C109.095 83.4661 109.107 83.4588 109.119 83.4541C109.132 83.4495 109.146 83.4476 109.159 83.4487C109.258 83.4513 109.357 83.4314 109.447 83.3905C109.537 83.3497 109.617 83.2889 109.681 83.2127C109.838 82.9792 109.908 82.6987 109.881 82.4189V78.8432C109.888 78.7712 109.881 78.6985 109.858 78.6297C109.836 78.5608 109.8 78.4972 109.753 78.4428C109.63 78.3443 109.473 78.2981 109.316 78.314C109.245 78.314 109.216 78.314 109.216 78.2068C109.216 78.0995 109.216 78.0995 109.316 78.0995H110.747C110.817 78.09 110.889 78.1047 110.95 78.141C111.011 78.1774 111.058 78.2333 111.083 78.2997C111.083 78.2997 111.126 78.4284 111.19 78.6072C111.254 78.786 111.326 78.9934 111.412 79.2437L111.698 80.0447C111.798 80.3236 111.891 80.5882 111.984 80.8385C112.077 81.0888 112.148 81.2961 112.205 81.4678C112.246 81.5582 112.279 81.6514 112.306 81.7467C112.363 81.904 112.427 81.8897 112.506 81.6966C112.506 81.6966 112.549 81.575 112.613 81.4106L112.828 80.8027C112.913 80.5596 112.999 80.3021 113.092 80.0304L113.357 79.2652L113.571 78.643C113.629 78.4714 113.664 78.3641 113.672 78.3283C113.693 78.256 113.739 78.1935 113.802 78.1517C113.864 78.1098 113.94 78.0914 114.015 78.0995H115.381C115.445 78.0995 115.481 78.0995 115.481 78.2068C115.481 78.314 115.445 78.314 115.381 78.314C115.311 78.3052 115.24 78.3108 115.172 78.3304C115.105 78.3501 115.042 78.3835 114.987 78.4284C114.947 78.4753 114.916 78.5298 114.896 78.5887C114.876 78.6476 114.869 78.7098 114.873 78.7717V82.9553C114.863 83.086 114.896 83.2164 114.966 83.3271C115.014 83.3735 115.071 83.4085 115.134 83.4295C115.198 83.4506 115.265 83.4571 115.331 83.4487C115.344 83.4462 115.358 83.447 115.372 83.4511C115.385 83.4552 115.397 83.4625 115.407 83.4724C115.417 83.4822 115.424 83.4944 115.428 83.5077C115.433 83.521 115.433 83.5351 115.431 83.5488C115.431 83.6275 115.431 83.6704 115.331 83.6704H115.03H114.451H113.335C113.319 83.6716 113.303 83.6692 113.288 83.6635C113.274 83.6577 113.26 83.6486 113.249 83.637C113.238 83.6253 113.23 83.6113 113.225 83.5961C113.22 83.5808 113.219 83.5647 113.221 83.5488C113.221 83.4845 113.264 83.4487 113.335 83.4487C113.506 83.4703 113.679 83.4296 113.822 83.3343C113.87 83.2844 113.906 83.2246 113.928 83.1591C113.95 83.0936 113.958 83.024 113.95 82.9553V78.6644V78.6072C113.942 78.6028 113.932 78.6005 113.922 78.6005C113.912 78.6005 113.902 78.6028 113.893 78.6072C113.893 78.6072 113.857 78.7145 113.793 78.8933L113.543 79.6084C113.443 79.8945 113.335 80.2091 113.221 80.5524C113.099 80.8885 112.985 81.2675 112.863 81.5679C112.742 81.8683 112.642 82.2187 112.542 82.4976L112.22 83.4416C112.22 83.4845 112.22 83.5059 112.177 83.5131H112.12C112.099 83.5115 112.079 83.5038 112.063 83.4911C112.046 83.4785 112.034 83.4612 112.027 83.4416C112.027 83.4416 111.991 83.3414 111.927 83.1698L111.669 82.5047C111.569 82.2258 111.455 81.9255 111.333 81.5965C111.211 81.2675 111.083 80.9457 110.961 80.6168L110.611 79.7157L110.36 79.0435C110.33 78.9533 110.294 78.8649 110.253 78.7789C110.249 78.7851 110.246 78.7926 110.246 78.8003C110.246 78.8081 110.249 78.8156 110.253 78.8218V82.3975C110.236 82.5406 110.248 82.6857 110.287 82.8243C110.326 82.963 110.393 83.0926 110.482 83.2056C110.55 83.2792 110.633 83.3377 110.726 83.3771C110.818 83.4166 110.918 83.4361 111.018 83.4344C111.097 83.4344 111.133 83.4344 111.133 83.5345C111.133 83.6346 111.097 83.6561 111.018 83.6561H110.711H110.139H109.531L109.159 83.6704Z" fill="#292929"/>
<path d="M118.612 83.7349C118.148 83.7436 117.692 83.6196 117.296 83.3773C116.907 83.1289 116.595 82.7773 116.395 82.3618C116.174 81.8899 116.064 81.3738 116.073 80.8529C116.061 80.3269 116.178 79.806 116.416 79.3368C116.622 78.9265 116.936 78.5803 117.325 78.3356C117.71 78.093 118.157 77.9687 118.612 77.978C119.066 77.9707 119.513 78.0949 119.899 78.3356C120.286 78.5825 120.599 78.9281 120.807 79.3368C121.028 79.8104 121.143 80.3267 121.143 80.8493C121.143 81.3719 121.028 81.8882 120.807 82.3618C120.61 82.7768 120.3 83.1284 119.913 83.3773C119.522 83.6173 119.071 83.7413 118.612 83.7349ZM118.612 83.4488C118.869 83.445 119.118 83.3626 119.327 83.2128C119.58 83.0002 119.762 82.7159 119.849 82.3976C120.107 81.3839 120.107 80.3219 119.849 79.3082C119.762 78.9899 119.58 78.7056 119.327 78.4929C119.121 78.3363 118.871 78.2487 118.612 78.2426C118.353 78.2462 118.102 78.3341 117.897 78.4929C117.642 78.7037 117.46 78.9887 117.375 79.3082C117.117 80.3219 117.117 81.3839 117.375 82.3976C117.46 82.7171 117.642 83.0021 117.897 83.2128C118.105 83.3643 118.355 83.4469 118.612 83.4488Z" fill="#292929"/>
</svg>
