<svg width="18" height="19" viewBox="0 0 18 19" fill="none" xmlns="http://www.w3.org/2000/svg">
<path d="M3.54 2.80859C3.6 3.69859 3.75 4.56859 3.99 5.39859L2.79 6.59859C2.38 5.39859 2.12 4.12859 2.03 2.80859H3.54ZM13.4 14.8286C14.25 15.0686 15.12 15.2186 16 15.2786V16.7686C14.68 16.6786 13.41 16.4186 12.2 16.0186L13.4 14.8286ZM4.5 0.808594H1C0.45 0.808594 0 1.25859 0 1.80859C0 11.1986 7.61 18.8086 17 18.8086C17.55 18.8086 18 18.3586 18 17.8086V14.3186C18 13.7686 17.55 13.3186 17 13.3186C15.76 13.3186 14.55 13.1186 13.43 12.7486C13.33 12.7086 13.22 12.6986 13.12 12.6986C12.86 12.6986 12.61 12.7986 12.41 12.9886L10.21 15.1886C7.38 13.7386 5.06 11.4286 3.62 8.59859L5.82 6.39859C6.1 6.11859 6.18 5.72859 6.07 5.37859C5.7 4.25859 5.5 3.05859 5.5 1.80859C5.5 1.25859 5.05 0.808594 4.5 0.808594Z" fill="#292929"/>
</svg>
