<svg width="16" height="21" viewBox="0 0 16 21" fill="none" xmlns="http://www.w3.org/2000/svg">
<path d="M8 10.8086C6.9 10.8086 6 9.90859 6 8.80859C6 7.70859 6.9 6.80859 8 6.80859C9.1 6.80859 10 7.70859 10 8.80859C10 9.90859 9.1 10.8086 8 10.8086ZM14 9.00859C14 5.37859 11.35 2.80859 8 2.80859C4.65 2.80859 2 5.37859 2 9.00859C2 11.3486 3.95 14.4486 8 18.1486C12.05 14.4486 14 11.3486 14 9.00859ZM8 0.808594C12.2 0.808594 16 4.02859 16 9.00859C16 12.3286 13.33 16.2586 8 20.8086C2.67 16.2586 0 12.3286 0 9.00859C0 4.02859 3.8 0.808594 8 0.808594Z" fill="#292929"/>
</svg>
